<svg fill="none" height="18" viewBox="0 0 18 18" width="18" xmlns="http://www.w3.org/2000/svg">
    <path clip-rule="evenodd"
        d="M17.3333 15.6666V9.83329H15.6667V15.6666H2.33332V2.33329H8.16666V0.666626H2.33332C1.41285 0.666626 0.666656 1.41282 0.666656 2.33329V15.6666C0.666656 16.5871 1.41285 17.3333 2.33332 17.3333H15.6667C16.5871 17.3333 17.3333 16.5871 17.3333 15.6666ZM14.9817 1.26948C14.5998 0.884476 14.0767 0.666626 13.5311 0.666626C12.9861 0.666626 12.4636 0.883984 12.0795 1.27048L5.1054 8.24448C4.48221 8.79357 4.07369 9.61066 4.0027 10.4894L3.99999 13.1686V14.0019H7.44549C8.39074 13.9371 9.21584 13.5245 9.79791 12.8531L16.7325 5.92149C17.1172 5.53676 17.3334 5.01495 17.3334 4.47086C17.3334 3.92677 17.1172 3.40496 16.7325 3.02023L14.9817 1.26948ZM7.38664 12.3373C7.83183 12.3058 8.24623 12.0986 8.57898 11.718L13.6306 6.6664L11.3353 4.37102L6.24674 9.45795C5.90912 9.75656 5.70025 10.1743 5.66666 10.5565V12.3357L7.38664 12.3373ZM12.514 3.1927L14.8091 5.48788L15.554 4.74298C15.6262 4.67081 15.6667 4.57292 15.6667 4.47086C15.6667 4.36879 15.6262 4.27091 15.554 4.19874L13.8009 2.44567C13.7296 2.37375 13.6324 2.33329 13.5311 2.33329C13.4298 2.33329 13.3327 2.37375 13.2613 2.44567L12.514 3.1927Z"
        fill="#F6921E" fill-rule="evenodd" />
</svg>
