<svg fill="none" height="20" viewBox="0 0 20 20" width="20" xmlns="http://www.w3.org/2000/svg">
    <path clip-rule="evenodd"
        d="M10 19.1667C4.9374 19.1667 0.833344 15.0626 0.833344 10C0.833344 4.93743 4.9374 0.833374 10 0.833374C15.0626 0.833374 19.1667 4.93743 19.1667 10C19.1667 15.0626 15.0626 19.1667 10 19.1667ZM10 17.5C14.1421 17.5 17.5 14.1422 17.5 10C17.5 5.8579 14.1421 2.50004 10 2.50004C5.85787 2.50004 2.50001 5.8579 2.50001 10C2.50001 14.1422 5.85787 17.5 10 17.5ZM12.3255 12.3255L14.651 5.3491L7.67453 7.67457L5.34906 14.651L12.3255 12.3255ZM11.0079 11.0079L7.9843 12.0158L8.99216 8.99218L12.0157 7.98432L11.0079 11.0079Z"
        fill="#F6921E" fill-rule="evenodd" />
</svg>
