<svg fill="none" height="18" viewBox="0 0 18 18" width="18" xmlns="http://www.w3.org/2000/svg">
    <path clip-rule="evenodd"
        d="M16.6731 4.62755C17.5534 5.1166 17.5534 6.21665 16.6731 6.70571L15.5435 7.33329L16.6731 7.96087C17.5534 8.44993 17.5534 9.54998 16.6731 10.039L15.5434 10.6666L16.6731 11.2942C17.5534 11.7833 17.5534 12.8833 16.6731 13.3724L9.9638 17.0998C9.40333 17.4111 8.59665 17.4111 8.03618 17.0998L1.32688 13.3724C0.446583 12.8833 0.446583 11.7833 1.32688 11.2942L2.45653 10.6666L1.32688 10.039C0.446583 9.54998 0.446583 8.44993 1.32688 7.96087L2.45653 7.33329L1.32688 6.70571C0.446583 6.21665 0.446583 5.1166 1.32688 4.62755L8.03618 0.900156C8.59665 0.588783 9.40333 0.588783 9.9638 0.900156L16.6731 4.62755ZM9.9638 10.4331L13.8275 8.28659L15.1116 8.99995L13.8275 9.71332L12.1116 10.6666L9.1544 12.3095C9.09729 12.3412 8.90269 12.3412 8.84558 12.3095L5.88841 10.6666L4.17247 9.71332L2.88841 8.99995L4.17247 8.28659L8.03618 10.4331C8.59665 10.7445 9.40333 10.7445 9.9638 10.4331ZM4.17247 11.6199L2.88841 12.3333L8.84558 15.6428C8.90269 15.6745 9.09729 15.6745 9.1544 15.6428L15.1116 12.3333L13.8275 11.6199L9.9638 13.7664C9.40333 14.0778 8.59665 14.0778 8.03618 13.7664L4.17247 11.6199ZM8.84559 2.35709C8.90269 2.32536 9.0973 2.32536 9.1544 2.35709L15.1116 5.66663L9.1544 8.97617C9.0973 9.00789 8.90269 9.00789 8.84559 8.97617L2.88841 5.66663L8.84559 2.35709Z"
        fill="#F6921E" fill-rule="evenodd" />
</svg>
