<svg fill="none" height="300" viewBox="0 0 259 300" width="259" xmlns="http://www.w3.org/2000/svg">
    <path clip-rule="evenodd"
        d="M44.9024 0C48.2677 0 51 2.61992 51 5.85447C51 9.08135 48.2757 11.7013 44.9024 11.7013L31.85 11.7089C21.017 11.7243 12.2031 20.1833 12.2031 30.5785V45.1455C12.2031 48.3724 9.46284 51 6.09757 51C2.73229 51 0 48.3724 0 45.1455V30.5785C0 13.7373 14.2864 0.0230491 31.842 0.00768304L44.8944 0H44.9024ZM214.125 0H226.945C244.626 0 259 13.7219 259 30.6015V45.1455C259 48.3724 256.264 51 252.876 51C249.495 51 246.751 48.3724 246.751 45.1455V30.6015C246.751 20.1757 237.866 11.6936 226.945 11.6936H214.125C210.744 11.6936 208 9.08135 208 5.85447C208 2.61992 210.744 0 214.125 0Z"
        fill="white" fill-rule="evenodd" />
    <path clip-rule="evenodd"
        d="M44.9024 300C48.2677 300 51 297.38 51 294.146C51 290.919 48.2757 288.299 44.9024 288.299L31.85 288.291C21.017 288.276 12.2031 279.817 12.2031 269.422V254.854C12.2031 251.628 9.46284 249 6.09757 249C2.73229 249 0 251.628 0 254.854V269.422C0 286.263 14.2864 299.977 31.842 299.992L44.8944 300H44.9024ZM214.125 300H226.945C244.626 300 259 286.278 259 269.398V254.854C259 251.628 256.264 249 252.876 249C249.495 249 246.751 251.628 246.751 254.854V269.398C246.751 279.824 237.866 288.306 226.945 288.306H214.125C210.744 288.306 208 290.919 208 294.146C208 297.38 210.744 300 214.125 300Z"
        fill="white" fill-rule="evenodd" />
</svg>
