<svg width="16" height="16" viewBox="0 0 16 16" fill="none" xmlns="http://www.w3.org/2000/svg">
<path d="M8.00065 14.6667C11.6825 14.6667 14.6673 11.6819 14.6673 8.00004C14.6673 4.31814 11.6825 1.33337 8.00065 1.33337C4.31875 1.33337 1.33398 4.31814 1.33398 8.00004C1.33398 11.6819 4.31875 14.6667 8.00065 14.6667Z" fill="#CA024F"/>
<path d="M8.7069 8.00023L10.2402 6.4669C10.4336 6.27357 10.4336 5.95357 10.2402 5.76023C10.0469 5.5669 9.7269 5.5669 9.53357 5.76023L8.00023 7.29357L6.4669 5.76023C6.27357 5.5669 5.95357 5.5669 5.76023 5.76023C5.5669 5.95357 5.5669 6.27357 5.76023 6.4669L7.29357 8.00023L5.76023 9.53357C5.5669 9.7269 5.5669 10.0469 5.76023 10.2402C5.86023 10.3402 5.9869 10.3869 6.11357 10.3869C6.24023 10.3869 6.3669 10.3402 6.4669 10.2402L8.00023 8.7069L9.53357 10.2402C9.63357 10.3402 9.76023 10.3869 9.8869 10.3869C10.0136 10.3869 10.1402 10.3402 10.2402 10.2402C10.4336 10.0469 10.4336 9.7269 10.2402 9.53357L8.7069 8.00023Z" fill="white"/>
</svg>
