<svg width="20" height="20" viewBox="0 0 20 20" fill="none" xmlns="http://www.w3.org/2000/svg">
<path opacity="0.4" d="M3.32408 12.2169L2.05742 10.9503C1.54076 10.4336 1.54076 9.58359 2.05742 9.06692L3.32408 7.80024C3.54075 7.58357 3.71575 7.15857 3.71575 6.85857V5.06693C3.71575 4.3336 4.31575 3.73357 5.04909 3.73357H6.84075C7.14075 3.73357 7.56575 3.55859 7.78242 3.34193L9.04908 2.07524C9.56574 1.55858 10.4158 1.55858 10.9324 2.07524L12.1991 3.34193C12.4158 3.55859 12.8407 3.73357 13.1407 3.73357H14.9324C15.6658 3.73357 16.2657 4.3336 16.2657 5.06693V6.85857C16.2657 7.15857 16.4407 7.58357 16.6574 7.80024L17.9241 9.06692C18.4408 9.58359 18.4408 10.4336 17.9241 10.9503L16.6574 12.2169C16.4407 12.4336 16.2657 12.8586 16.2657 13.1586V14.9503C16.2657 15.6836 15.6658 16.2836 14.9324 16.2836H13.1407C12.8407 16.2836 12.4158 16.4586 12.1991 16.6753L10.9324 17.9419C10.4158 18.4586 9.56574 18.4586 9.04908 17.9419L7.78242 16.6753C7.56575 16.4586 7.14075 16.2836 6.84075 16.2836H5.04909C4.31575 16.2836 3.71575 15.6836 3.71575 14.9503V13.1586C3.71575 12.8502 3.54075 12.4252 3.32408 12.2169Z" fill="#FB9F00"/>
<path d="M12.4999 13.3334C12.0332 13.3334 11.6582 12.9584 11.6582 12.5001C11.6582 12.0417 12.0332 11.6667 12.4915 11.6667C12.9499 11.6667 13.3249 12.0417 13.3249 12.5001C13.3249 12.9584 12.9582 13.3334 12.4999 13.3334Z" fill="#FB9F00"/>
<path d="M7.50769 8.33341C7.04102 8.33341 6.66602 7.95841 6.66602 7.50008C6.66602 7.04175 7.04102 6.66675 7.49935 6.66675C7.95768 6.66675 8.33268 7.04175 8.33268 7.50008C8.33268 7.95841 7.96602 8.33341 7.50769 8.33341Z" fill="#FB9F00"/>
<path d="M7.49987 13.1247C7.34154 13.1247 7.1832 13.0663 7.0582 12.9413C6.81654 12.6997 6.81654 12.2996 7.0582 12.058L12.0582 7.05796C12.2999 6.81629 12.6999 6.81629 12.9415 7.05796C13.1832 7.29963 13.1832 7.69967 12.9415 7.94134L7.94153 12.9413C7.81653 13.0663 7.6582 13.1247 7.49987 13.1247Z" fill="#FB9F00"/>
</svg>
