<svg width="16" height="16" viewBox="0 0 16 16" fill="none" xmlns="http://www.w3.org/2000/svg">
<path opacity="0.4" d="M7.34065 13.3467C10.658 13.3467 13.3473 10.6574 13.3473 7.34004C13.3473 4.02265 10.658 1.33337 7.34065 1.33337C4.02326 1.33337 1.33398 4.02265 1.33398 7.34004C1.33398 10.6574 4.02326 13.3467 7.34065 13.3467Z" fill="#610BEF"/>
<path d="M14.6594 12.6333C14.4394 12.2267 13.9727 12 13.346 12C12.8727 12 12.466 12.1933 12.226 12.5267C11.986 12.86 11.9327 13.3067 12.0794 13.7533C12.366 14.62 12.866 14.8133 13.1394 14.8467C13.1794 14.8533 13.2194 14.8533 13.266 14.8533C13.5594 14.8533 14.0127 14.7267 14.4527 14.0667C14.806 13.5533 14.8727 13.04 14.6594 12.6333Z" fill="#610BEF"/>
</svg>
