<svg fill="none" height="22" viewBox="0 0 22 22" width="22" xmlns="http://www.w3.org/2000/svg">
    <path clip-rule="evenodd"
        d="M20.9917 20.5143L19.8325 16.181C19.766 15.9381 19.7993 15.6762 19.9133 15.4476C20.9252 13.4143 21.2625 10.9857 20.6401 8.45238C19.7945 5.02381 17.1247 2.27143 13.7138 1.3619C12.7827 1.11905 11.8658 1 10.9775 1C4.6022 1 -0.376405 6.99524 1.3433 13.6667C2.1414 16.7524 5.4288 19.9476 8.52143 20.7C9.35753 20.9048 10.1794 21 10.9775 21C12.6924 21 14.2981 20.5571 15.709 19.7952C15.8658 19.7095 16.0416 19.6619 16.2126 19.6619C16.2981 19.6619 16.3836 19.6714 16.4691 19.6952L20.6782 20.8238C20.7019 20.8286 20.7257 20.8333 20.7447 20.8333C20.9062 20.8333 21.0344 20.681 20.9917 20.5143ZM18.5024 16.5381L19.158 18.9905L16.8254 18.3667C16.6259 18.3143 16.4216 18.2857 16.2126 18.2857C15.8136 18.2857 15.4098 18.3905 15.0487 18.5857C13.7803 19.2714 12.4121 19.619 10.9775 19.619C10.2696 19.619 9.5523 19.5286 8.84447 19.3571C6.2269 18.719 3.3433 15.9 2.67822 13.319C1.98463 10.6238 2.53095 7.85714 4.17465 5.72857C5.81835 3.6 8.29815 2.38095 10.9775 2.38095C11.7661 2.38095 12.5689 2.48571 13.3623 2.7C16.2934 3.48095 18.5689 5.81429 19.3052 8.78571C19.823 10.881 19.6093 12.9714 18.6829 14.8333C18.4169 15.3667 18.3504 15.9714 18.5024 16.5381Z"
        fill="black" fill-rule="evenodd" stroke="black" stroke-width="0.7" />
</svg>
