<svg fill="none" height="21" viewBox="0 0 24 21" width="24" xmlns="http://www.w3.org/2000/svg">
    <path
        d="M11.9995 20.1417C11.5891 20.1417 11.1973 20.0116 10.8661 19.7653C8.61788 18.0968 3.24457 13.9466 1.89657 11.4323C0.133455 8.14649 1.19226 3.92655 4.25206 2.02571C5.2409 1.41224 6.36034 1.08691 7.49844 1.08691C9.20092 1.08691 10.8008 1.78404 11.9995 3.02493C13.1983 1.78404 14.7981 1.08691 16.5006 1.08691C17.6387 1.08691 18.7581 1.41224 19.747 2.02571C22.8068 3.92655 23.8656 8.14649 22.1071 11.4323C20.7591 13.9466 15.3858 18.0968 13.1376 19.7653C12.8018 20.0116 12.41 20.1417 11.9995 20.1417ZM7.49844 2.48117C6.62155 2.48117 5.75864 2.73214 4.99369 3.20618C2.54492 4.73057 1.70534 8.12325 3.12796 10.7723C4.378 13.1054 10.0032 17.3904 11.6963 18.6452C11.8736 18.7754 12.1208 18.7754 12.298 18.6452C13.9912 17.3858 19.6164 13.1007 20.8664 10.7723C22.289 8.12325 21.4495 4.72592 19.0007 3.20618C18.2404 2.73214 17.3775 2.48117 16.5006 2.48117C14.966 2.48117 13.5294 3.22477 12.5592 4.51678L11.9995 5.26968L11.4398 4.51678C10.4696 3.22477 9.03767 2.48117 7.49844 2.48117Z"
        fill="black" stroke="black" stroke-width="0.6" />
</svg>
