<svg width="21" height="20" viewBox="0 0 21 20" fill="none" xmlns="http://www.w3.org/2000/svg">
<g clip-path="url(#clip0_1117_17926)">
<path d="M10.4987 5.83203C9.62419 5.83203 8.77184 6.10719 8.0624 6.61852C7.35297 7.12986 6.8224 7.85145 6.54585 8.68108C6.26931 9.51072 6.26081 10.4063 6.52156 11.2411C6.78231 12.0758 7.29909 12.8073 7.9987 13.332V16.6654C7.9987 17.1074 8.17429 17.5313 8.48685 17.8439C8.79941 18.1564 9.22334 18.332 9.66536 18.332H11.332C11.7741 18.332 12.198 18.1564 12.5105 17.8439C12.8231 17.5313 12.9987 17.1074 12.9987 16.6654V13.332C13.6983 12.8073 14.2151 12.0758 14.4758 11.2411C14.7366 10.4063 14.7281 9.51072 14.4515 8.68108C14.175 7.85145 13.6444 7.12986 12.935 6.61852C12.2256 6.10719 11.3732 5.83203 10.4987 5.83203ZM11.7487 12.157C11.6215 12.2305 11.516 12.3362 11.4428 12.4635C11.3697 12.5908 11.3314 12.7352 11.332 12.882V16.6654H9.66536V12.882C9.66595 12.7352 9.62772 12.5908 9.55455 12.4635C9.48138 12.3362 9.37587 12.2305 9.2487 12.157C8.86964 11.9382 8.55468 11.6236 8.33531 11.2449C8.11595 10.8661 7.99988 10.4364 7.9987 9.9987C7.9987 9.33566 8.26209 8.69977 8.73093 8.23093C9.19977 7.76209 9.83566 7.4987 10.4987 7.4987C11.1617 7.4987 11.7976 7.76209 12.2665 8.23093C12.7353 8.69977 12.9987 9.33566 12.9987 9.9987C12.9975 10.4364 12.8814 10.8661 12.6621 11.2449C12.4427 11.6236 12.1278 11.9382 11.7487 12.157Z" fill="#111A27"/>
<path d="M10.5013 5.0013C10.7223 5.0013 10.9343 4.9135 11.0906 4.75722C11.2468 4.60094 11.3346 4.38898 11.3346 4.16797V2.5013C11.3346 2.28029 11.2468 2.06833 11.0906 1.91205C10.9343 1.75577 10.7223 1.66797 10.5013 1.66797C10.2803 1.66797 10.0683 1.75577 9.91205 1.91205C9.75577 2.06833 9.66797 2.28029 9.66797 2.5013V4.16797C9.66797 4.38898 9.75577 4.60094 9.91205 4.75722C10.0683 4.9135 10.2803 5.0013 10.5013 5.0013Z" fill="#111A27"/>
<path d="M18 9.16797H16.3333C16.1123 9.16797 15.9004 9.25577 15.7441 9.41205C15.5878 9.56833 15.5 9.78029 15.5 10.0013C15.5 10.2223 15.5878 10.4343 15.7441 10.5906C15.9004 10.7468 16.1123 10.8346 16.3333 10.8346H18C18.221 10.8346 18.433 10.7468 18.5893 10.5906C18.7455 10.4343 18.8333 10.2223 18.8333 10.0013C18.8333 9.78029 18.7455 9.56833 18.5893 9.41205C18.433 9.25577 18.221 9.16797 18 9.16797Z" fill="black"/>
<path d="M4.66797 9.16797H3.0013C2.78029 9.16797 2.56833 9.25577 2.41205 9.41205C2.25577 9.56833 2.16797 9.78029 2.16797 10.0013C2.16797 10.2223 2.25577 10.4343 2.41205 10.5906C2.56833 10.7468 2.78029 10.8346 3.0013 10.8346H4.66797C4.88898 10.8346 5.10094 10.7468 5.25722 10.5906C5.4135 10.4343 5.5013 10.2223 5.5013 10.0013C5.5013 9.78029 5.4135 9.56833 5.25722 9.41205C5.10094 9.25577 4.88898 9.16797 4.66797 9.16797Z" fill="black"/>
<path d="M6.88385 5.3513L5.68385 4.16797C5.52141 4.01436 5.30459 3.93158 5.08111 3.93783C4.85763 3.94408 4.64579 4.03885 4.49218 4.2013C4.33858 4.36374 4.2558 4.58055 4.26205 4.80404C4.2683 5.02752 4.36307 5.23936 4.52552 5.39297L5.72552 6.5513C5.80605 6.62906 5.90142 6.68979 6.00594 6.72988C6.11045 6.76997 6.22198 6.78859 6.33385 6.78463C6.4461 6.7842 6.55712 6.7611 6.66022 6.71671C6.76332 6.67232 6.8564 6.60755 6.93385 6.5263C7.0826 6.36365 7.16086 6.14869 7.15149 5.92847C7.14212 5.70826 7.04588 5.50073 6.88385 5.3513Z" fill="black"/>
<path d="M16.4923 4.20717C16.3362 4.05196 16.125 3.96484 15.9048 3.96484C15.6847 3.96484 15.4735 4.05196 15.3173 4.20717L14.1173 5.34884C13.9621 5.50497 13.875 5.71618 13.875 5.93634C13.875 6.15649 13.9621 6.3677 14.1173 6.52384C14.1948 6.60509 14.2879 6.66985 14.391 6.71425C14.4941 6.75864 14.6051 6.78174 14.7173 6.78217C14.9319 6.78132 15.1378 6.69774 15.2923 6.54884L16.4923 5.3905C16.5704 5.31304 16.6324 5.22087 16.6747 5.11932C16.717 5.01777 16.7388 4.90885 16.7388 4.79884C16.7388 4.68883 16.717 4.57991 16.6747 4.47836C16.6324 4.37681 16.5704 4.28464 16.4923 4.20717Z" fill="black"/>
</g>
<defs>
<clipPath id="clip0_1117_17926">
<rect width="20" height="20" fill="white" transform="translate(0.5)"/>
</clipPath>
</defs>
</svg>
