<svg width="16" height="16" viewBox="0 0 16 16" fill="none" xmlns="http://www.w3.org/2000/svg">
<g clip-path="url(#clip0_2491_95091)">
<path d="M12 2.66536H11.3333V1.9987C11.3333 1.82189 11.2631 1.65232 11.1381 1.52729C11.013 1.40227 10.8435 1.33203 10.6667 1.33203C10.4899 1.33203 10.3203 1.40227 10.1953 1.52729C10.0702 1.65232 10 1.82189 10 1.9987V2.66536H6V1.9987C6 1.82189 5.92976 1.65232 5.80474 1.52729C5.67971 1.40227 5.51014 1.33203 5.33333 1.33203C5.15652 1.33203 4.98695 1.40227 4.86193 1.52729C4.7369 1.65232 4.66667 1.82189 4.66667 1.9987V2.66536H4C3.46957 2.66536 2.96086 2.87608 2.58579 3.25115C2.21071 3.62622 2 4.13493 2 4.66536V12.6654C2 13.1958 2.21071 13.7045 2.58579 14.0796C2.96086 14.4547 3.46957 14.6654 4 14.6654H12C12.5304 14.6654 13.0391 14.4547 13.4142 14.0796C13.7893 13.7045 14 13.1958 14 12.6654V4.66536C14 4.13493 13.7893 3.62622 13.4142 3.25115C13.0391 2.87608 12.5304 2.66536 12 2.66536ZM4 3.9987H4.66667V4.66536C4.66667 4.84218 4.7369 5.01174 4.86193 5.13677C4.98695 5.26179 5.15652 5.33203 5.33333 5.33203C5.51014 5.33203 5.67971 5.26179 5.80474 5.13677C5.92976 5.01174 6 4.84218 6 4.66536V3.9987H10V4.66536C10 4.84218 10.0702 5.01174 10.1953 5.13677C10.3203 5.26179 10.4899 5.33203 10.6667 5.33203C10.8435 5.33203 11.013 5.26179 11.1381 5.13677C11.2631 5.01174 11.3333 4.84218 11.3333 4.66536V3.9987H12C12.1768 3.9987 12.3464 4.06894 12.4714 4.19396C12.5964 4.31898 12.6667 4.48855 12.6667 4.66536V7.33203H3.33333V4.66536C3.33333 4.48855 3.40357 4.31898 3.5286 4.19396C3.65362 4.06894 3.82319 3.9987 4 3.9987ZM12 13.332H4C3.82319 13.332 3.65362 13.2618 3.5286 13.1368C3.40357 13.0117 3.33333 12.8422 3.33333 12.6654V8.66536H12.6667V12.6654C12.6667 12.8422 12.5964 13.0117 12.4714 13.1368C12.3464 13.2618 12.1768 13.332 12 13.332Z" fill="#9CA4AF"/>
<path d="M5.33329 11.3333C5.70148 11.3333 5.99996 11.0349 5.99996 10.6667C5.99996 10.2985 5.70148 10 5.33329 10C4.9651 10 4.66663 10.2985 4.66663 10.6667C4.66663 11.0349 4.9651 11.3333 5.33329 11.3333Z" fill="#9CA4AF"/>
<path d="M10.6667 10H8.00004C7.82323 10 7.65366 10.0702 7.52864 10.1953C7.40361 10.3203 7.33337 10.4899 7.33337 10.6667C7.33337 10.8435 7.40361 11.013 7.52864 11.1381C7.65366 11.2631 7.82323 11.3333 8.00004 11.3333H10.6667C10.8435 11.3333 11.0131 11.2631 11.1381 11.1381C11.2631 11.013 11.3334 10.8435 11.3334 10.6667C11.3334 10.4899 11.2631 10.3203 11.1381 10.1953C11.0131 10.0702 10.8435 10 10.6667 10Z" fill="#9CA4AF"/>
</g>
<defs>
<clipPath id="clip0_2491_95091">
<rect width="16" height="16" fill="white"/>
</clipPath>
</defs>
</svg>
