<svg width="188" height="188" viewBox="0 0 188 188" fill="none" xmlns="http://www.w3.org/2000/svg">
<g id="Clip path group">
<mask id="mask0_502_26942" style="mask-type:luminance" maskUnits="userSpaceOnUse" x="0" y="0" width="188" height="188">
<g id="__lottie_element_1081">
<path id="Vector" d="M188 0H0V188H188V0Z" fill="white"/>
</g>
</mask>
<g mask="url(#mask0_502_26942)">
<g id="Group">
<g id="Group_2" opacity="0.3">
<g id="Group_3">
<path id="Vector_2" d="M96.4845 27.4434C133.217 27.4434 163.041 57.2671 163.041 93.9994C163.041 130.732 133.217 160.555 96.4845 160.555C59.7522 160.555 29.9285 130.732 29.9285 93.9994C29.9285 57.2671 59.7522 27.4434 96.4845 27.4434Z" fill="#FFF6EB"/>
<path id="Vector_3" d="M96.4845 27.4434C133.217 27.4434 163.041 57.2671 163.041 93.9994C163.041 130.732 133.217 160.555 96.4845 160.555C59.7522 160.555 29.9285 130.732 29.9285 93.9994C29.9285 57.2671 59.7522 27.4434 96.4845 27.4434Z" stroke="#FF9B06" stroke-width="0.34465" stroke-miterlimit="10"/>
</g>
</g>
<g id="Group_4">
<g id="Group_5">
<path id="Vector_4" d="M44.9264 30.5723C48.2541 30.5723 50.956 33.2741 50.956 36.6019C50.956 39.9296 48.2541 42.6315 44.9264 42.6315C41.5986 42.6315 38.8967 39.9296 38.8967 36.6019C38.8967 33.2741 41.5986 30.5723 44.9264 30.5723Z" fill="url(#paint0_linear_502_26942)"/>
</g>
</g>
<g id="Group_6">
<g id="Group_7">
<path id="Vector_5" d="M49.0603 89.3105C50.1065 89.3105 50.9559 90.16 50.9559 91.2062C50.9559 92.2523 50.1065 93.1018 49.0603 93.1018C48.0141 93.1018 47.1647 92.2523 47.1647 91.2062C47.1647 90.16 48.0141 89.3105 49.0603 89.3105Z" fill="url(#paint1_linear_502_26942)"/>
</g>
</g>
<g id="Group_8">
<g id="Group_9">
<path id="Vector_6" d="M141.601 42.6328C143.705 42.6328 145.414 44.3414 145.414 46.4458C145.414 48.5502 143.705 50.2588 141.601 50.2588C139.496 50.2588 137.788 48.5502 137.788 46.4458C137.788 44.3414 139.496 42.6328 141.601 42.6328Z" fill="url(#paint2_linear_502_26942)"/>
</g>
</g>
<g id="Group_10">
<g id="Group_11">
<path id="Vector_7" d="M152.521 139.564C154.803 139.564 156.655 141.417 156.655 143.698C156.655 145.98 154.803 147.832 152.521 147.832C150.24 147.832 148.387 145.98 148.387 143.698C148.387 141.417 150.24 139.564 152.521 139.564Z" fill="url(#paint3_linear_502_26942)"/>
</g>
</g>
<g id="Group_12">
<g id="Group_13">
<path id="Vector_8" d="M27.2882 123.77C28.5733 123.77 29.6167 124.813 29.6167 126.098C29.6167 127.383 28.5733 128.427 27.2882 128.427C26.003 128.427 24.9596 127.383 24.9596 126.098C24.9596 124.813 26.003 123.77 27.2882 123.77Z" fill="url(#paint4_linear_502_26942)"/>
</g>
</g>
<g id="Group_14">
<g id="Group_15">
<path id="Vector_9" d="M117.942 123.136H74.8406C70.8828 123.136 67.6744 119.927 67.6744 115.969V80.047C67.6744 76.0893 70.8828 72.8809 74.8406 72.8809H117.942C121.9 72.8809 125.108 76.0893 125.108 80.047V115.969C125.108 119.927 121.9 123.136 117.942 123.136Z" fill="url(#paint5_linear_502_26942)"/>
</g>
<g id="Group_16">
<path id="Vector_10" d="M111.309 72.8794V65.7834C111.309 57.6187 104.69 51 96.5254 51C88.3608 51 81.7421 57.6187 81.7421 65.7834V72.8794" stroke="url(#paint6_linear_502_26942)" stroke-width="4.48098" stroke-miterlimit="10"/>
</g>
<g id="Group_17" opacity="0.5">
<g id="Group_18">
<path id="Vector_11" d="M113.083 103.218C111.109 103.218 109.493 101.603 109.493 99.6287C109.493 97.6544 111.109 96.0391 113.083 96.0391C115.057 96.0391 116.673 97.6544 116.673 99.6287C116.673 101.603 115.057 103.218 113.083 103.218Z" fill="white"/>
</g>
<g id="Group_19">
<path id="Vector_12" d="M101.955 103.218C99.981 103.218 98.3657 101.603 98.3657 99.6287C98.3657 97.6544 99.981 96.0391 101.955 96.0391C103.93 96.0391 105.545 97.6544 105.545 99.6287C105.545 101.603 103.93 103.218 101.955 103.218Z" fill="white"/>
</g>
<g id="Group_20">
<path id="Vector_13" d="M90.8275 103.218C88.8531 103.218 87.2378 101.603 87.2378 99.6287C87.2378 97.6544 88.8531 96.0391 90.8275 96.0391C92.8018 96.0391 94.4171 97.6544 94.4171 99.6287C94.4171 101.603 92.8018 103.218 90.8275 103.218Z" fill="white"/>
</g>
<g id="Group_21">
<path id="Vector_14" d="M79.6997 103.218C77.7253 103.218 76.11 101.603 76.11 99.6287C76.11 97.6544 77.7253 96.0391 79.6997 96.0391C81.674 96.0391 83.2893 97.6544 83.2893 99.6287C83.2893 101.603 81.674 103.218 79.6997 103.218Z" fill="white"/>
</g>
</g>
</g>
<g id="Group_22">
<g id="Group_23">
<path id="Vector_15" d="M113.083 103.226C111.109 103.226 109.494 101.611 109.494 99.6365C109.494 97.6622 111.109 96.0469 113.083 96.0469C115.058 96.0469 116.673 97.6622 116.673 99.6365C116.673 101.611 115.058 103.226 113.083 103.226Z" fill="white"/>
</g>
<g id="Group_24">
<path id="Vector_16" d="M101.956 103.226C99.9811 103.226 98.3658 101.611 98.3658 99.6365C98.3658 97.6622 99.9811 96.0469 101.956 96.0469C103.93 96.0469 105.545 97.6622 105.545 99.6365C105.545 101.611 103.93 103.226 101.956 103.226Z" fill="white"/>
</g>
<g id="Group_25">
<path id="Vector_17" d="M90.8277 103.226C88.8533 103.226 87.238 101.611 87.238 99.6365C87.238 97.6622 88.8533 96.0469 90.8277 96.0469C92.8021 96.0469 94.4174 97.6622 94.4174 99.6365C94.4174 101.611 92.8021 103.226 90.8277 103.226Z" fill="white"/>
</g>
<g id="Group_26">
<path id="Vector_18" d="M79.6998 103.226C77.7254 103.226 76.1101 101.611 76.1101 99.6365C76.1101 97.6622 77.7254 96.0469 79.6998 96.0469C81.6742 96.0469 83.2895 97.6622 83.2895 99.6365C83.2895 101.611 81.6742 103.226 79.6998 103.226Z" fill="white"/>
</g>
</g>
<g id="Group_27">
<g id="Group_28">
<path id="Vector_19" d="M135.064 116.471C134.502 115.993 133.92 115.499 133.672 115.039C133.445 114.617 133.36 113.887 133.277 113.182C133.123 111.869 132.949 110.381 131.807 109.452C130.665 108.521 129.173 108.651 127.856 108.765C127.149 108.826 126.417 108.89 125.958 108.752C125.458 108.603 124.856 108.133 124.274 107.679C123.252 106.882 122.094 105.977 120.687 106.121C119.281 106.264 118.329 107.384 117.489 108.371C117.011 108.934 116.517 109.515 116.057 109.763C115.635 109.99 114.905 110.075 114.2 110.158C112.888 110.312 111.4 110.487 110.47 111.629C109.539 112.77 109.669 114.262 109.783 115.579C109.844 116.286 109.908 117.018 109.771 117.477C109.621 117.977 109.151 118.579 108.697 119.161C107.9 120.183 106.996 121.341 107.139 122.748C107.283 124.154 108.402 125.106 109.39 125.946C109.952 126.424 110.533 126.918 110.781 127.378C111.008 127.8 111.094 128.53 111.177 129.235C111.331 130.548 111.505 132.035 112.647 132.965C113.788 133.896 115.281 133.766 116.597 133.652C117.304 133.591 118.036 133.527 118.496 133.664C118.996 133.814 119.597 134.284 120.179 134.738C121.201 135.535 122.36 136.44 123.766 136.296C125.173 136.153 126.125 135.033 126.964 134.046C127.442 133.483 127.936 132.902 128.397 132.654C128.818 132.427 129.548 132.341 130.253 132.258C131.566 132.104 133.054 131.93 133.984 130.788C134.914 129.647 134.784 128.155 134.67 126.838C134.609 126.131 134.545 125.399 134.683 124.94C134.832 124.44 135.302 123.838 135.756 123.256C136.554 122.234 137.458 121.076 137.314 119.669C137.171 118.262 136.051 117.311 135.064 116.471Z" fill="url(#paint7_linear_502_26942)"/>
</g>
</g>
</g>
</g>
</g>
<defs>
<linearGradient id="paint0_linear_502_26942" x1="40.4922" y1="32.1529" x2="49.0193" y2="40.68" gradientUnits="userSpaceOnUse">
<stop stop-color="#FFE77B"/>
<stop offset="0.5" stop-color="#FFC141"/>
<stop offset="1" stop-color="#FF9B06"/>
</linearGradient>
<linearGradient id="paint1_linear_502_26942" x1="47.6362" y1="89.8439" x2="50.3171" y2="92.5248" gradientUnits="userSpaceOnUse">
<stop stop-color="#FFE77B"/>
<stop offset="0.5" stop-color="#FFC141"/>
<stop offset="1" stop-color="#FF9B06"/>
</linearGradient>
<linearGradient id="paint2_linear_502_26942" x1="137.744" y1="46.4423" x2="145.37" y2="46.4423" gradientUnits="userSpaceOnUse">
<stop stop-color="#FFE77B"/>
<stop offset="0.5" stop-color="#FFC141"/>
<stop offset="1" stop-color="#FF9B06"/>
</linearGradient>
<linearGradient id="paint3_linear_502_26942" x1="149.4" y1="140.578" x2="155.246" y2="146.424" gradientUnits="userSpaceOnUse">
<stop stop-color="#FFE77B"/>
<stop offset="0.5" stop-color="#FFC141"/>
<stop offset="1" stop-color="#FF9B06"/>
</linearGradient>
<linearGradient id="paint4_linear_502_26942" x1="24.9162" y1="125.959" x2="29.5733" y2="125.959" gradientUnits="userSpaceOnUse">
<stop stop-color="#FFE77B"/>
<stop offset="0.5" stop-color="#FFC141"/>
<stop offset="1" stop-color="#FF9B06"/>
</linearGradient>
<linearGradient id="paint5_linear_502_26942" x1="75.2995" y1="77.0563" x2="115.911" y2="117.668" gradientUnits="userSpaceOnUse">
<stop stop-color="#FFE77B"/>
<stop offset="0.5" stop-color="#FFC141"/>
<stop offset="1" stop-color="#FF9B06"/>
</linearGradient>
<linearGradient id="paint6_linear_502_26942" x1="113.652" y1="74.0467" x2="81.5971" y2="55.54" gradientUnits="userSpaceOnUse">
<stop stop-color="#FF9B06"/>
<stop offset="0.5" stop-color="#FFC141"/>
<stop offset="1" stop-color="#FFE77B"/>
</linearGradient>
<linearGradient id="paint7_linear_502_26942" x1="110.699" y1="111.805" x2="134.026" y2="130.813" gradientUnits="userSpaceOnUse">
<stop stop-color="#5DD99E"/>
<stop offset="0.49" stop-color="#3AD189"/>
<stop offset="0.99" stop-color="#17C974"/>
</linearGradient>
</defs>
</svg>
