<svg width="21" height="20" viewBox="0 0 21 20" fill="none" xmlns="http://www.w3.org/2000/svg">
<g clip-path="url(#clip0_1117_16827)">
<path d="M11.0907 9.41009C10.9349 9.2574 10.7255 9.17188 10.5074 9.17188C10.2893 9.17188 10.0798 9.2574 9.92405 9.41009L7.42405 11.8268C7.33562 11.8997 7.2632 11.9901 7.21132 12.0924C7.15944 12.1946 7.1292 12.3064 7.12251 12.4209C7.11582 12.5353 7.13282 12.6499 7.17244 12.7575C7.21206 12.8651 7.27345 12.9633 7.35277 13.0461C7.43209 13.1289 7.52764 13.1944 7.63343 13.2385C7.73923 13.2827 7.853 13.3046 7.96763 13.3027C8.08226 13.3009 8.19528 13.2755 8.29962 13.228C8.40396 13.1805 8.49739 13.112 8.57405 13.0268L9.66571 11.9684V16.6684C9.66571 16.8894 9.75351 17.1014 9.90979 17.2577C10.0661 17.414 10.278 17.5018 10.499 17.5018C10.7201 17.5018 10.932 17.414 11.0883 17.2577C11.2446 17.1014 11.3324 16.8894 11.3324 16.6684V12.0101L12.4074 13.0934C12.4848 13.1715 12.577 13.2335 12.6786 13.2758C12.7801 13.3181 12.889 13.3399 12.999 13.3399C13.1091 13.3399 13.218 13.3181 13.3195 13.2758C13.4211 13.2335 13.5132 13.1715 13.5907 13.0934C13.6688 13.016 13.7308 12.9238 13.7731 12.8222C13.8154 12.7207 13.8372 12.6118 13.8372 12.5018C13.8372 12.3917 13.8154 12.2828 13.7731 12.1813C13.7308 12.0797 13.6688 11.9876 13.5907 11.9101L11.0907 9.41009Z" fill="#111A27"/>
<path d="M15.2237 5.8334C14.8837 4.85094 14.2458 3.99891 13.399 3.39587C12.5521 2.79282 11.5383 2.46875 10.4987 2.46875C9.45906 2.46875 8.44528 2.79282 7.59841 3.39587C6.75155 3.99891 6.11373 4.85094 5.77369 5.8334C5.02499 5.93368 4.31762 6.23561 3.72728 6.70689C3.13693 7.17817 2.6858 7.80108 2.42216 8.50897C2.15852 9.21687 2.09228 9.98311 2.23053 10.7257C2.36878 11.4684 2.70631 12.1595 3.20703 12.7251C3.26751 12.8316 3.35074 12.9235 3.45078 12.9942C3.55083 13.0649 3.66523 13.1127 3.78585 13.1341C3.90646 13.1556 4.03033 13.1501 4.14861 13.1183C4.2669 13.0864 4.37669 13.0288 4.47019 12.9496C4.56369 12.8705 4.63858 12.7717 4.68954 12.6603C4.7405 12.5489 4.76626 12.4276 4.76501 12.3051C4.76375 12.1826 4.7355 12.0619 4.68227 11.9515C4.62903 11.8412 4.55213 11.744 4.45703 11.6667C4.13462 11.3063 3.92368 10.8601 3.84977 10.3821C3.77585 9.90423 3.84214 9.41513 4.04059 8.97413C4.23904 8.53312 4.56114 8.15914 4.96785 7.89751C5.37457 7.63587 5.84843 7.49781 6.33203 7.50006H6.41536C6.61031 7.504 6.80048 7.43944 6.95274 7.31762C7.10501 7.19581 7.20973 7.02446 7.24869 6.8334C7.4017 6.07987 7.81051 5.40242 8.40585 4.91581C9.00119 4.42921 9.74646 4.16339 10.5154 4.16339C11.2843 4.16339 12.0295 4.42921 12.6249 4.91581C13.2202 5.40242 13.629 6.07987 13.782 6.8334C13.821 7.02446 13.9257 7.19581 14.078 7.31762C14.2302 7.43944 14.4204 7.504 14.6154 7.50006H14.6654C15.149 7.49781 15.6228 7.63587 16.0295 7.89751C16.4362 8.15914 16.7583 8.53312 16.9568 8.97413C17.1552 9.41513 17.2215 9.90423 17.1476 10.3821C17.0737 10.8601 16.8628 11.3063 16.5404 11.6667C16.467 11.7491 16.4106 11.8451 16.3746 11.9494C16.3386 12.0536 16.3237 12.164 16.3307 12.2741C16.3376 12.3841 16.3664 12.4917 16.4153 12.5906C16.4641 12.6895 16.5321 12.7777 16.6154 12.8501C16.7673 12.984 16.9628 13.0581 17.1654 13.0584C17.2837 13.0582 17.4006 13.0329 17.5084 12.984C17.6161 12.9352 17.7123 12.864 17.7904 12.7751C18.305 12.2104 18.6544 11.5152 18.8005 10.7653C18.9467 10.0155 18.8838 9.23991 18.6189 8.52338C18.3539 7.80684 17.8971 7.17693 17.2983 6.70251C16.6995 6.22809 15.9818 5.92743 15.2237 5.8334Z" fill="#111A27"/>
</g>
<defs>
<clipPath id="clip0_1117_16827">
<rect width="20" height="20" fill="white" transform="translate(0.5)"/>
</clipPath>
</defs>
</svg>
