<svg width="20" height="20" viewBox="0 0 20 20" fill="none" xmlns="http://www.w3.org/2000/svg">
<path d="M13.3337 10.7513V14.2513C13.3337 17.168 12.167 18.3346 9.25033 18.3346H5.75033C2.83366 18.3346 1.66699 17.168 1.66699 14.2513V10.7513C1.66699 7.83464 2.83366 6.66797 5.75033 6.66797H9.25033C12.167 6.66797 13.3337 7.83464 13.3337 10.7513Z" stroke="#610BEF" stroke-width="1.5" stroke-linecap="round" stroke-linejoin="round"/>
<path opacity="0.4" d="M18.3337 5.7513V9.2513C18.3337 12.168 17.167 13.3346 14.2503 13.3346H13.3337V10.7513C13.3337 7.83463 12.167 6.66797 9.25033 6.66797H6.66699V5.7513C6.66699 2.83464 7.83366 1.66797 10.7503 1.66797H14.2503C17.167 1.66797 18.3337 2.83464 18.3337 5.7513Z" stroke="#610BEF" stroke-width="1.5" stroke-linecap="round" stroke-linejoin="round"/>
</svg>
