<svg width="20" height="20" viewBox="0 0 20 20" fill="none" xmlns="http://www.w3.org/2000/svg">
<g clip-path="url(#clip0_1117_17225)">
<path d="M15.832 15H4.16536C3.70513 15 3.33203 15.3731 3.33203 15.8333C3.33203 16.2936 3.70513 16.6667 4.16536 16.6667H15.832C16.2923 16.6667 16.6654 16.2936 16.6654 15.8333C16.6654 15.3731 16.2923 15 15.832 15Z" fill="#111A27"/>
<path d="M3.33203 14.168V15.8346C3.33203 16.2949 3.70513 16.668 4.16536 16.668C4.6256 16.668 4.9987 16.2949 4.9987 15.8346V14.168C4.9987 13.7077 4.6256 13.3346 4.16536 13.3346C3.70513 13.3346 3.33203 13.7077 3.33203 14.168Z" fill="#111A27"/>
<path d="M15 14.168V15.8346C15 16.2949 15.3731 16.668 15.8333 16.668C16.2936 16.668 16.6667 16.2949 16.6667 15.8346V14.168C16.6667 13.7077 16.2936 13.3346 15.8333 13.3346C15.3731 13.3346 15 13.7077 15 14.168Z" fill="black"/>
<path d="M9.99988 12.4987C9.82711 12.5 9.65821 12.4476 9.51654 12.3487L6.18321 9.9987C6.00355 9.87126 5.88166 9.67786 5.84419 9.4608C5.80671 9.24375 5.85669 9.02068 5.98321 8.84037C6.04637 8.75024 6.12675 8.67352 6.21972 8.61462C6.31268 8.55573 6.4164 8.51583 6.52486 8.49724C6.63333 8.47864 6.74441 8.48172 6.85169 8.50628C6.95896 8.53085 7.06031 8.57642 7.14988 8.64037L9.99988 10.632L12.8332 8.4987C13.01 8.36609 13.2323 8.30915 13.4511 8.34041C13.6699 8.37167 13.8673 8.48856 13.9999 8.66537C14.1325 8.84218 14.1894 9.06443 14.1582 9.28322C14.1269 9.50201 14.01 9.69943 13.8332 9.83203L10.4999 12.332C10.3556 12.4402 10.1802 12.4987 9.99988 12.4987Z" fill="black"/>
<path d="M10.0013 10.8333C9.78029 10.8333 9.56833 10.7455 9.41205 10.5893C9.25577 10.433 9.16797 10.221 9.16797 10V3.33333C9.16797 3.11232 9.25577 2.90036 9.41205 2.74408C9.56833 2.5878 9.78029 2.5 10.0013 2.5C10.2223 2.5 10.4343 2.5878 10.5906 2.74408C10.7468 2.90036 10.8346 3.11232 10.8346 3.33333V10C10.8346 10.221 10.7468 10.433 10.5906 10.5893C10.4343 10.7455 10.2223 10.8333 10.0013 10.8333Z" fill="black"/>
</g>
<defs>
<clipPath id="clip0_1117_17225">
<rect width="20" height="20" fill="white"/>
</clipPath>
</defs>
</svg>
