<svg width="24" height="24" viewBox="0 0 24 24" fill="none" xmlns="http://www.w3.org/2000/svg">
<g clip-path="url(#clip0_1616_88413)">
<path d="M19 20H5C4.73478 20 4.48043 20.1054 4.29289 20.2929C4.10536 20.4804 4 20.7348 4 21C4 21.2652 4.10536 21.5196 4.29289 21.7071C4.48043 21.8946 4.73478 22 5 22H19C19.2652 22 19.5196 21.8946 19.7071 21.7071C19.8946 21.5196 20 21.2652 20 21C20 20.7348 19.8946 20.4804 19.7071 20.2929C19.5196 20.1054 19.2652 20 19 20Z" fill="#FF9D00"/>
<path d="M5.0003 18.0008H5.0903L9.2603 17.6208C9.71709 17.5753 10.1443 17.3741 10.4703 17.0508L19.4703 8.05083C19.8196 7.6818 20.0084 7.18934 19.9953 6.68137C19.9822 6.1734 19.7682 5.69134 19.4003 5.34083L16.6603 2.60083C16.3027 2.26493 15.8341 2.07219 15.3436 2.05929C14.8532 2.04638 14.3751 2.2142 14.0003 2.53083L5.0003 11.5308C4.67706 11.8568 4.4758 12.284 4.4303 12.7408L4.0003 16.9108C3.98683 17.0573 4.00583 17.2049 4.05596 17.3432C4.10608 17.4815 4.1861 17.607 4.2903 17.7108C4.38374 17.8035 4.49455 17.8768 4.61639 17.9266C4.73823 17.9764 4.86869 18.0016 5.0003 18.0008ZM15.2703 4.00083L18.0003 6.73083L16.0003 8.68083L13.3203 6.00083L15.2703 4.00083ZM6.3703 12.9108L12.0003 7.32083L14.7003 10.0208L9.1003 15.6208L6.1003 15.9008L6.3703 12.9108Z" fill="#FF9D00"/>
</g>
<defs>
<clipPath id="clip0_1616_88413">
<rect width="24" height="24" fill="white"/>
</clipPath>
</defs>
</svg>
