<svg width="20" height="20" viewBox="0 0 20 20" fill="none" xmlns="http://www.w3.org/2000/svg">
<g clip-path="url(#clip0_1117_17077)">
<path d="M12.5013 13.332H7.5013C7.28029 13.332 7.06833 13.4198 6.91205 13.5761C6.75577 13.7324 6.66797 13.9444 6.66797 14.1654C6.66797 14.3864 6.75577 14.5983 6.91205 14.7546C7.06833 14.9109 7.28029 14.9987 7.5013 14.9987H12.5013C12.7223 14.9987 12.9343 14.9109 13.0906 14.7546C13.2468 14.5983 13.3346 14.3864 13.3346 14.1654C13.3346 13.9444 13.2468 13.7324 13.0906 13.5761C12.9343 13.4198 12.7223 13.332 12.5013 13.332Z" fill="#111A27"/>
<path d="M7.5013 11.6667H10.0013C10.2223 11.6667 10.4343 11.5789 10.5906 11.4226C10.7468 11.2663 10.8346 11.0543 10.8346 10.8333C10.8346 10.6123 10.7468 10.4004 10.5906 10.2441C10.4343 10.0878 10.2223 10 10.0013 10H7.5013C7.28029 10 7.06833 10.0878 6.91205 10.2441C6.75577 10.4004 6.66797 10.6123 6.66797 10.8333C6.66797 11.0543 6.75577 11.2663 6.91205 11.4226C7.06833 11.5789 7.28029 11.6667 7.5013 11.6667Z" fill="black"/>
<path d="M16.4487 6.94312L11.9154 1.94312C11.8375 1.85679 11.7423 1.78773 11.6361 1.74036C11.5299 1.693 11.415 1.66839 11.2987 1.66812H5.46536C5.18849 1.66482 4.91367 1.71609 4.65661 1.819C4.39956 1.92191 4.16528 2.07445 3.96718 2.26791C3.76908 2.46137 3.61103 2.69196 3.50205 2.94651C3.39307 3.20105 3.33529 3.47458 3.33203 3.75145V16.2515C3.33529 16.5283 3.39307 16.8018 3.50205 17.0564C3.61103 17.3109 3.76908 17.5415 3.96718 17.735C4.16528 17.9284 4.39956 18.081 4.65661 18.1839C4.91367 18.2868 5.18849 18.3381 5.46536 18.3348H14.532C14.8089 18.3381 15.0837 18.2868 15.3408 18.1839C15.5978 18.081 15.8321 17.9284 16.0302 17.735C16.2283 17.5415 16.3864 17.3109 16.4953 17.0564C16.6043 16.8018 16.6621 16.5283 16.6654 16.2515V7.50145C16.6648 7.29492 16.5876 7.09595 16.4487 6.94312ZM11.6654 4.16812L13.9487 6.66812H12.282C12.1948 6.66285 12.1094 6.64025 12.031 6.60165C11.9525 6.56304 11.8826 6.50919 11.8252 6.44326C11.7678 6.37732 11.7241 6.3006 11.6966 6.2176C11.6692 6.13459 11.6586 6.04695 11.6654 5.95979V4.16812ZM14.532 16.6681H5.46536C5.40734 16.6715 5.34923 16.6634 5.29434 16.6443C5.23946 16.6251 5.18889 16.5954 5.14554 16.5567C5.10219 16.5179 5.0669 16.4711 5.0417 16.4187C5.0165 16.3663 5.00189 16.3095 4.9987 16.2515V3.75145C5.00189 3.69342 5.0165 3.63659 5.0417 3.58422C5.0669 3.53184 5.10219 3.48496 5.14554 3.44625C5.18889 3.40754 5.23946 3.37777 5.29434 3.35864C5.34923 3.33952 5.40734 3.33141 5.46536 3.33479H9.9987V5.95979C9.98525 6.57364 10.2152 7.16789 10.6383 7.61284C11.0614 8.0578 11.6433 8.31733 12.257 8.33479H14.9987V16.2515C14.9955 16.3095 14.9809 16.3663 14.9557 16.4187C14.9305 16.4711 14.8952 16.5179 14.8519 16.5567C14.8085 16.5954 14.7579 16.6251 14.7031 16.6443C14.6482 16.6634 14.5901 16.6715 14.532 16.6681Z" fill="black"/>
</g>
<defs>
<clipPath id="clip0_1117_17077">
<rect width="20" height="20" fill="white"/>
</clipPath>
</defs>
</svg>
