<svg width="16" height="16" viewBox="0 0 16 16" fill="none" xmlns="http://www.w3.org/2000/svg">
<g clip-path="url(#clip0_2491_95082)">
<path d="M12.8466 3.12C12.6945 3.01034 12.5186 2.9381 12.3332 2.90914C12.1479 2.88019 11.9584 2.89533 11.78 2.95333C11.3094 3.08566 10.822 3.14854 10.3333 3.14C9.61103 3.1008 8.90284 2.92431 8.24664 2.62C7.43598 2.24509 6.55913 2.03437 5.66664 2C3.73997 2 2.99997 2.66667 2.86664 2.76C2.80284 2.82253 2.75227 2.89724 2.71791 2.9797C2.68355 3.06215 2.66612 3.15067 2.66664 3.24V13.3333C2.66664 13.5101 2.73688 13.6797 2.8619 13.8047C2.98692 13.9298 3.15649 14 3.3333 14C3.51011 14 3.67968 13.9298 3.80471 13.8047C3.92973 13.6797 3.99997 13.5101 3.99997 13.3333V10.4667C4.53119 10.2633 5.09828 10.1703 5.66664 10.1933C6.38891 10.2325 7.0971 10.409 7.7533 10.7133C8.56396 11.0882 9.44081 11.299 10.3333 11.3333C11.137 11.3637 11.9365 11.2038 12.6666 10.8667C12.8634 10.7742 13.0303 10.6283 13.1482 10.4456C13.266 10.2629 13.3302 10.0507 13.3333 9.83333V4.07333C13.3331 3.88732 13.2889 3.70399 13.2043 3.53831C13.1197 3.37263 12.9972 3.2293 12.8466 3.12ZM12 9.72667C11.4686 9.92933 10.9016 10.0223 10.3333 10C9.61014 9.96168 8.90137 9.78279 8.24664 9.47333C7.43444 9.10383 6.55823 8.89554 5.66664 8.86C5.10497 8.85032 4.54451 8.91534 3.99997 9.05333V3.61333C4.52995 3.40489 5.09764 3.30952 5.66664 3.33333C6.3898 3.37165 7.09857 3.55054 7.7533 3.86C8.5655 4.2295 9.44171 4.4378 10.3333 4.47333C10.8953 4.48163 11.4559 4.41436 12 4.27333V9.72667Z" fill="#9CA4AF"/>
</g>
<defs>
<clipPath id="clip0_2491_95082">
<rect width="16" height="16" fill="white"/>
</clipPath>
</defs>
</svg>
