<svg width="24" height="24" viewBox="0 0 24 24" fill="none" xmlns="http://www.w3.org/2000/svg">
<rect width="24" height="24" rx="12" fill="#F7E4E4"/>
<rect x="3" y="3" width="18" height="18" rx="9" fill="#F7CCCC"/>
<g clip-path="url(#clip0_3762_46593)">
<path d="M12 7C11.0111 7 10.0444 7.29324 9.22215 7.84265C8.39991 8.39206 7.75904 9.17295 7.3806 10.0866C7.00217 11.0002 6.90315 12.0055 7.09608 12.9755C7.289 13.9454 7.76521 14.8363 8.46447 15.5355C9.16373 16.2348 10.0546 16.711 11.0246 16.9039C11.9945 17.0969 12.9998 16.9978 13.9134 16.6194C14.8271 16.241 15.6079 15.6001 16.1573 14.7779C16.7068 13.9556 17 12.9889 17 12C17 11.3434 16.8707 10.6932 16.6194 10.0866C16.3681 9.47995 15.9998 8.92876 15.5355 8.46447C15.0712 8.00017 14.52 7.63188 13.9134 7.3806C13.3068 7.12933 12.6566 7 12 7ZM12.5 14C12.5 14.1326 12.4473 14.2598 12.3536 14.3536C12.2598 14.4473 12.1326 14.5 12 14.5C11.8674 14.5 11.7402 14.4473 11.6464 14.3536C11.5527 14.2598 11.5 14.1326 11.5 14V11.5C11.5 11.3674 11.5527 11.2402 11.6464 11.1464C11.7402 11.0527 11.8674 11 12 11C12.1326 11 12.2598 11.0527 12.3536 11.1464C12.4473 11.2402 12.5 11.3674 12.5 11.5V14ZM12 10.5C11.9011 10.5 11.8044 10.4707 11.7222 10.4157C11.64 10.3608 11.5759 10.2827 11.5381 10.1913C11.5002 10.1 11.4903 9.99945 11.5096 9.90245C11.5289 9.80546 11.5765 9.71637 11.6464 9.64645C11.7164 9.57652 11.8055 9.5289 11.9025 9.50961C11.9994 9.49031 12.1 9.50022 12.1913 9.53806C12.2827 9.5759 12.3608 9.63999 12.4157 9.72221C12.4707 9.80444 12.5 9.90111 12.5 10C12.5 10.1326 12.4473 10.2598 12.3536 10.3536C12.2598 10.4473 12.1326 10.5 12 10.5Z" fill="#E61B00"/>
</g>
<defs>
<clipPath id="clip0_3762_46593">
<rect width="12" height="12" fill="white" transform="translate(6 6)"/>
</clipPath>
</defs>
</svg>
