<svg width="24" height="24" viewBox="0 0 24 24" fill="none" xmlns="http://www.w3.org/2000/svg">
<g clip-path="url(#clip0_970_44012)">
<path d="M14 14H10V21H14V14Z" fill="#FF9D00"/>
<path d="M20.4201 10.1797L12.7101 2.2997C12.6172 2.20598 12.5066 2.13158 12.3847 2.08081C12.2628 2.03004 12.1321 2.00391 12.0001 2.00391C11.8681 2.00391 11.7374 2.03004 11.6155 2.08081C11.4937 2.13158 11.3831 2.20598 11.2901 2.2997L3.58012 10.1897C3.39355 10.3778 3.24621 10.601 3.14664 10.8465C3.04708 11.092 2.99727 11.3548 3.00012 11.6197V19.9997C2.99934 20.5116 3.19489 21.0043 3.54649 21.3764C3.89809 21.7485 4.37898 21.9715 4.89012 21.9997H8.00012V12.9997C8.00012 12.7345 8.10547 12.4801 8.29301 12.2926C8.48055 12.1051 8.7349 11.9997 9.00012 11.9997H15.0001C15.2653 11.9997 15.5197 12.1051 15.7072 12.2926C15.8948 12.4801 16.0001 12.7345 16.0001 12.9997V21.9997H19.1101C19.6213 21.9715 20.1021 21.7485 20.4537 21.3764C20.8053 21.0043 21.0009 20.5116 21.0001 19.9997V11.6197C21.0009 11.0826 20.7929 10.5663 20.4201 10.1797Z" fill="#FF9D00"/>
</g>
<defs>
<clipPath id="clip0_970_44012">
<rect width="24" height="24" fill="white"/>
</clipPath>
</defs>
</svg>
