<svg width="40" height="40" viewBox="0 0 40 40" fill="none" xmlns="http://www.w3.org/2000/svg">
<g clip-path="url(#clip0_1052_64293)">
<path d="M30 5H10C8.67392 5 7.40215 5.52678 6.46447 6.46447C5.52678 7.40215 5 8.67392 5 10V30C5 31.3261 5.52678 32.5979 6.46447 33.5355C7.40215 34.4732 8.67392 35 10 35H30C31.3261 35 32.5979 34.4732 33.5355 33.5355C34.4732 32.5979 35 31.3261 35 30V10C35 8.67392 34.4732 7.40215 33.5355 6.46447C32.5979 5.52678 31.3261 5 30 5ZM10 8.33333H30C30.442 8.33333 30.866 8.50893 31.1785 8.82149C31.4911 9.13405 31.6667 9.55797 31.6667 10V23.9333L26.3333 19.3833C25.507 18.7034 24.4701 18.3317 23.4 18.3317C22.3299 18.3317 21.293 18.7034 20.4667 19.3833L8.33333 29.5V10C8.33333 9.55797 8.50893 9.13405 8.82149 8.82149C9.13405 8.50893 9.55797 8.33333 10 8.33333ZM30 31.6667H10.9333L22.6 21.9333C22.8241 21.7669 23.0959 21.6771 23.375 21.6771C23.6541 21.6771 23.9259 21.7669 24.15 21.9333L31.6667 28.3333V30C31.6667 30.442 31.4911 30.866 31.1785 31.1785C30.866 31.4911 30.442 31.6667 30 31.6667Z" fill="#FF9D00"/>
<path d="M13.332 16.668C14.7127 16.668 15.832 15.5487 15.832 14.168C15.832 12.7873 14.7127 11.668 13.332 11.668C11.9513 11.668 10.832 12.7873 10.832 14.168C10.832 15.5487 11.9513 16.668 13.332 16.668Z" fill="#FF9D00"/>
</g>
<defs>
<clipPath id="clip0_1052_64293">
<rect width="40" height="40" fill="white"/>
</clipPath>
</defs>
</svg>
