<svg width="21" height="20" viewBox="0 0 21 20" fill="none" xmlns="http://www.w3.org/2000/svg">
<path d="M10.5013 1.66797C8.85313 1.66797 7.24196 2.15671 5.87155 3.07239C4.50114 3.98807 3.43304 5.28956 2.80231 6.81227C2.17158 8.33499 2.00655 10.0105 2.3281 11.6271C2.64964 13.2436 3.44331 14.7284 4.60875 15.8939C5.77419 17.0593 7.25905 17.853 8.87555 18.1745C10.4921 18.4961 12.1676 18.331 13.6903 17.7003C15.2131 17.0696 16.5145 16.0015 17.4302 14.6311C18.3459 13.2606 18.8346 11.6495 18.8346 10.0013C18.8346 8.90695 18.6191 7.82332 18.2003 6.81227C17.7815 5.80123 17.1677 4.88257 16.3939 4.10875C15.62 3.33492 14.7014 2.7211 13.6903 2.30231C12.6793 1.88352 11.5957 1.66797 10.5013 1.66797ZM10.5013 16.668C9.18276 16.668 7.89383 16.277 6.7975 15.5444C5.70118 14.8119 4.84669 13.7707 4.34211 12.5525C3.83752 11.3344 3.7055 9.99391 3.96274 8.7007C4.21997 7.40749 4.85491 6.21961 5.78726 5.28726C6.71961 4.35491 7.9075 3.71997 9.2007 3.46273C10.4939 3.2055 11.8344 3.33752 13.0525 3.84211C14.2707 4.34669 15.3119 5.20117 16.0444 6.2975C16.777 7.39383 17.168 8.68276 17.168 10.0013C17.168 11.7694 16.4656 13.4651 15.2154 14.7153C13.9651 15.9656 12.2694 16.668 10.5013 16.668Z" fill="#111A27"/>
<path d="M13.5654 6.93445C13.4514 6.81151 13.3028 6.72586 13.1393 6.68869C12.9757 6.65152 12.8048 6.66457 12.6488 6.72612L9.14045 8.14278C9.03731 8.18469 8.94361 8.24684 8.86489 8.32556C8.78617 8.40428 8.72402 8.49798 8.68211 8.60112L7.22378 12.1511C7.17205 12.2908 7.15868 12.4417 7.18506 12.5883C7.21144 12.7348 7.2766 12.8716 7.37378 12.9844H7.41545C7.48259 13.0805 7.56926 13.1614 7.66977 13.2217C7.77029 13.282 7.8824 13.3204 7.99878 13.3344C8.10713 13.3358 8.21469 13.316 8.31545 13.2761L11.8238 11.8594C11.9269 11.8175 12.0206 11.7554 12.0993 11.6767C12.1781 11.598 12.2402 11.5043 12.2821 11.4011L13.7404 7.85112C13.8061 7.6983 13.8245 7.52935 13.7933 7.36599C13.7621 7.20263 13.6828 7.05234 13.5654 6.93445ZM9.49878 11.0094L10.0904 9.55945L11.4988 8.99278L10.9071 10.4428L9.49878 11.0094Z" fill="black"/>
</svg>
