<svg width="24" height="24" viewBox="0 0 24 24" fill="none" xmlns="http://www.w3.org/2000/svg">
<path d="M19.9995 19.9999C19.8029 20.0021 19.6106 19.9427 19.4495 19.8299L12.5495 15.2699C12.3863 15.1624 12.1951 15.1051 11.9995 15.1051C11.804 15.1051 11.6128 15.1624 11.4495 15.2699L4.54955 19.8299C4.36593 19.9482 4.14862 20.0032 3.93082 19.9864C3.71302 19.9696 3.50672 19.8819 3.34345 19.7368C3.18018 19.5916 3.06892 19.397 3.02669 19.1827C2.98445 18.9684 3.01355 18.7461 3.10955 18.5499L11.1095 2.5499C11.1935 2.3861 11.321 2.24863 11.478 2.15264C11.635 2.05665 11.8155 2.00586 11.9995 2.00586C12.1836 2.00586 12.3641 2.05665 12.5211 2.15264C12.6781 2.24863 12.8056 2.3861 12.8895 2.5499L20.8895 18.5499C20.9892 18.7472 21.0207 18.972 20.9791 19.1891C20.9375 19.4062 20.8251 19.6034 20.6595 19.7499C20.4772 19.9107 20.2426 19.9995 19.9995 19.9999Z" fill="#D1D5DB"/>
</svg>
