<svg width="24" height="24" viewBox="0 0 24 24" fill="none" xmlns="http://www.w3.org/2000/svg">
<g clip-path="url(#clip0_522_72063)">
<path d="M13.6698 22.0003H13.6098C13.3897 21.987 13.1802 21.9014 13.0138 21.7567C12.8474 21.612 12.7335 21.4164 12.6898 21.2003L10.9998 13.0003L2.79983 11.3103C2.5833 11.2673 2.38708 11.1539 2.24178 10.9877C2.09648 10.8215 2.01026 10.6119 1.99656 10.3915C1.98286 10.1712 2.04245 9.95251 2.16605 9.76959C2.28964 9.58668 2.47029 9.4498 2.67983 9.3803L18.6798 4.0503C18.8594 3.97615 19.0567 3.95592 19.2476 3.99209C19.4386 4.02826 19.6148 4.11927 19.7548 4.25399C19.8948 4.3887 19.9926 4.56129 20.0361 4.75066C20.0796 4.94003 20.067 5.13798 19.9998 5.3203L14.6698 21.3203C14.6002 21.5273 14.4648 21.7058 14.2843 21.8286C14.1037 21.9514 13.8879 22.0117 13.6698 22.0003ZM6.86983 10.1003L12.0598 11.1603C12.2538 11.1977 12.4324 11.2918 12.573 11.4306C12.7136 11.5694 12.8099 11.7468 12.8498 11.9403L13.8998 17.1303L17.4198 6.5803L6.86983 10.1003Z" fill="#FF9D00"/>
</g>
<defs>
<clipPath id="clip0_522_72063">
<rect width="24" height="24" fill="white"/>
</clipPath>
</defs>
</svg>
