<svg width="91" height="72" viewBox="0 0 91 72" fill="none" xmlns="http://www.w3.org/2000/svg">
<path fill-rule="evenodd" clip-rule="evenodd" d="M33.9819 48.6004H63.8619C65.2536 48.6004 66.3819 47.4721 66.3819 46.0804C66.3819 44.6886 65.2536 43.5604 63.8619 43.5604C63.8619 43.5604 61.7019 42.4321 61.7019 41.0404C61.7019 39.6486 63.1244 38.5204 64.8793 38.5204H68.5419C69.9336 38.5204 71.0619 37.3921 71.0619 36.0004C71.0619 34.6086 69.9336 33.4804 68.5419 33.4804H60.6219C62.0136 33.4804 63.1419 32.3521 63.1419 30.9604C63.1419 29.5686 62.0136 28.4404 60.6219 28.4404H75.0219C76.4136 28.4404 77.5419 27.3121 77.5419 25.9204C77.5419 24.5286 76.4136 23.4004 75.0219 23.4004H39.7419C38.3501 23.4004 37.2219 24.5286 37.2219 25.9204C37.2219 27.3121 38.3501 28.4404 39.7419 28.4404H25.3419C23.9501 28.4404 22.8219 29.5686 22.8219 30.9604C22.8219 32.3521 23.9501 33.4804 25.3419 33.4804H34.3419C35.7336 33.4804 36.8619 34.6086 36.8619 36.0004C36.8619 37.3921 35.7336 38.5204 34.3419 38.5204H19.9419C18.5501 38.5204 17.4219 39.6486 17.4219 41.0404C17.4219 42.4321 18.5501 43.5604 19.9419 43.5604H33.9819C32.5901 43.5604 31.4619 44.6886 31.4619 46.0804C31.4619 47.4721 32.5901 48.6004 33.9819 48.6004ZM72.5019 36.0004C72.5019 37.3921 73.6301 38.5204 75.0219 38.5204C76.4136 38.5204 77.5419 37.3921 77.5419 36.0004C77.5419 34.6086 76.4136 33.4804 75.0219 33.4804C73.6301 33.4804 72.5019 34.6086 72.5019 36.0004Z" fill="#FEF7EA"/>
<path fill-rule="evenodd" clip-rule="evenodd" d="M26.696 33.4802H26.3548C24.1719 33.4802 22.4023 31.7132 22.4023 29.5335C22.4023 27.3538 24.1719 25.5868 26.3548 25.5868C26.3689 25.5868 26.383 25.5869 26.397 25.587C26.7484 22.5301 29.2499 20.1602 32.2835 20.1602C35.4809 20.1602 38.0872 22.7929 38.2078 26.088C40.1412 26.2128 41.8423 28.0944 41.8423 30.0565C41.8423 31.6675 40.6493 33.4802 39.2359 33.4802H29.4073" fill="white"/>
<path d="M26.696 33.4802H26.3548C24.1719 33.4802 22.4023 31.7132 22.4023 29.5335C22.4023 27.3538 24.1719 25.5868 26.3548 25.5868C26.3689 25.5868 26.383 25.5869 26.397 25.587C26.7484 22.5301 29.2499 20.1602 32.2835 20.1602C35.4809 20.1602 38.0872 22.7929 38.2078 26.088C40.1412 26.2128 41.8423 28.0944 41.8423 30.0565C41.8423 31.6675 40.6493 33.4802 39.2359 33.4802H29.4073" stroke="#FFC466" stroke-width="2.5" stroke-linecap="round"/>
<path d="M47.8717 54.1875L48.5905 55.0738L47.8716 54.1875C47.4813 54.5041 46.9082 54.4443 46.5917 54.0539C42.3761 48.8561 39.2455 44.3759 37.1746 40.6057C35.0886 36.8079 34.1484 33.8555 34.1484 31.6793C34.1484 24.4168 40.0359 18.5293 47.2984 18.5293C54.561 18.5293 60.4484 24.4168 60.4484 31.6793C60.4484 33.8555 59.5083 36.8079 57.4222 40.6057C55.3513 44.3759 52.2208 48.8561 48.0052 54.0539C47.9654 54.103 47.9207 54.1477 47.8717 54.1875Z" fill="white" stroke="#FF9D00" stroke-width="2.5"/>
<path d="M40.8953 51.9355L42.1258 51.7153L41.9055 50.4848L40.675 50.7051L40.8953 51.9355ZM38.3243 52.5371L37.9659 51.3396L36.7684 51.698L37.1268 52.8955L38.3243 52.5371ZM41.2478 53.9042L41.4681 55.1347L42.6985 54.9144L42.4782 53.684L41.2478 53.9042ZM38.8978 54.4531L37.7003 54.8116L38.0587 56.0091L39.2562 55.6506L38.8978 54.4531ZM58.67 53.4931L59.2637 52.3931V52.3931L58.67 53.4931ZM59.5055 58.7072L60.251 59.7106V59.7106L59.5055 58.7072ZM56.5086 60.1173L56.1338 58.9248L56.5086 60.1173ZM38.0898 60.1173L37.7151 61.3098H37.7151L38.0898 60.1173ZM35.093 58.7072L34.3474 59.7106H34.3474L35.093 58.7072ZM34.6497 54.3894L33.7901 53.482H33.7901L34.6497 54.3894ZM36.7198 53.1124L37.8679 52.6181L37.3736 51.47L36.2255 51.9643L36.7198 53.1124ZM37.5108 54.9494L38.0051 56.0975L39.1532 55.6031L38.6589 54.455L37.5108 54.9494ZM36.0252 55.8413L36.8849 56.7488H36.8849L36.0252 55.8413ZM36.2858 57.1019L37.0313 56.0986H37.0313L36.2858 57.1019ZM38.6895 58.2093L38.3147 59.4018L38.6895 58.2093ZM55.9089 58.2093L55.5342 57.0168L55.9089 58.2093ZM58.3126 57.1019L57.5671 56.0986L57.5671 56.0986L58.3126 57.1019ZM57.7202 55.2532L58.3138 54.1532L57.7202 55.2532ZM53.5307 53.9371L52.3019 53.7082L52.073 54.9371L53.3019 55.166L53.5307 53.9371ZM53.897 51.9709L54.1258 50.7421L52.897 50.5132L52.6681 51.7421L53.897 51.9709ZM40.675 50.7051C39.7096 50.878 38.7995 51.0901 37.9659 51.3396L38.6827 53.7346C39.4126 53.5162 40.2292 53.3247 41.1156 53.166L40.675 50.7051ZM42.4782 53.684L42.1258 51.7153L39.6649 52.1558L40.0174 54.1245L42.4782 53.684ZM39.2562 55.6506C39.9031 55.457 40.6448 55.2821 41.4681 55.1347L41.0275 52.6738C40.1252 52.8353 39.29 53.031 38.5394 53.2556L39.2562 55.6506ZM37.1268 52.8955L37.7003 54.8116L40.0953 54.0947L39.5218 52.1787L37.1268 52.8955ZM62.1492 56.3632C62.1492 54.2801 60.4415 53.0287 59.2637 52.3931L58.0764 54.5932C59.1546 55.1751 59.6492 55.7918 59.6492 56.3632H62.1492ZM60.251 59.7106C61.1238 59.0621 62.1492 57.9561 62.1492 56.3632H59.6492C59.6492 56.7911 59.3747 57.2471 58.7599 57.7039L60.251 59.7106ZM56.8834 61.3098C58.1466 60.9128 59.3324 60.3932 60.251 59.7106L58.7599 57.7039C58.1535 58.1545 57.2601 58.5708 56.1338 58.9248L56.8834 61.3098ZM47.2992 62.5732C50.9424 62.5732 54.3305 62.1121 56.8834 61.3098L56.1338 58.9248C53.884 59.6319 50.7604 60.0732 47.2992 60.0732V62.5732ZM37.7151 61.3098C40.2679 62.1121 43.656 62.5732 47.2992 62.5732V60.0732C43.838 60.0732 40.7145 59.6319 38.4646 58.9248L37.7151 61.3098ZM34.3474 59.7106C35.266 60.3932 36.4518 60.9128 37.7151 61.3098L38.4646 58.9248C37.3383 58.5708 36.4449 58.1545 35.8385 57.7039L34.3474 59.7106ZM32.4492 56.3632C32.4492 57.9561 33.4747 59.0621 34.3474 59.7106L35.8385 57.7039C35.2238 57.2471 34.9492 56.7911 34.9492 56.3632H32.4492ZM33.7901 53.482C33.1119 54.1245 32.4492 55.0945 32.4492 56.3632H34.9492C34.9492 56.0214 35.123 55.663 35.5094 55.2969L33.7901 53.482ZM36.2255 51.9643C35.3329 52.3486 34.4673 52.8404 33.7901 53.482L35.5094 55.2969C35.8943 54.9322 36.4693 54.5812 37.2141 54.2605L36.2255 51.9643ZM38.6589 54.455L37.8679 52.6181L35.5717 53.6067L36.3627 55.4437L38.6589 54.455ZM36.8849 56.7488C37.0358 56.6058 37.3781 56.3674 38.0051 56.0975L37.0164 53.8013C36.2421 54.1347 35.609 54.5138 35.1655 54.9339L36.8849 56.7488ZM36.9492 56.3632C36.9492 56.5376 36.9051 56.6714 36.8643 56.7513C36.8291 56.8202 36.8128 56.8171 36.8849 56.7488L35.1655 54.9339C34.7146 55.3611 34.4492 55.8421 34.4492 56.3632H36.9492ZM37.0313 56.0986C36.8494 55.9634 36.822 55.9043 36.8451 55.9403C36.8718 55.9819 36.9492 56.1269 36.9492 56.3632H34.4492C34.4492 57.0166 34.8646 57.6032 35.5403 58.1052L37.0313 56.0986ZM39.0643 57.0168C38.0472 56.6972 37.3878 56.3635 37.0313 56.0986L35.5403 58.1052C36.2092 58.6023 37.1611 59.0392 38.3147 59.4018L39.0643 57.0168ZM47.2992 58.0732C43.9837 58.0732 41.0718 57.6477 39.0643 57.0168L38.3147 59.4018C40.6252 60.128 43.8016 60.5732 47.2992 60.5732V58.0732ZM55.5342 57.0168C53.5267 57.6477 50.6148 58.0732 47.2992 58.0732V60.5732C50.7968 60.5732 53.9733 60.128 56.2837 59.4018L55.5342 57.0168ZM57.5671 56.0986C57.2106 56.3635 56.5513 56.6972 55.5342 57.0168L56.2837 59.4018C57.4374 59.0392 58.3893 58.6023 59.0582 58.1052L57.5671 56.0986ZM57.6492 56.3632C57.6492 56.1269 57.7266 55.9819 57.7534 55.9403C57.7764 55.9043 57.749 55.9634 57.5671 56.0986L59.0582 58.1052C59.7338 57.6032 60.1492 57.0166 60.1492 56.3632H57.6492ZM57.1265 56.3532C57.5587 56.5865 57.7158 56.7456 57.7511 56.7866C57.767 56.8051 57.7463 56.7858 57.7189 56.7243C57.6955 56.6717 57.6492 56.5473 57.6492 56.3632H60.1492C60.1492 55.8994 59.9273 55.4833 59.6475 55.1576C59.353 54.8147 58.9206 54.4806 58.3138 54.1532L57.1265 56.3532ZM53.3019 55.166C55.0321 55.4883 56.3271 55.9218 57.1265 56.3532L58.3138 54.1532C57.1987 53.5514 55.6245 53.0556 53.7596 52.7083L53.3019 55.166ZM52.6681 51.7421L52.3019 53.7082L54.7596 54.166L55.1258 52.1998L52.6681 51.7421ZM59.2637 52.3931C57.8962 51.6551 56.0986 51.1095 54.1258 50.7421L53.6681 53.1998C55.506 53.5421 57.0244 54.0255 58.0764 54.5932L59.2637 52.3931Z" fill="#FF9D00"/>
<circle cx="47.3016" cy="31.6805" r="5.95" fill="#FEF7EA" stroke="#FF9D00" stroke-width="2.5"/>
<path fill-rule="evenodd" clip-rule="evenodd" d="M62.9609 21.2391C62.4683 20.0076 61.4924 19.0318 60.2609 18.5391V18.5391V18.5391C61.4924 18.0464 62.4683 17.0706 62.9609 15.8391V15.8391V15.8391C63.4536 17.0706 64.4294 18.0464 65.6609 18.5391V18.5391V18.5391C64.4294 19.0318 63.4536 20.0076 62.9609 21.2391V21.2391V21.2391Z" stroke="#FFC466" stroke-width="2.5" stroke-linejoin="round"/>
<path fill-rule="evenodd" clip-rule="evenodd" d="M55.4685 48.6009H55.2198C53.6293 48.6009 52.3398 47.3114 52.3398 45.7209C52.3398 44.1303 53.6293 42.8409 55.2198 42.8409C55.2301 42.8409 55.2404 42.8409 55.2506 42.841C55.5066 40.6103 57.3294 38.8809 59.5398 38.8809C61.8697 38.8809 63.7687 40.8021 63.8567 43.2066C65.2654 43.2976 66.505 44.6707 66.505 46.1025C66.505 47.2781 65.6357 48.6009 64.6058 48.6009H57.4441" fill="white"/>
<path d="M55.4685 48.6009H55.2198C53.6293 48.6009 52.3398 47.3114 52.3398 45.7209C52.3398 44.1303 53.6293 42.8409 55.2198 42.8409C55.2301 42.8409 55.2404 42.8409 55.2506 42.841C55.5066 40.6103 57.3294 38.8809 59.5398 38.8809C61.8697 38.8809 63.7687 40.8021 63.8567 43.2066C65.2654 43.2976 66.505 44.6707 66.505 46.1025C66.505 47.2781 65.6357 48.6009 64.6058 48.6009H57.4441" stroke="#FFC466" stroke-width="2.5" stroke-linecap="round"/>
</svg>
