<svg width="20" height="20" viewBox="0 0 20 20" fill="none" xmlns="http://www.w3.org/2000/svg">
<g clip-path="url(#clip0_1172_17839)">
<path d="M16.6667 10.9833H13.2833L15.2 8.925C15.3552 8.76886 15.4423 8.55765 15.4423 8.3375C15.4423 8.11735 15.3552 7.90614 15.2 7.75L11.7083 4.53333C11.6304 4.4578 11.5374 4.39948 11.4355 4.36216C11.3336 4.32483 11.225 4.30933 11.1167 4.31667C11.0072 4.3193 10.8994 4.34347 10.7993 4.3878C10.6992 4.43213 10.6088 4.49574 10.5333 4.575L9.01667 6.24167V3.33333C9.01667 3.11232 8.92887 2.90036 8.77259 2.74408C8.61631 2.5878 8.40435 2.5 8.18333 2.5H3.33333C3.11232 2.5 2.90036 2.5878 2.74408 2.74408C2.5878 2.90036 2.5 3.11232 2.5 3.33333V14.2417C2.5 15.1058 2.84329 15.9346 3.45434 16.5457C4.0654 17.1567 4.89417 17.5 5.75833 17.5H16.6667C16.8877 17.5 17.0996 17.4122 17.2559 17.2559C17.4122 17.0996 17.5 16.8877 17.5 16.6667V11.8167C17.5 11.5957 17.4122 11.3837 17.2559 11.2274C17.0996 11.0711 16.8877 10.9833 16.6667 10.9833ZM11.1833 6.325L13.4083 8.4L9.01667 13.1167V8.65L11.1833 6.325ZM7.35 8.33333V10.8333H4.16667V8.33333H7.35ZM7.35 4.16667V6.66667H4.16667V4.16667H7.35ZM4.16667 14.2417V12.5H7.35V14.2417C7.35 14.6638 7.18231 15.0687 6.88381 15.3671C6.58532 15.6656 6.18047 15.8333 5.75833 15.8333C5.3362 15.8333 4.93135 15.6656 4.63285 15.3671C4.33436 15.0687 4.16667 14.6638 4.16667 14.2417ZM15.8333 15.8333H8.75833L11.725 12.65H15.8333V15.8333Z" fill="#111A27"/>
</g>
<defs>
<clipPath id="clip0_1172_17839">
<rect width="20" height="20" fill="white"/>
</clipPath>
</defs>
</svg>
