<svg width="16" height="16" viewBox="0 0 16 16" fill="none" xmlns="http://www.w3.org/2000/svg">
<g clip-path="url(#clip0_1759_64677)">
<path d="M14.0009 2.6664C13.994 2.60515 13.9806 2.54482 13.9609 2.4864V2.4264C13.929 2.3522 13.8838 2.28443 13.8276 2.2264C13.771 2.17324 13.7056 2.13037 13.6343 2.09973H13.5743C13.5128 2.0528 13.4425 2.01879 13.3676 1.99973H13.3343C13.268 1.98967 13.2006 1.98967 13.1343 1.99973L1.13428 5.99973C1.0009 6.04357 0.884769 6.1284 0.802438 6.24212C0.720107 6.35585 0.675781 6.49266 0.675781 6.63306C0.675781 6.77346 0.720107 6.91028 0.802438 7.024C0.884769 7.13773 1.0009 7.22256 1.13428 7.2664L6.82095 9.15973L8.71428 14.8464C8.75812 14.9798 8.84295 15.0959 8.95668 15.1782C9.0704 15.2606 9.20722 15.3049 9.34762 15.3049C9.48801 15.3049 9.62483 15.2606 9.73855 15.1782C9.85228 15.0959 9.93711 14.9798 9.98095 14.8464L13.9809 2.8464C13.9958 2.78759 14.0025 2.72703 14.0009 2.6664ZM10.8676 4.19306L7.15428 7.9064L3.44095 6.6664L10.8676 4.19306ZM9.33428 12.5597L8.09428 8.8464L11.8076 5.13306L9.33428 12.5597Z" fill="#FF9D00"/>
</g>
<defs>
<clipPath id="clip0_1759_64677">
<rect width="16" height="16" fill="white"/>
</clipPath>
</defs>
</svg>
