<svg width="20" height="20" viewBox="0 0 20 20" fill="none" xmlns="http://www.w3.org/2000/svg">
<g clip-path="url(#clip0_2997_176313)">
<path d="M10.8333 6.66667C11.4964 6.66667 12.1323 6.93006 12.6011 7.3989C13.0699 7.86774 13.3333 8.50363 13.3333 9.16667C13.3333 9.38768 13.4211 9.59964 13.5774 9.75592C13.7337 9.9122 13.9457 10 14.1667 10C14.3877 10 14.5996 9.9122 14.7559 9.75592C14.9122 9.59964 15 9.38768 15 9.16667C15 8.0616 14.561 7.00179 13.7796 6.22039C12.9982 5.43899 11.9384 5 10.8333 5C10.6123 5 10.4004 5.0878 10.2441 5.24408C10.0878 5.40036 10 5.61232 10 5.83333C10 6.05435 10.0878 6.26631 10.2441 6.42259C10.4004 6.57887 10.6123 6.66667 10.8333 6.66667Z" fill="#6B7380"/>
<path d="M10.8333 3.33464C12.3804 3.33464 13.8642 3.94922 14.9581 5.04318C16.0521 6.13714 16.6667 7.62087 16.6667 9.16797C16.6667 9.38898 16.7545 9.60094 16.9107 9.75722C17.067 9.9135 17.279 10.0013 17.5 10.0013C17.721 10.0013 17.933 9.9135 18.0893 9.75722C18.2455 9.60094 18.3333 9.38898 18.3333 9.16797C18.3333 7.17884 17.5432 5.27119 16.1366 3.86467C14.7301 2.45814 12.8225 1.66797 10.8333 1.66797C10.6123 1.66797 10.4004 1.75577 10.2441 1.91205C10.0878 2.06833 10 2.28029 10 2.5013C10 2.72232 10.0878 2.93428 10.2441 3.09056C10.4004 3.24684 10.6123 3.33464 10.8333 3.33464Z" fill="#6B7380"/>
<path d="M18.1263 13.2596C18.0805 13.1259 18.0013 13.0059 17.8964 12.9112C17.7914 12.8164 17.6641 12.7499 17.5263 12.718L12.5263 11.5763C12.3906 11.5455 12.2493 11.5492 12.1154 11.5871C11.9815 11.6249 11.8592 11.6957 11.7596 11.793C11.643 11.9013 11.6346 11.9096 11.093 12.943C9.29563 12.1148 7.85546 10.6687 7.03464 8.86797C8.09297 8.33464 8.1013 8.33464 8.20964 8.20964C8.30689 8.1101 8.37768 7.98779 8.41552 7.85387C8.45337 7.71995 8.45707 7.57869 8.4263 7.44297L7.28464 2.5013C7.25267 2.36355 7.18618 2.23619 7.09142 2.13123C6.99666 2.02626 6.87675 1.94714 6.74297 1.9013C6.54836 1.83179 6.34739 1.78155 6.14297 1.7513C5.93235 1.70246 5.71741 1.67455 5.5013 1.66797C4.48464 1.66797 3.50962 2.07184 2.79073 2.79073C2.07184 3.50962 1.66797 4.48464 1.66797 5.5013C1.67238 8.90356 3.02587 12.1652 5.43164 14.571C7.8374 16.9767 11.099 18.3302 14.5013 18.3346C15.0047 18.3346 15.5032 18.2355 15.9683 18.0428C16.4333 17.8502 16.8559 17.5678 17.2119 17.2119C17.5678 16.8559 17.8502 16.4333 18.0428 15.9683C18.2355 15.5032 18.3346 15.0047 18.3346 14.5013C18.3349 14.2892 18.3182 14.0774 18.2846 13.868C18.2496 13.661 18.1966 13.4574 18.1263 13.2596ZM14.5013 16.668C11.5404 16.6658 8.70139 15.4886 6.60771 13.3949C4.51404 11.3012 3.33684 8.46221 3.33464 5.5013C3.33683 4.92734 3.56581 4.37752 3.97166 3.97166C4.37752 3.56581 4.92734 3.33683 5.5013 3.33464H5.7763L6.66797 7.2013L6.21797 7.43464C5.5013 7.80964 4.93464 8.10964 5.23464 8.75964C5.72315 10.1426 6.51361 11.3994 7.54858 12.4387C8.58355 13.478 9.83704 14.2737 11.218 14.768C11.918 15.0513 12.193 14.5263 12.568 13.8013L12.8096 13.343L16.668 14.2263V14.5013C16.6658 15.0753 16.4368 15.6251 16.0309 16.0309C15.6251 16.4368 15.0753 16.6658 14.5013 16.668Z" fill="#6B7380"/>
</g>
<defs>
<clipPath id="clip0_2997_176313">
<rect width="20" height="20" fill="white"/>
</clipPath>
</defs>
</svg>
