<svg width="16" height="17" viewBox="0 0 16 17" fill="none" xmlns="http://www.w3.org/2000/svg">
<g clip-path="url(#clip0_658_43400)">
<path d="M8.00002 1.83398C6.59472 1.83391 5.24619 2.38849 4.24752 3.37718C3.24884 4.36587 2.68074 5.70876 2.66669 7.11398C2.66669 10.7673 7.36669 14.834 7.56669 15.0073C7.68744 15.1106 7.84112 15.1674 8.00002 15.1674C8.15892 15.1674 8.3126 15.1106 8.43335 15.0073C8.66669 14.834 13.3334 10.7673 13.3334 7.11398C13.3193 5.70876 12.7512 4.36587 11.7525 3.37718C10.7538 2.38849 9.40532 1.83391 8.00002 1.83398ZM8.00002 13.6007C6.88669 12.5407 4.00002 9.60065 4.00002 7.11398C4.00002 6.05312 4.42145 5.0357 5.17159 4.28556C5.92174 3.53541 6.93915 3.11398 8.00002 3.11398C9.06089 3.11398 10.0783 3.53541 10.8284 4.28556C11.5786 5.0357 12 6.05312 12 7.11398C12 9.58065 9.11335 12.5407 8.00002 13.6007Z" fill="#9CA4AF"/>
<path d="M8.00002 4.5C7.53853 4.5 7.08741 4.63685 6.70369 4.89324C6.31998 5.14963 6.02091 5.51404 5.8443 5.94041C5.6677 6.36677 5.62149 6.83592 5.71152 7.28854C5.80155 7.74117 6.02378 8.15693 6.35011 8.48325C6.67643 8.80957 7.09219 9.0318 7.54481 9.12183C7.99743 9.21186 8.46659 9.16566 8.89295 8.98905C9.31931 8.81245 9.68373 8.51338 9.94012 8.12966C10.1965 7.74595 10.3334 7.29482 10.3334 6.83333C10.3334 6.21449 10.0875 5.621 9.64994 5.18342C9.21235 4.74583 8.61886 4.5 8.00002 4.5ZM8.00002 7.83333C7.80224 7.83333 7.6089 7.77468 7.44445 7.6648C7.28 7.55492 7.15183 7.39874 7.07614 7.21602C7.00045 7.03329 6.98065 6.83222 7.01924 6.63824C7.05782 6.44426 7.15306 6.26608 7.29291 6.12623C7.43277 5.98637 7.61095 5.89113 7.80493 5.85255C7.99891 5.81396 8.19998 5.83377 8.3827 5.90945C8.56543 5.98514 8.72161 6.11331 8.83149 6.27776C8.94137 6.44221 9.00002 6.63555 9.00002 6.83333C9.00002 7.09855 8.89466 7.3529 8.70713 7.54044C8.51959 7.72798 8.26524 7.83333 8.00002 7.83333Z" fill="#9CA4AF"/>
</g>
<defs>
<clipPath id="clip0_658_43400">
<rect width="16" height="16" fill="white" transform="translate(0 0.5)"/>
</clipPath>
</defs>
</svg>
