<svg width="24" height="24" viewBox="0 0 24 24" fill="none" xmlns="http://www.w3.org/2000/svg">
<g clip-path="url(#clip0_522_72070)">
<path d="M12.8698 22.0003C12.3869 21.9997 11.9236 21.8094 11.5798 21.4703L5.16981 15.0503C5.00532 14.8868 4.9028 14.6711 4.87981 14.4403L3.99981 5.0903C3.98634 4.94383 4.00534 4.79619 4.05547 4.65791C4.1056 4.51963 4.18561 4.39411 4.28981 4.2903C4.39362 4.1861 4.51914 4.10608 4.65742 4.05596C4.7957 4.00583 4.94334 3.98683 5.08981 4.0003L14.4398 4.8803C14.6706 4.90329 14.8863 5.00581 15.0498 5.1703L21.4698 11.5803C21.8099 11.9215 22.0009 12.3835 22.0009 12.8653C22.0009 13.347 21.8099 13.8091 21.4698 14.1503L14.1498 21.4703C13.8097 21.8088 13.3497 21.9993 12.8698 22.0003ZM6.86981 13.8903L12.8698 19.8903L19.9198 12.8403L13.9198 6.8403L6.10981 6.1103L6.86981 13.8903Z" fill="#FF9D00"/>
<path d="M10.5 12C11.3284 12 12 11.3284 12 10.5C12 9.67157 11.3284 9 10.5 9C9.67157 9 9 9.67157 9 10.5C9 11.3284 9.67157 12 10.5 12Z" fill="#FF9D00"/>
</g>
<defs>
<clipPath id="clip0_522_72070">
<rect width="24" height="24" fill="white"/>
</clipPath>
</defs>
</svg>
