<svg width="20" height="20" viewBox="0 0 20 20" fill="none" xmlns="http://www.w3.org/2000/svg">
<path d="M10.0013 15.8346C13.223 15.8346 15.8346 13.223 15.8346 10.0013C15.8346 6.77964 13.223 4.16797 10.0013 4.16797C6.77964 4.16797 4.16797 6.77964 4.16797 10.0013C4.16797 13.223 6.77964 15.8346 10.0013 15.8346Z" fill="#4B5563"/>
<path d="M9.9987 19.132C9.54036 19.132 9.16536 18.7904 9.16536 18.332V18.2654C9.16536 17.807 9.54036 17.432 9.9987 17.432C10.457 17.432 10.832 17.807 10.832 18.2654C10.832 18.7237 10.457 19.132 9.9987 19.132ZM15.9487 16.782C15.732 16.782 15.5237 16.6987 15.357 16.5404L15.2487 16.432C14.9237 16.107 14.9237 15.582 15.2487 15.257C15.5737 14.932 16.0987 14.932 16.4237 15.257L16.532 15.3654C16.857 15.6904 16.857 16.2154 16.532 16.5404C16.3737 16.6987 16.1654 16.782 15.9487 16.782ZM4.0487 16.782C3.83203 16.782 3.6237 16.6987 3.45703 16.5404C3.13203 16.2154 3.13203 15.6904 3.45703 15.3654L3.56536 15.257C3.89036 14.932 4.41536 14.932 4.74036 15.257C5.06536 15.582 5.06536 16.107 4.74036 16.432L4.63203 16.5404C4.4737 16.6987 4.25703 16.782 4.0487 16.782ZM18.332 10.832H18.2654C17.807 10.832 17.432 10.457 17.432 9.9987C17.432 9.54036 17.807 9.16536 18.2654 9.16536C18.7237 9.16536 19.132 9.54036 19.132 9.9987C19.132 10.457 18.7904 10.832 18.332 10.832ZM1.73203 10.832H1.66536C1.20703 10.832 0.832031 10.457 0.832031 9.9987C0.832031 9.54036 1.20703 9.16536 1.66536 9.16536C2.1237 9.16536 2.53203 9.54036 2.53203 9.9987C2.53203 10.457 2.19036 10.832 1.73203 10.832ZM15.8404 4.99036C15.6237 4.99036 15.4154 4.90703 15.2487 4.7487C14.9237 4.4237 14.9237 3.8987 15.2487 3.5737L15.357 3.46536C15.682 3.14036 16.207 3.14036 16.532 3.46536C16.857 3.79036 16.857 4.31536 16.532 4.64036L16.4237 4.7487C16.2654 4.90703 16.057 4.99036 15.8404 4.99036ZM4.15703 4.99036C3.94036 4.99036 3.73203 4.90703 3.56536 4.7487L3.45703 4.63203C3.13203 4.30703 3.13203 3.78203 3.45703 3.45703C3.78203 3.13203 4.30703 3.13203 4.63203 3.45703L4.74036 3.56536C5.06536 3.89036 5.06536 4.41536 4.74036 4.74036C4.58203 4.90703 4.36536 4.99036 4.15703 4.99036ZM9.9987 2.53203C9.54036 2.53203 9.16536 2.19036 9.16536 1.73203V1.66536C9.16536 1.20703 9.54036 0.832031 9.9987 0.832031C10.457 0.832031 10.832 1.20703 10.832 1.66536C10.832 2.1237 10.457 2.53203 9.9987 2.53203Z" fill="#4B5563"/>
</svg>
