<svg width="21" height="20" viewBox="0 0 21 20" fill="none" xmlns="http://www.w3.org/2000/svg">
<path d="M17.7583 16.075L14.925 13.25C15.8392 12.0854 16.3352 10.6472 16.3333 9.16667C16.3333 7.84813 15.9423 6.5592 15.2098 5.46287C14.4773 4.36654 13.4361 3.51206 12.2179 3.00747C10.9997 2.50289 9.65927 2.37087 8.36607 2.6281C7.07286 2.88534 5.88497 3.52027 4.95262 4.45262C4.02027 5.38497 3.38534 6.57286 3.1281 7.86607C2.87087 9.15927 3.00289 10.4997 3.50747 11.7179C4.01206 12.9361 4.86654 13.9773 5.96287 14.7098C7.0592 15.4423 8.34813 15.8333 9.66667 15.8333C11.1472 15.8352 12.5854 15.3392 13.75 14.425L16.575 17.2583C16.6525 17.3364 16.7446 17.3984 16.8462 17.4407C16.9477 17.4831 17.0567 17.5048 17.1667 17.5048C17.2767 17.5048 17.3856 17.4831 17.4871 17.4407C17.5887 17.3984 17.6809 17.3364 17.7583 17.2583C17.8364 17.1809 17.8984 17.0887 17.9407 16.9871C17.9831 16.8856 18.0048 16.7767 18.0048 16.6667C18.0048 16.5567 17.9831 16.4477 17.9407 16.3462C17.8984 16.2446 17.8364 16.1525 17.7583 16.075ZM4.66667 9.16667C4.66667 8.17776 4.95991 7.21106 5.50932 6.38882C6.05873 5.56657 6.83962 4.92571 7.75325 4.54727C8.66688 4.16883 9.67222 4.06982 10.6421 4.26274C11.612 4.45567 12.5029 4.93187 13.2022 5.63114C13.9015 6.3304 14.3777 7.22131 14.5706 8.19122C14.7635 9.16112 14.6645 10.1665 14.2861 11.0801C13.9076 11.9937 13.2668 12.7746 12.4445 13.324C11.6223 13.8734 10.6556 14.1667 9.66667 14.1667C8.34059 14.1667 7.06882 13.6399 6.13114 12.7022C5.19345 11.7645 4.66667 10.4928 4.66667 9.16667Z" fill="#111A27"/>
<path d="M11.3346 8.33464H10.5013V7.5013C10.5013 7.28029 10.4135 7.06833 10.2572 6.91205C10.1009 6.75577 9.88898 6.66797 9.66797 6.66797C9.44696 6.66797 9.23499 6.75577 9.07871 6.91205C8.92243 7.06833 8.83464 7.28029 8.83464 7.5013V8.33464H8.0013C7.78029 8.33464 7.56833 8.42243 7.41205 8.57871C7.25577 8.73499 7.16797 8.94696 7.16797 9.16797C7.16797 9.38898 7.25577 9.60094 7.41205 9.75722C7.56833 9.9135 7.78029 10.0013 8.0013 10.0013H8.83464V10.8346C8.83464 11.0556 8.92243 11.2676 9.07871 11.4239C9.23499 11.5802 9.44696 11.668 9.66797 11.668C9.88898 11.668 10.1009 11.5802 10.2572 11.4239C10.4135 11.2676 10.5013 11.0556 10.5013 10.8346V10.0013H11.3346C11.5556 10.0013 11.7676 9.9135 11.9239 9.75722C12.0802 9.60094 12.168 9.38898 12.168 9.16797C12.168 8.94696 12.0802 8.73499 11.9239 8.57871C11.7676 8.42243 11.5556 8.33464 11.3346 8.33464Z" fill="#111A27"/>
</svg>
