<svg fill="none" height="70" viewBox="0 0 77 70" width="77" xmlns="http://www.w3.org/2000/svg">
    <path
        d="M4.4671 34.2509C5.71203 33.7383 6.95697 33.1524 8.23852 32.6764C8.53144 32.5666 8.93421 32.53 9.19052 32.6764C11.7536 33.7383 14.2801 34.8368 16.8066 35.9352C17.2093 36.1183 17.3924 36.3746 17.3924 36.814C17.3924 40.0728 17.3924 43.3316 17.3924 46.5904C17.3924 46.9931 17.2093 47.2495 16.8432 47.4325C14.2801 48.6042 11.717 49.8126 9.15391 50.9476C8.8976 51.0575 8.49483 51.0575 8.23852 50.9476C5.71204 49.8126 3.18555 48.6042 0.622459 47.4692C0.183071 47.2861 0 46.9565 0 46.5171C0 43.295 0 40.0728 0 36.8506C0 36.4112 0.183069 36.0817 0.585841 35.9352C1.09846 35.7155 1.61109 35.4958 2.16032 35.2761L4.4671 34.2509ZM15.7447 37.9857C15.5983 38.0589 15.4518 38.0955 15.3419 38.1322C13.5112 38.9743 11.717 39.8165 9.88622 40.622C9.5933 40.7685 9.52007 40.915 9.52007 41.2079C9.52007 43.6245 9.52007 46.0411 9.52007 48.4212C9.52007 48.5676 9.52006 48.7141 9.55667 48.8972C9.77637 48.8239 9.92284 48.7507 10.0693 48.6775C11.8269 47.8719 13.5478 47.0664 15.3053 46.2608C15.6349 46.1144 15.7447 45.9679 15.7447 45.5651C15.7081 43.1485 15.7447 40.7319 15.7447 38.3519C15.7813 38.2786 15.7813 38.1688 15.7447 37.9857ZM14.6096 36.7042C12.6324 35.862 10.765 35.0564 8.8976 34.2875C8.78775 34.2509 8.56805 34.2875 8.4582 34.3608C7.32312 34.8368 6.18804 35.3128 5.05295 35.8254C4.35726 36.1183 3.69817 36.4112 2.96586 36.7408C3.03909 36.814 3.0757 36.8506 3.14894 36.8872C4.9431 37.7294 6.73728 38.5716 8.56806 39.3771C8.71452 39.4503 8.93421 39.4137 9.08067 39.3405C9.8496 39.0109 10.6185 38.6448 11.3508 38.2786C12.3761 37.7294 13.4379 37.2534 14.6096 36.7042Z"
        fill="#FFD694" />
    <path
        d="M76.5999 41.6841C76.5999 43.2585 76.5999 44.8696 76.5999 46.4441C76.5999 46.9201 76.4168 47.2496 75.9774 47.4327C73.4876 48.5678 70.9977 49.7395 68.5078 50.8746C68.1051 51.0577 67.7755 51.0577 67.3728 50.8746C64.8829 49.7029 62.393 48.5678 59.9032 47.4327C59.4638 47.2496 59.2807 46.9567 59.2807 46.4807C59.2807 43.2585 59.2807 40.0364 59.2807 36.8142C59.2807 36.3382 59.5004 36.0453 59.9032 35.8622C62.4297 34.8003 64.9561 33.7019 67.4826 32.64C67.7389 32.5302 68.1417 32.5302 68.398 32.64C70.9245 33.7019 73.451 34.8003 75.9774 35.8622C76.4168 36.0453 76.5999 36.3748 76.5999 36.8508C76.5999 38.4985 76.5999 40.073 76.5999 41.6841ZM74.9522 37.9859C74.8424 38.0225 74.7691 38.0225 74.6959 38.0591C72.7919 38.9379 70.9245 39.8167 69.0205 40.6588C68.7642 40.7687 68.7276 40.9518 68.7276 41.1714C68.7276 43.6247 68.7276 46.0779 68.7276 48.5312C68.7276 48.641 68.7275 48.7509 68.7642 48.8973C68.874 48.8607 68.9839 48.8241 69.0937 48.7875C70.9611 47.9453 72.7919 47.0666 74.6593 46.2244C74.9522 46.0779 74.9888 45.8949 74.9888 45.6386C74.9888 43.2219 74.9888 40.8053 74.9888 38.4253C74.9522 38.3154 74.9522 38.169 74.9522 37.9859ZM73.7439 36.741C73.634 36.6677 73.634 36.6677 73.5608 36.6311C71.7666 35.8622 69.9359 35.0566 68.1417 34.3243C67.9952 34.2511 67.7755 34.2877 67.5925 34.3609C66.4208 34.8369 65.2857 35.3496 64.114 35.8256C63.4549 36.1185 62.7958 36.3748 62.1367 36.6677C62.21 36.741 62.2466 36.7776 62.2832 36.7776C64.0774 37.6197 65.9081 38.4619 67.7023 39.2674C67.8488 39.3407 68.0685 39.304 68.2149 39.2308C69.5697 38.6084 70.9245 37.9859 72.2426 37.3634C72.7553 37.1803 73.2313 36.9607 73.7439 36.741Z"
        fill="#FFD694" />
    <path
        d="M46.9779 59.8821C46.9779 61.4565 46.9779 63.0676 46.9779 64.6421C46.9779 65.1181 46.7948 65.4476 46.3554 65.6307C43.8289 66.7658 41.3391 67.9375 38.8492 69.1092C38.4831 69.2923 38.1535 69.2557 37.7874 69.1092C35.2975 67.9741 32.8442 66.8024 30.3544 65.6673C29.8784 65.4476 29.6587 65.1547 29.6587 64.6055C29.6587 61.4199 29.6587 58.271 29.6587 55.0854C29.6587 54.5728 29.8418 54.2433 30.3178 54.0236C32.8442 52.9617 35.3341 51.8632 37.8606 50.838C38.1169 50.7282 38.4831 50.7282 38.7394 50.838C41.3025 51.8999 43.8656 52.9983 46.392 54.0968C46.7948 54.2799 46.9413 54.5728 46.9413 55.0122C46.9779 56.6233 46.9779 58.271 46.9779 59.8821ZM45.3668 56.1839C45.2569 56.2205 45.1837 56.2205 45.1471 56.2571C43.2431 57.1359 41.3391 58.0147 39.4351 58.8934C39.1788 59.0033 39.1788 59.1864 39.1788 59.4061C39.1788 61.8593 39.1788 64.3126 39.1788 66.7658C39.1788 66.8757 39.1787 66.9855 39.2154 67.132C39.2886 67.0953 39.3618 67.0953 39.3984 67.0953C41.3025 66.2166 43.2431 65.3378 45.1471 64.459C45.4034 64.3492 45.4034 64.1295 45.4034 63.9098C45.4034 61.4565 45.4034 59.0033 45.4034 56.55C45.4034 56.4402 45.3668 56.3303 45.3668 56.1839ZM44.1951 54.9023C42.2179 54.0602 40.3871 53.2546 38.5197 52.4857C38.3732 52.4125 38.1901 52.4857 38.0071 52.5223C37.0184 52.9251 36.0298 53.3645 35.0412 53.7673C34.199 54.1334 33.3935 54.4996 32.4781 54.8657C32.6246 54.939 32.6978 55.0122 32.771 55.0122C34.492 55.8177 36.2495 56.6233 37.9704 57.3922C38.1535 57.4654 38.4464 57.4654 38.6295 57.3922C39.5815 56.9894 40.5701 56.5134 41.5221 56.074C42.4009 55.7445 43.2431 55.3417 44.1951 54.9023Z"
        fill="#FF9D00" />
    <path clip-rule="evenodd"
        d="M55.729 39.5237C55.5791 39.4862 55.4003 39.4295 55.2075 39.3684L55.2075 39.3684C55.0237 39.3101 54.8271 39.2478 54.6305 39.1942C52.9828 38.6815 51.3717 38.1689 49.724 37.6197C49.1748 37.4366 48.9185 37.0338 49.0283 36.5578C49.1748 36.0818 49.6142 35.8621 50.1634 36.0452L55.9853 37.9126C56.4979 38.0591 56.7176 38.4252 56.6078 38.8646C56.6078 39.2674 56.2416 39.5237 55.729 39.5237ZM37.4578 47.5792V46.4442L37.4578 46.4434C37.4944 44.7227 37.531 43.002 37.531 41.2814C37.531 40.6955 37.8605 40.3293 38.3365 40.3293C38.8492 40.3293 39.1421 40.6955 39.1421 41.2814C39.1238 42.3066 39.1055 43.3227 39.0872 44.3388C39.0688 45.3549 39.0505 46.3709 39.0322 47.3962C39.0322 47.9088 38.7393 48.2383 38.2999 48.2749C37.9338 48.3116 37.6042 48.0552 37.4578 47.5792ZM19.9921 38.9012C20.0654 39.2674 20.3949 39.5237 20.8343 39.5237C20.8709 39.5237 20.9075 39.5237 20.9442 39.4505C22.9944 38.828 25.0447 38.169 27.095 37.51L27.0956 37.5098C27.4983 37.4 27.6814 36.9606 27.5716 36.5578C27.4617 36.155 27.0956 35.9354 26.6562 36.0086C26.6013 36.0269 26.5372 36.0452 26.4731 36.0635C26.409 36.0818 26.345 36.1001 26.29 36.1184C25.6126 36.3381 24.9261 36.5578 24.2395 36.7775C23.553 36.9972 22.8665 37.2169 22.1891 37.4366C21.9145 37.5281 21.6398 37.6105 21.3652 37.6929C21.0906 37.7753 20.816 37.8577 20.5414 37.9492C20.102 38.1323 19.9189 38.4984 19.9921 38.9012Z"
        fill="#575757" fill-rule="evenodd" />
    <path
        d="M30.0829 26.1926C29.927 23.6981 29.823 21.2555 29.6671 18.761C32.1616 18.761 34.5522 18.761 36.9948 18.761C36.9948 21.0476 36.9948 23.3343 36.9948 25.6729C34.7081 25.8288 32.4735 25.9847 30.0829 26.1926Z"
        fill="#FF9D00" />
    <path
        d="M46.765 18.761C46.6091 21.2555 46.4531 23.6981 46.2972 26.1926C43.9586 26.0367 41.724 25.8288 39.4373 25.6729C39.4373 23.3862 39.4373 21.0996 39.4373 18.761C41.8279 18.761 44.2185 18.761 46.765 18.761Z"
        fill="#FF9D00" />
    <path
        d="M23.8465 7.5874C25.3536 7.89922 26.7568 8.263 28.16 8.57481C27.9001 11.1733 27.5883 13.7198 27.3284 16.3182C25.1977 16.3182 23.015 16.3182 20.7803 16.3182C21.0402 13.0961 22.0276 10.1859 23.8465 7.5874Z"
        fill="#FF9D00" />
    <path
        d="M52.5337 7.5874C54.3006 10.1859 55.34 13.0961 55.5999 16.3182C53.3652 16.3182 51.1825 16.3182 49.0517 16.3182C48.7919 13.7198 48.4801 11.1733 48.2202 8.57481C49.6234 8.263 51.0265 7.95119 52.5337 7.5874Z"
        fill="#FF9D00" />
    <path
        d="M36.9948 9.40644C36.9948 11.6931 36.9948 13.9797 36.9948 16.3184C34.6042 16.3184 32.2136 16.3184 29.6671 16.3184C29.927 13.8238 30.1868 11.3813 30.4467 8.93872C32.7333 9.09463 34.8121 9.25054 36.9948 9.40644Z"
        fill="#FF9D00" />
    <path
        d="M39.4373 9.40644C41.5681 9.25054 43.5948 9.09463 45.8815 8.93872C46.1413 11.3813 46.4012 13.8238 46.713 16.3184C44.2185 16.3184 41.8799 16.3184 39.4893 16.3184C39.4373 14.0317 39.4373 11.7451 39.4373 9.40644Z"
        fill="#FF9D00" />
    <path
        d="M27.7442 26.6083C26.5489 26.8682 25.3017 27.18 24.0544 27.4398C23.9505 27.4398 23.7426 27.3359 23.6906 27.232C21.9756 24.6855 21.0402 21.8791 20.7803 18.761C22.963 18.761 25.1458 18.761 27.2765 18.761C27.4324 21.3594 27.5883 23.9579 27.7442 26.6083Z"
        fill="#FF9D00" />
    <path
        d="M55.5998 18.761C55.5478 20.424 55.236 21.9831 54.6123 23.4382C54.0926 24.6855 53.417 25.8808 52.7934 27.0761C52.6895 27.232 52.3777 27.4398 52.2218 27.4398C51.0265 27.18 49.7792 26.8682 48.5839 26.6083C48.7398 24.0099 48.8958 21.4114 49.0517 18.761C51.2344 18.761 53.3651 18.761 55.5998 18.761Z"
        fill="#FF9D00" />
    <path
        d="M36.9948 34.9754C35.2798 34.8714 33.6168 34.5077 32.0577 33.884C31.8499 33.8321 31.694 33.5722 31.642 33.3643C31.2262 31.8053 30.8624 30.2462 30.3947 28.5312C32.6294 28.3753 34.7601 28.2194 36.9428 28.0635C36.9948 30.4021 36.9948 32.6887 36.9948 34.9754Z"
        fill="#FF9D00" />
    <path
        d="M39.4373 35.0793C39.4373 32.6367 39.4373 30.4021 39.4373 28.0115C41.5681 28.1674 43.6468 28.3233 45.8295 28.4792C45.7256 28.9989 45.6736 29.4146 45.5697 29.8304C45.3098 30.8698 45.05 31.9092 44.7901 33.0005C44.6862 33.5722 44.3744 33.936 43.8027 34.0399C42.3995 34.4037 40.9964 34.7155 39.4373 35.0793Z"
        fill="#FF9D00" />
    <path
        d="M30.9144 6.65209C31.642 4.67726 32.2656 2.85834 32.9412 1.09139C32.9932 0.987448 33.1491 0.83154 33.253 0.83154C34.5003 0.571694 35.6956 0.311848 36.9948 0.052002C36.9948 2.44259 36.9948 4.67726 36.9948 7.06785C35.072 6.91194 33.0971 6.75603 30.9144 6.65209Z"
        fill="#FF9D00" />
    <path
        d="M39.4373 0C40.7365 0.259846 41.9318 0.519692 43.1791 0.779539C43.335 0.831508 43.4909 0.987418 43.5429 1.14333C43.8547 1.97483 44.2185 2.75437 44.4783 3.58588C44.7901 4.52132 45.05 5.45677 45.3618 6.54813C43.335 6.70403 41.4121 6.80797 39.4373 6.96388C39.4373 4.67723 39.4373 2.44255 39.4373 0Z"
        fill="#FF9D00" />
    <path
        d="M29.8749 2.28652C29.5112 3.58575 29.1474 4.83301 28.7316 6.23618C27.6922 6.0283 26.6529 5.82043 25.6135 5.61255C25.5615 5.56058 25.5615 5.45664 25.5095 5.40467C26.9127 4.31332 28.3159 3.22197 29.719 2.13062C29.771 2.18258 29.823 2.23455 29.8749 2.28652Z"
        fill="#FF9D00" />
    <path
        d="M46.661 2.13062C48.0642 3.22197 49.4674 4.26135 50.8706 5.35271C50.8186 5.45664 50.8186 5.50861 50.7666 5.61255C49.7272 5.82043 48.7398 6.02831 47.6485 6.28815C47.2327 4.93695 46.8689 3.63772 46.5051 2.33849C46.5571 2.23455 46.6091 2.18258 46.661 2.13062Z"
        fill="#FF9D00" />
    <path
        d="M48.2201 28.9468C49.1036 29.1547 49.9351 29.3106 50.7667 29.4665C50.8186 29.5184 50.8186 29.5704 50.8706 29.6224C49.8312 30.5059 48.7398 31.3893 47.7005 32.2728C47.6485 32.2208 47.5965 32.1689 47.5446 32.1689C47.7524 31.1295 47.9603 30.0901 48.2201 28.9468Z"
        fill="#FF9D00" />
    <path
        d="M25.6135 29.4664C26.445 29.3105 27.2765 29.1027 28.16 28.8948C28.4198 30.0381 28.6277 31.1295 28.8356 32.1688C28.7836 32.2208 28.7316 32.2208 28.7316 32.2728C27.6403 31.3893 26.6009 30.5058 25.5095 29.6223C25.5615 29.6223 25.5615 29.5704 25.6135 29.4664Z"
        fill="#FF9D00" />
</svg>
