<svg fill="none" height="73" viewBox="0 0 73 73" width="73" xmlns="http://www.w3.org/2000/svg">
    <path clip-rule="evenodd"
        d="M0.34047 31.2489C1.16871 30.9559 1.99694 30.6585 2.82518 30.3612C4.48135 29.7667 6.13753 29.1722 7.79371 28.6116C8.25237 28.4587 8.48171 28.2294 8.63459 27.7707C9.28436 26.1654 9.93414 24.5601 10.6221 22.9548C10.775 22.6108 10.7368 22.3433 10.5839 22.0375L7.37327 15.2722C7.18216 14.89 7.22038 14.6607 7.52615 14.3931C9.81946 12.138 12.1128 9.84474 14.4061 7.51322C14.7118 7.20744 14.9029 7.16922 15.2852 7.36033L22.0504 10.571C22.3944 10.7238 22.6238 10.7621 22.9678 10.6092C24.5731 9.92119 26.2166 9.23319 27.8601 8.58342C28.2423 8.43053 28.4717 8.2012 28.5864 7.81899C29.0259 6.55766 29.475 5.30589 29.9241 4.05413L29.9241 4.05408C30.3732 2.80234 30.8223 1.5506 31.2619 0.289307H42.0404C42.4799 1.5315 42.929 2.78324 43.3781 4.03498L43.3782 4.03503L43.3782 4.03509C43.8273 5.28683 44.2764 6.53857 44.7159 7.78076C44.8688 8.16298 45.0599 8.39231 45.4421 8.5452C46.71 9.04644 47.9551 9.57043 49.2125 10.0996L49.2137 10.1001C49.5859 10.2568 49.9592 10.4139 50.3345 10.571C50.6785 10.7238 50.9843 10.6856 51.3283 10.5327C53.5834 9.46252 55.8385 8.39232 58.0553 7.32211C58.4375 7.131 58.6286 7.16922 58.8962 7.47499C59.546 8.16298 60.2339 8.88919 60.9602 9.53896C61.4188 9.9594 61.4953 10.227 60.9602 10.6092C60.8984 10.64 60.8617 10.7207 60.8297 10.7909L60.8296 10.7909L60.8296 10.791C60.822 10.8077 60.8146 10.8238 60.8073 10.8385C60.2722 11.794 59.9282 11.8323 59.202 11.1443C59.0009 10.9488 58.8398 10.7827 58.7056 10.6443C58.3846 10.3132 58.2173 10.1408 58.0242 10.104C57.8142 10.0641 57.5737 10.1847 57.0717 10.4364C56.9078 10.5186 56.716 10.6147 56.4882 10.7238C55.5106 11.2013 54.5195 11.6652 53.5229 12.1317C52.844 12.4494 52.1626 12.7684 51.4812 13.0936C51.0989 13.2847 50.7167 13.2847 50.3345 13.1318C48.1177 12.2145 45.9008 11.2972 43.6457 10.3798C43.1488 10.1887 42.9577 9.76829 42.8048 9.30963C42.4608 8.31587 42.1073 7.32211 41.7537 6.32835C41.4002 5.33458 41.0466 4.34082 40.7026 3.34705C40.5115 2.85016 40.244 2.65905 39.7089 2.65905C38.3612 2.68448 37.0135 2.67607 35.6546 2.6676H35.6545H35.6545C34.9708 2.66333 34.2842 2.65905 33.5934 2.65905C33.0965 2.65905 32.8289 2.85016 32.6761 3.30882C32.3034 4.40616 31.9083 5.49227 31.515 6.57325C31.1823 7.48783 30.851 8.39873 30.5357 9.30963C30.3828 9.80651 30.1152 10.1887 29.6183 10.3798C28.1031 10.9751 26.6071 11.6087 25.1166 12.2399L25.1163 12.24C24.5014 12.5004 23.8875 12.7604 23.2735 13.0171C22.7002 13.2465 22.2033 13.2083 21.6682 12.9407C20.7127 12.482 19.7667 12.0329 18.8207 11.5838C17.8747 11.1347 16.9287 10.6856 15.9732 10.227C15.5145 9.99763 15.2087 10.0741 14.8647 10.4181C13.4505 11.8705 11.9981 13.3229 10.5457 14.7371C10.087 15.1576 10.087 15.5398 10.3546 16.0367C10.9008 17.1518 11.4334 18.2805 11.9686 19.4147L11.9687 19.4148L11.9688 19.4149C12.3324 20.1855 12.6972 20.9586 13.0683 21.7317C13.2976 22.1904 13.2977 22.6108 13.1065 23.1077C12.1892 25.2481 11.3101 27.4267 10.431 29.6054C10.2399 30.1023 9.89591 30.3316 9.39903 30.5227C8.52095 30.8267 7.65033 31.1381 6.77728 31.4503L6.77722 31.4504C5.67415 31.8449 4.5672 32.2409 3.43643 32.6249C2.82489 32.816 2.63378 33.1218 2.63378 33.7333C2.672 35.6827 2.672 37.6702 2.63378 39.6195C2.63378 40.231 2.86311 40.4986 3.39821 40.6897C5.42396 41.3777 7.4115 42.1039 9.39903 42.8301C9.85769 42.983 10.1635 43.2505 10.3546 43.7092C10.847 44.985 11.3787 46.2477 11.9114 47.5126C12.2883 48.4078 12.6658 49.3041 13.0301 50.2069C13.2212 50.6656 13.2212 51.086 12.9919 51.5829C12.8209 51.947 12.65 52.3126 12.4788 52.6788L12.4785 52.6796C11.7692 54.1965 11.0552 55.7238 10.3163 57.2015C10.0106 57.813 9.97236 58.2717 10.5457 58.6539C10.8515 58.9979 11.1954 59.3419 11.5394 59.6477C12.1128 60.2592 12.1128 60.4886 11.463 60.9855C11.4057 61.0237 11.3388 61.0523 11.2719 61.081L11.2719 61.081L11.2718 61.081C11.205 61.1097 11.1381 61.1383 11.0808 61.1766C10.6221 61.7881 10.2781 61.7499 9.74301 61.1766C9.05502 60.3357 8.25236 59.6095 7.44971 58.8833C7.18215 58.6157 7.14394 58.4246 7.33505 58.1188C7.88927 56.9913 8.42438 55.8542 8.95949 54.7171C9.49459 53.58 10.0297 52.4429 10.5839 51.3153C10.7368 51.0096 10.775 50.742 10.6221 50.398C9.93414 48.7927 9.24613 47.1492 8.59636 45.5056C8.44347 45.1234 8.25236 44.8941 7.83192 44.7794C5.30929 43.9003 2.82488 43.0212 0.302246 42.1039C0.340468 38.4346 0.34047 34.8418 0.34047 31.2489ZM72.9618 42.0275C71.7005 42.467 70.4488 42.9161 69.1971 43.3652C67.9453 43.8143 66.6935 44.2634 65.4321 44.703C65.0881 44.8177 64.8588 45.0087 64.7059 45.3527C64.0561 46.9963 63.3681 48.678 62.6419 50.3216C62.489 50.6656 62.5272 50.9331 62.6801 51.2389C63.0795 52.0662 63.4736 52.8989 63.8683 53.7329L63.8686 53.7334L63.8689 53.734C64.5316 55.1344 65.1962 56.5386 65.8908 57.9277C66.1201 58.3864 66.0436 58.6157 65.6996 58.9215C65.3557 59.2463 65.0214 59.5806 64.687 59.915L64.6868 59.9152C64.3524 60.2497 64.0179 60.5841 63.6739 60.909C62.9477 61.6352 62.9477 61.6352 62.1832 60.9472C61.2277 60.5268 61.113 60.1446 61.8393 59.4184L62.6801 58.5775C63.2534 58.157 63.2535 57.7366 62.9477 57.1251C61.9923 55.2526 61.1134 53.3418 60.2345 51.4311L60.2344 51.431L60.2339 51.43C60.0428 51.0096 60.0046 50.6273 60.1957 50.2069C60.6353 49.0985 61.0939 47.9996 61.5526 46.9008L61.5528 46.9002C62.0114 45.8015 62.47 44.7028 62.9095 43.5946C63.1006 43.0977 63.4828 42.9066 63.9797 42.7537C64.9734 42.4097 65.9672 42.0561 66.9609 41.7026C67.9547 41.349 68.9485 40.9955 69.9423 40.6515C70.4774 40.4604 70.6685 40.1928 70.6685 39.6195C70.6303 37.632 70.6303 35.6444 70.6685 33.6569C70.6685 33.0453 70.4392 32.7778 69.8658 32.5867C69.2857 32.3819 68.7056 32.1738 68.1244 31.9653L68.1236 31.965C66.7523 31.473 65.3754 30.979 63.9797 30.5227C63.4446 30.3316 63.0623 30.0641 62.8712 29.529C62.0303 27.4268 61.1895 25.3628 60.3104 23.2988C60.0428 22.649 60.081 22.1139 60.3868 21.4642C61.304 19.5915 62.183 17.7189 63.062 15.8463L63.0622 15.8458L63.0623 15.8456C63.2534 15.4251 63.2152 15.1576 62.9095 14.8518C62.5655 14.546 62.2597 14.2402 61.9539 13.8962C61.113 13.0554 61.2277 12.6732 62.2979 12.2145C62.9859 11.6029 62.9859 11.6029 63.6739 12.2527C63.8561 12.4349 64.0358 12.617 64.215 12.7986C64.7501 13.3408 65.2799 13.8777 65.8525 14.3931C66.1201 14.6607 66.1201 14.8518 65.9672 15.1576C65.413 16.2851 64.8779 17.4223 64.3427 18.5594L64.3427 18.5594C63.8076 19.6965 63.2725 20.8335 62.7184 21.961C62.5655 22.305 62.5655 22.5344 62.6801 22.8784C63.3681 24.4837 64.0561 26.1272 64.7059 27.7707C64.8588 28.153 65.0881 28.3441 65.4703 28.497C66.7316 28.9365 67.9834 29.3856 69.2351 29.8347L69.2359 29.835C70.4874 30.284 71.7389 30.733 73 31.1725C72.9618 34.8403 72.9618 38.4317 72.9618 42.0232V42.0275ZM60.6544 64.005C61.3806 63.2406 61.3806 63.2406 60.7308 62.4762C60.234 61.5206 59.89 61.4442 59.1255 62.0939C59.0491 62.1704 58.9726 62.2426 58.8962 62.3148C58.7433 62.4592 58.5904 62.6036 58.4375 62.7819C58.0935 63.1641 57.7495 63.1641 57.2909 62.9348C56.1034 62.3289 54.9006 61.7692 53.6921 61.2068C52.9946 60.8822 52.2952 60.5568 51.5958 60.2211C51.0607 59.9535 50.5639 59.9153 50.0287 60.1446C49.5716 60.3344 49.1126 60.526 48.652 60.7184C47.0715 61.3783 45.4733 62.0457 43.8751 62.6673C43.2253 62.9348 42.8813 63.3553 42.652 64.005C42.1957 65.4007 41.7017 66.7775 41.2098 68.1486C41.0011 68.7301 40.7929 69.3107 40.588 69.8912C40.3969 70.3498 40.1293 70.5409 39.6324 70.5409C37.6067 70.5027 35.5809 70.5027 33.5552 70.5409C33.0201 70.5409 32.7907 70.3116 32.5996 69.8147C32.3306 69.0525 32.0557 68.2844 31.7796 67.5128C31.3495 66.311 30.9164 65.1007 30.4974 63.8903C30.3446 63.4317 30.1534 63.0112 29.6566 62.8201C28.0611 62.1982 26.4847 61.5379 24.914 60.88C24.2646 60.6081 23.6162 60.3365 22.9677 60.0682C22.5855 59.9153 22.2033 59.9153 21.8211 60.1064C20.773 60.5849 19.7385 61.0769 18.7094 61.5664C18.0122 61.898 17.3176 62.2284 16.6229 62.5526C15.8171 62.9363 15.5313 63.1467 15.287 63.1063C15.0447 63.0663 14.8431 62.7795 14.215 62.1704L14.0621 62.0175C13.4505 61.4824 13.0683 61.5588 12.6861 62.3615C12.6695 62.3864 12.6529 62.413 12.6359 62.4403C12.5747 62.5389 12.5083 62.6456 12.4185 62.7055C11.9216 63.0495 11.9599 63.3553 12.4185 63.7375C13.1065 64.349 13.7563 64.9988 14.3679 65.6868C14.6354 65.9925 14.8647 66.0308 15.247 65.8397L22.0122 62.629C22.318 62.4761 22.5855 62.4379 22.9295 62.5908C23.3049 62.7479 23.6782 62.9051 24.0505 63.0617C25.3083 63.5911 26.5537 64.1152 27.8219 64.6166C28.2041 64.7695 28.3952 64.9988 28.5481 65.381C29.0834 66.9171 29.6329 68.4532 30.1793 69.9807C30.5302 70.9617 30.8799 71.9391 31.2236 72.9107H42.0022C42.9195 70.4263 43.7986 67.9419 44.6777 65.4575C44.8306 65.0752 45.0217 64.8077 45.4421 64.6548C47.0857 64.005 48.7292 63.317 50.3345 62.629C50.6785 62.4761 50.9461 62.5144 51.2518 62.6673C52.2456 63.145 53.2489 63.6228 54.2523 64.1006C55.2556 64.5784 56.2589 65.0561 57.2527 65.5339C58.514 66.1454 58.514 66.1454 59.4695 65.1899L60.6544 64.005Z"
        fill="#FF9D00" fill-rule="evenodd" />
    <path
        d="M70.8214 33.4276C70.8214 32.9308 70.7067 32.7014 70.2098 32.5485C68.0694 31.8223 65.9672 31.0579 63.8268 30.2935C63.4828 30.1788 63.2535 29.9877 63.1006 29.6055C62.1833 27.3886 61.2659 25.1717 60.3486 22.9549C60.1957 22.6109 60.1957 22.3051 60.3868 21.9611C61.2277 20.2411 62.0304 18.5212 62.8712 16.8012C63.5975 15.2723 63.5975 15.2723 62.3744 14.0492C61.4953 13.1701 61.4953 13.1701 62.2979 12.291C61.6481 11.9852 61.2277 11.4119 60.7691 10.8768C59.9282 11.603 59.9282 11.603 59.0873 10.8004C58.9344 10.6475 58.7433 10.4946 58.5904 10.3035C58.2464 9.84482 57.9406 9.80659 57.4055 10.0741C55.418 11.0679 53.3923 11.9852 51.4047 12.9408C51.0225 13.1319 50.6785 13.1319 50.2581 12.979C48.0794 12.0617 45.9008 11.1444 43.7222 10.2653C43.3017 10.1124 43.1106 9.84482 42.9577 9.42438C42.2315 7.32219 41.4671 5.21999 40.7409 3.07957C40.588 2.62091 40.3969 2.46802 39.9 2.46802C37.7213 2.50624 35.5045 2.50624 33.2876 2.46802C32.829 2.46802 32.6378 2.6209 32.485 3.04134C31.7587 5.18176 30.9561 7.28396 30.2299 9.42438C30.077 9.84482 29.8477 10.0741 29.4654 10.2653C27.2868 11.1444 25.1082 12.0617 22.9295 12.979C22.5473 13.1319 22.2415 13.1319 21.8593 12.9408C19.7953 11.947 17.7314 10.9915 15.6674 9.99771C15.2852 9.8066 15.0558 9.84482 14.7501 10.1506C13.183 11.7559 11.6159 13.323 10.0488 14.8519C9.78125 15.1194 9.66658 15.3488 9.85769 15.731C10.8515 17.7949 11.807 19.8589 12.8007 21.9229C12.9919 22.3051 12.9919 22.6109 12.839 22.9931C11.9217 25.1717 11.0043 27.3886 10.087 29.6055C9.93413 29.9877 9.7048 30.1788 9.32258 30.3317C7.14394 31.0579 5.00352 31.8605 2.86311 32.625C2.51911 32.7396 2.328 32.8925 2.328 33.313C2.36622 35.5681 2.36622 37.8614 2.328 40.1164C2.328 40.5369 2.51911 40.6898 2.86311 40.8044C5.00352 41.5689 7.18216 42.3333 9.32258 43.0977C9.7048 43.2506 9.93413 43.4417 10.087 43.8239C10.9661 46.0026 11.8834 48.1812 12.8007 50.3599C12.9536 50.7421 12.9919 51.0861 12.8007 51.5065C11.8452 53.4176 11.0043 55.4052 10.0106 57.3162C9.62835 58.0807 9.74303 58.5011 10.431 58.9215C10.5839 59.1126 10.775 59.3038 10.9279 59.4949C11.8452 60.4122 11.8452 60.4122 11.0043 61.2913C11.7306 61.4824 11.9599 62.2851 12.6096 62.5908C13.4123 61.9411 13.4123 61.9411 14.1385 62.7055C14.3296 62.8966 14.559 63.0877 14.7501 63.317C15.0176 63.661 15.2852 63.661 15.6674 63.4699C17.7314 62.4762 19.7953 61.5206 21.8593 60.5269C22.2415 60.3358 22.5473 60.3358 22.9295 60.5269C25.1082 61.4442 27.2868 62.3233 29.4654 63.2406C29.8859 63.3935 30.077 63.661 30.2299 64.0815C30.9561 66.2219 31.7587 68.3241 32.485 70.4645C32.6378 70.8849 32.829 71.0378 33.2876 71.0378C35.4663 70.9996 37.6831 70.9996 39.8618 71.0378C40.3204 71.0378 40.5115 70.9232 40.6644 70.5027C41.3906 68.3241 42.1933 66.1837 42.9577 64.0433C43.0724 63.6993 43.2635 63.4699 43.6457 63.317C45.8626 62.4379 48.0412 61.5206 50.2199 60.6033C50.6021 60.4504 50.9461 60.4122 51.3665 60.6033C53.1247 61.4824 54.9211 62.3233 56.7176 63.1642C58.0171 63.7757 58.0171 63.7757 59.0491 62.7437C59.8899 61.9028 59.89 61.9029 60.7308 62.6673C61.1513 62.1322 61.6482 61.6353 62.1833 61.2148C62.1068 61.1002 62.0304 60.9855 61.9157 60.9091C61.457 60.5651 61.4188 60.2975 61.8775 59.9153C62.1833 59.6478 62.4508 59.3038 62.7184 58.998C63.4064 58.6158 63.521 58.1571 63.1388 57.3927C62.145 55.4816 61.3042 53.5323 60.3486 51.6212C60.1575 51.239 60.1575 50.895 60.3104 50.4745C61.2277 48.2959 62.145 46.1173 63.0241 43.9386C63.177 43.5564 63.4064 43.3271 63.7886 43.2124C65.929 42.4862 68.0312 41.6835 70.1716 40.9573C70.6303 40.8044 70.7831 40.6133 70.7831 40.1164C70.7831 37.7849 70.8214 35.6063 70.8214 33.4276ZM18.0754 31.5166C18.1136 31.4783 18.1518 31.4401 18.19 31.4401C19.0309 31.6312 19.222 31.0961 19.4513 30.4846C22.0886 23.6811 27.0575 19.6678 34.2432 18.5594C39.3649 17.7567 44.0279 19.2474 48.1177 22.4198C50.8314 24.522 52.7425 27.2357 53.8891 30.4846C54.042 30.9432 54.1949 31.4401 54.8065 31.5166C55.4562 31.8223 55.7238 32.969 55.2651 33.5041C54.9211 33.7716 54.8065 34.1156 54.8829 34.5361C55.2269 37.3263 54.9211 40.04 53.9656 42.6773C52.4367 46.9199 49.7612 50.1688 45.8626 52.4621C42.9959 54.1438 39.8618 55.0612 36.5365 54.9465C29.6948 54.7172 24.4202 51.6594 20.8656 45.7733C19.1074 42.9066 18.3811 39.7342 18.3429 36.3707C18.3429 35.7974 18.4576 35.2623 18.4958 34.689C18.534 34.2303 18.534 33.8481 17.9607 33.7334C17.846 33.7334 17.8078 33.6188 17.8078 33.5041C17.7314 32.8543 18.0754 32.2045 18.0754 31.5166Z"
        fill="#FFD694" />
    <path
        d="M17.7696 33.5422C18.6869 33.8097 18.6869 33.8097 18.6105 34.9946C17.9989 42.6007 21.7829 49.366 28.5481 52.8441C39.2884 58.3863 52.7807 51.4299 54.5389 39.4665C54.8065 37.7465 54.8829 36.0266 54.6154 34.3066C54.5007 33.695 54.6918 33.5039 55.2269 33.4657C56.6793 33.2746 56.6793 33.2746 56.794 34.8035C57.5584 45.1998 51.099 53.9908 40.9702 56.3988C30.3828 58.8832 19.2985 51.8886 16.9287 41.2629C16.4318 39.1225 16.2407 36.9439 16.4701 34.727C16.6229 33.5039 16.5847 33.4657 17.7696 33.5422Z"
        fill="#575757" />
    <path
        d="M54.7683 31.5164C54.1949 31.7458 54.0038 31.4782 53.8127 30.9431C51.3283 23.4134 44.1426 18.3682 36.2307 18.521C28.6246 18.6739 21.8975 23.681 19.4896 30.9049C19.2602 31.5547 19.0691 31.8987 18.3811 31.5164C18.3047 31.4782 18.19 31.4782 18.1136 31.4782C17.158 31.096 17.158 31.096 17.5403 30.064C20.598 21.9992 26.4459 17.298 35.0458 16.4571C44.2955 15.5398 52.8189 21.1966 55.8385 29.9494C56.2207 31.0196 56.2207 31.0196 55.1122 31.3253C54.9594 31.44 54.8447 31.4782 54.7683 31.5164Z"
        fill="#575757" />
    <path
        d="M36.6511 20.6616C27.8601 20.6616 20.6744 27.8473 20.6744 36.6001C20.6362 45.3911 27.8219 52.615 36.6511 52.6532C45.4421 52.6915 52.666 45.4675 52.666 36.6765C52.6278 27.8855 45.4421 20.6616 36.6511 20.6616ZM38.6004 50.3599C37.7213 50.5128 37.7213 50.5128 37.7213 49.5955C37.7213 48.3342 37.7596 47.0729 37.7213 45.8498C37.7213 45.2764 37.7978 45.0471 38.4858 45.0853C39.8235 45.1618 41.1231 44.9706 42.3844 44.5884C44.7159 43.8622 46.283 42.4098 47.0857 40.0783C47.7737 37.9761 47.8119 35.8739 47.4679 33.6952C47.4297 33.4277 47.3914 33.2748 47.0857 33.2366C44.6777 32.8926 42.2697 32.9308 39.9764 33.8863C38.5622 34.4979 37.7213 35.2241 36.6511 36.8676C34.7783 33.6952 31.797 33.0455 28.5481 33.0072C27.7837 33.0072 27.0193 33.0455 26.293 33.1984C26.0637 33.2366 25.9108 33.2748 25.8726 33.5806C25.4521 36.1414 25.5286 38.6641 26.6753 41.072C27.7837 43.3653 29.733 44.4355 32.141 44.856C33.1347 45.0471 34.0903 45.1235 35.084 45.0471C35.4663 45.0089 35.5809 45.1235 35.5809 45.5058C35.5809 46.9964 35.5809 48.4871 35.5809 49.9777C35.5809 50.7039 35.0458 50.3981 34.7783 50.3599C31.8734 49.9395 29.2743 48.7928 27.1721 46.7289C23.1206 42.7538 21.7447 37.9761 23.4264 32.5486C25.1082 27.0829 29.0068 23.834 34.6636 22.9167C42.3844 21.6554 49.7612 27.5415 50.411 35.3388C51.0225 42.8302 45.9772 49.2133 38.6004 50.3599Z"
        fill="#575757" />
    <path
        d="M37.9507 39.7723C38.3711 37.0968 40.0146 35.6061 42.9577 35.2621C43.6075 35.1857 44.2955 35.2239 44.9453 35.1857C45.3657 35.1475 45.5568 35.3386 45.5186 35.759C45.4804 36.1412 45.5568 36.5617 45.4421 36.9439C44.8688 38.2817 43.7222 38.8932 42.4608 39.3901C41.1995 39.887 39.8618 40.0399 38.524 40.0016C38.2947 39.9634 38.1036 39.9252 37.9507 39.7723Z"
        fill="#FFD694" />
    <path
        d="M27.8219 36.944C27.5162 35.2622 27.6308 35.1093 29.3126 35.1858C30.0388 35.224 30.7268 35.3005 31.4148 35.4533C33.6698 36.0267 34.9694 37.4791 35.3134 39.7342C34.893 40.0782 34.3961 39.9253 33.9374 39.9253C32.2174 39.8488 30.5739 39.5049 29.1215 38.4729C28.5864 38.0906 28.0895 37.632 27.8219 36.944Z"
        fill="#FFD694" />
    <path
        d="M27.8219 36.9441C28.7775 38.2054 30.0006 39.0463 31.5677 39.4285C32.7908 39.7343 34.0521 39.8489 35.3516 39.7725C35.5809 40.6898 35.5809 41.6071 35.5809 42.5245C35.5809 42.8685 35.428 42.9831 35.1223 42.9831C33.5934 43.0214 32.1028 42.9067 30.6886 42.2187C28.4717 41.1485 27.8984 39.161 27.8219 36.9441Z"
        fill="#FF9D00" />
    <path
        d="M37.9507 39.7725C39.7853 39.8489 41.5817 39.6578 43.3017 38.817C44.1808 38.3583 44.7924 37.6321 45.4421 36.9441C45.5186 40.3458 43.6075 42.5245 40.244 42.9067C39.556 42.9831 38.868 42.9831 38.18 42.9831C37.8742 42.9831 37.7213 42.8685 37.7213 42.5245C37.7213 41.5689 37.6831 40.6516 37.9507 39.7725Z"
        fill="#FF9D00" />
</svg>
