<svg fill="none" height="55" viewBox="0 0 76 55" width="76" xmlns="http://www.w3.org/2000/svg">
    <path
        d="M9.74575 25.2417C7.89741 25.2417 6.1331 25.3328 4.36878 25.1961C3.27659 25.105 2.18439 24.786 1.0922 24.4671C0.756135 24.376 0.462082 23.9204 0.16803 23.647C0.50409 23.3736 0.798143 22.9636 1.17621 22.8724C1.97435 22.6446 2.8145 22.5079 3.65465 22.4624C5.587 22.4168 7.51935 22.4624 9.40969 22.4168C9.78775 22.4168 10.2078 22.2346 10.5019 22.0068C11.5101 21.1411 12.2242 21.05 13.1484 22.0068C13.5684 22.4168 13.9465 22.4168 14.4086 22.4168C16.803 22.4624 19.1974 22.5079 21.5919 22.5991C22.0119 22.5991 22.432 22.7357 22.8101 22.918C23.0621 23.0547 23.2722 23.3736 23.5242 23.6014C23.3142 23.8292 23.1041 24.2393 22.8521 24.3304C21.7179 24.6493 20.5417 25.0594 19.3655 25.1505C17.6432 25.2872 15.9208 25.1961 14.1985 25.1961C13.7785 26.6085 13.9045 26.8363 15.2067 26.8363C17.4751 26.8363 19.7855 26.973 22.0119 26.2896C22.6841 26.0618 23.3982 25.7884 23.9863 25.3783C25.4146 24.3304 25.2465 22.5535 23.6922 21.7334C23.3562 21.5511 23.0201 21.46 22.558 21.2322C23.8603 20.5943 25.1205 20.002 26.3387 19.4553C26.9688 19.1819 27.3469 18.7719 27.683 18.134C29.0692 15.1725 31.3796 13.4411 34.3201 12.6666C38.0168 11.6642 41.5874 12.1198 44.822 14.489C46.1243 15.4458 47.0904 16.676 47.8046 18.2251C47.9726 18.5896 48.3087 18.9085 48.6447 19.0908C50.199 19.8653 51.7953 20.5943 53.4336 21.3689C53.0555 21.5511 52.8035 21.6878 52.5094 21.8245C51.7953 22.189 51.3332 22.7813 51.2912 23.647C51.2492 24.5127 51.6272 25.2417 52.3414 25.5606C53.5176 26.0618 54.7358 26.5629 55.996 26.7452C57.6763 26.973 59.3986 26.9274 61.0789 26.973C62.3812 26.973 62.3812 26.9274 62.1711 25.3328C61.8351 25.3783 61.457 25.3783 61.1209 25.4239C58.7265 25.6061 56.3321 25.4695 53.9797 24.7405C53.5176 24.6038 53.1395 24.057 52.7194 23.7381C53.1395 23.4647 53.5596 23.0091 54.0217 22.9636C56.4161 22.7813 58.8105 22.6446 61.205 22.5535C61.9611 22.5535 62.6752 22.6902 63.3474 22.0068C64.1035 21.2322 64.7756 21.2778 65.5317 22.0979C65.9938 22.5535 66.4559 22.5991 67.044 22.5991C69.4384 22.6446 71.8329 22.6902 74.2273 22.7813C74.6474 22.7813 75.1095 22.9636 75.4875 23.1458C75.6976 23.2369 75.9916 23.5559 75.9916 23.7381C75.9916 23.9659 75.7396 24.3304 75.5295 24.376C74.3533 24.7405 73.1771 25.1505 71.9589 25.2417C70.1946 25.3783 68.3883 25.2872 66.4979 25.2872C66.4979 25.9251 66.4559 26.5174 66.4979 27.1097C66.4979 27.3375 66.7079 27.5653 66.876 27.7476C68.0522 28.7499 68.3883 30.2535 67.7581 31.5292C67.086 32.8505 65.7418 33.3972 64.3135 32.8049C60.0708 31.0736 55.828 29.3422 51.5852 27.5653C48.8968 26.4718 46.2083 25.4239 43.5618 24.2393C42.5956 23.8292 41.6295 23.8292 40.6633 23.8292C38.6469 23.8748 36.6306 23.8292 34.6562 23.8748C33.9001 23.8748 33.1019 23.9204 32.3878 24.1937C25.4986 26.973 18.6513 29.8434 11.7621 32.6682C9.74575 33.4884 8.23347 32.7594 7.72938 30.8002C7.47734 29.7067 7.85541 28.2943 8.82158 27.8387C9.70374 27.4286 9.66173 26.7908 9.61972 26.0162C9.74575 25.7428 9.74575 25.5606 9.74575 25.2417Z"
        fill="#FF9D00" />
    <path
        d="M61.205 5.19436C61.205 4.92099 61.205 4.51093 61.205 3.96419C59.7347 3.96419 58.2644 4.05531 56.7942 3.96419C55.618 3.87306 54.4418 3.64525 53.2235 3.41744C52.9715 3.37188 52.7195 3.32632 52.5094 3.14407C52.2154 2.91626 51.9633 2.59733 51.6693 2.32396C51.9633 2.09615 52.2154 1.68609 52.5514 1.64053C53.8116 1.41272 55.0719 1.13935 56.3321 1.09378C57.9284 1.04822 59.5667 1.18491 61.163 1.23047C61.415 1.23047 61.6671 1.04822 61.8771 0.865974C63.1373 -0.227512 63.4734 -0.273074 64.7756 0.865974C64.9856 1.04822 65.3637 1.23047 65.6158 1.18491C68.2202 0.911536 70.8667 0.911537 73.4712 1.45828C74.0173 1.5494 74.5214 2.00502 75.0254 2.32396C74.5214 2.68845 74.0593 3.28076 73.5132 3.37188C71.5808 3.69082 69.6065 3.8275 67.6321 4.00975C66.96 4.05531 66.2879 4.00975 65.5738 4.00975C65.5738 4.41981 65.5738 4.92099 65.5738 5.42217C66.1199 5.51329 66.708 5.55886 67.212 5.64998C67.6321 7.19909 67.17 8.61151 65.9518 9.20381C60.4068 11.7553 54.8618 14.2156 49.2748 16.7671C48.0566 14.5346 46.3763 12.9399 44.1079 11.6186C49.989 9.52274 55.4079 6.83459 61.205 5.19436Z"
        fill="#FFD694" />
    <path
        d="M13.8205 3.96424C13.8205 4.19205 13.7785 4.3743 13.7785 4.55655C13.7785 4.78436 13.7785 5.01217 13.7785 5.23998C13.8625 5.3311 13.9045 5.37667 13.9465 5.37667C16.4669 5.37667 18.6933 6.47015 21.0038 7.38139C24.4484 8.74825 27.893 10.1151 31.4636 11.482C29.2792 12.6666 27.5569 14.3068 26.2547 16.5393C24.3644 15.6737 22.516 14.8535 20.6257 13.9879C17.1391 12.4388 13.6945 10.8441 10.2078 9.29499C9.19965 8.83937 8.61154 8.01926 8.44351 6.88021C8.31749 5.87785 8.52753 5.51335 9.4937 5.3311C9.4937 4.92105 9.4937 4.46543 9.4937 3.91868C7.93942 3.91868 6.34314 4.00981 4.83086 3.87312C3.44462 3.782 2.10038 3.4175 0.756135 3.05301C0.462083 3.00744 0.252045 2.59739 0 2.32401C0.252045 2.0962 0.50409 1.68615 0.798143 1.64059C2.05837 1.41278 3.31859 1.1394 4.57882 1.09384C6.21711 1.04828 7.85541 1.18497 9.4937 1.18497C9.74574 1.18497 9.99779 1.00272 10.2078 0.820471C11.4681 -0.227454 11.7621 -0.318578 13.1063 0.820471C13.3164 1.00272 13.6945 1.1394 13.9885 1.1394C16.635 0.911595 19.2815 0.911595 21.8859 1.45834C22.39 1.54946 22.8521 2.00508 23.3142 2.32401C22.8521 2.68851 22.474 3.28082 21.9699 3.32638C19.9536 3.64531 17.8952 3.782 15.8368 3.96424C15.2067 4.00981 14.5346 3.96424 13.8205 3.96424Z"
        fill="#FFD694" />
    <path
        d="M24.9525 41.3706C25.5826 41.0061 26.1287 40.6416 26.7588 40.2771C29.3633 44.6966 33.0179 47.2936 37.9328 47.2936C42.8477 47.2936 46.5443 44.7877 49.1908 40.2771C49.7789 40.6416 50.367 40.9605 50.9971 41.3706C47.9726 46.6558 43.6878 49.6173 37.9328 49.5717C32.2618 49.5262 27.977 46.6102 24.9525 41.3706Z"
        fill="#575757" />
    <path
        d="M20.9916 45.5615C21.8142 45.1694 22.5271 44.7773 23.3496 44.3851C26.7496 49.1398 31.5206 51.9337 37.9367 51.9337C44.3529 51.9337 49.1787 49.2378 52.6335 44.3851C53.4013 44.7773 54.169 45.1204 54.9916 45.5615C51.0432 51.2475 45.4496 54.4336 37.9367 54.3846C30.5335 54.3356 24.94 51.1985 20.9916 45.5615Z"
        fill="#575757" />
    <path
        d="M30.8336 27.2464C32.6399 26.1529 34.0261 25.7884 35.3704 26.0163C35.2443 26.8364 34.8663 27.702 34.9923 28.4766C35.1183 29.2511 35.6644 30.0713 36.2105 30.618C37.1347 31.4837 38.689 31.2559 39.6131 30.3902C40.7053 29.3423 40.8313 28.021 39.9912 26.0618C41.7555 25.2873 43.1838 26.5174 44.738 27.0186C44.1079 30.2535 41.0834 32.7139 37.8488 32.7594C34.5722 32.7594 31.5057 30.3446 30.8336 27.2464Z"
        fill="#FF9D00" />
    <path
        d="M31.1276 37.6345C34.4042 43.3753 41.5875 43.2841 44.78 37.5433C45.3681 37.8623 45.9142 38.2268 46.5864 38.5913C44.822 41.8717 42.2596 43.7853 38.857 44.1043C34.7822 44.4688 31.6317 42.5551 29.4053 38.7279C29.9514 38.3634 30.4975 37.999 31.1276 37.6345Z"
        fill="#575757" />
    <path
        d="M28.6071 27.9753C27.1789 30.1168 26.3387 32.2126 26.1707 34.6274C26.1287 34.9463 26.2967 35.3564 26.4647 35.6297C26.8008 36.0854 26.5908 36.3587 26.2547 36.5865C25.6666 36.9966 24.2383 37.0422 23.6922 36.541C23.5242 36.3587 23.4402 35.7209 23.4822 35.7209C24.1543 35.3108 23.9443 34.5363 24.1123 33.944C24.4484 32.6227 24.7424 31.2558 25.1625 29.9801C25.2885 29.6156 25.7086 29.2511 26.0447 29.0688C26.8008 28.6588 27.5989 28.3854 28.6071 27.9753Z"
        fill="#FF9D00" />
    <path
        d="M47.9305 28.2488C48.9387 28.6588 49.8209 28.9778 50.661 29.3878C50.9131 29.5245 51.1651 29.7979 51.2491 30.0713C51.6272 31.5748 51.9633 33.0783 52.3413 34.6275C52.4253 34.9919 52.5514 35.3564 52.7614 35.5843C53.1815 36.0854 52.9714 36.5411 52.5514 36.6322C51.8792 36.8144 51.1231 36.86 50.451 36.7233C49.6108 36.5411 49.6108 36.1766 50.1149 35.4476C50.241 35.2653 50.241 34.9464 50.241 34.7186C49.9049 32.1671 49.4008 30.6636 47.9305 28.2488Z"
        fill="#FF9D00" />
    <path
        d="M9.53574 11.2998C10.922 11.9377 12.1822 12.4844 13.4424 13.0767C13.8625 13.259 13.8625 13.8968 13.4844 14.2613C12.7703 14.9448 10.4179 14.8992 9.74577 14.2158C9.61975 14.0791 9.53574 13.8513 9.49373 13.669C9.53574 12.8945 9.53574 12.1655 9.53574 11.2998Z"
        fill="#FF9D00" />
    <path
        d="M9.70376 35.3564C11.216 34.9463 12.6023 34.5362 13.9885 34.1718C14.1986 36.4499 13.7785 37.0877 11.8882 37.0422C10.4599 36.951 9.40971 36.541 9.70376 35.3564Z"
        fill="#FFD694" />
    <path
        d="M66.582 35.3108C66.666 36.4954 66.0779 36.9966 64.5656 37.0421C62.7593 37.0877 62.3392 36.5409 62.3812 34.3995C63.7254 34.6729 65.1117 34.9918 66.582 35.3108Z"
        fill="#FFD694" />
    <path
        d="M65.5738 11.6643C65.5738 12.1199 65.5738 12.4389 65.5738 12.7122C65.5738 14.0335 65.3637 14.398 64.4395 14.6258C62.9693 14.9903 61.7511 14.6258 61.247 13.5779C62.6332 12.9856 64.0615 12.3477 65.5738 11.6643Z"
        fill="#FF9D00" />
    <path
        d="M36.2105 27.7931C37.1767 27.5653 37.2607 27.4286 37.1346 26.563C37.8908 26.1529 38.5209 26.4263 38.983 27.0641C39.4031 27.6565 39.4031 28.3854 39.025 28.9777C38.6469 29.6156 38.0588 29.8434 37.3447 29.6156C36.5465 29.3422 36.2105 28.7499 36.2105 27.7931Z"
        fill="#FF9D00" />
</svg>
