<svg fill="none" height="72" viewBox="0 0 72 72" width="72" xmlns="http://www.w3.org/2000/svg">
    <path
        d="M49.2221 14.7C48.2777 15.2339 47.4565 15.6445 46.7173 16.1783C46.2657 16.4657 46.0193 16.3425 45.6087 16.0961C44.2126 15.1107 42.8165 14.0841 41.3793 13.1808C40.9687 12.9344 40.1885 12.7291 39.8601 12.9344C39.3263 13.2629 39.6137 14.002 39.7779 14.5358C40.517 16.7942 41.8721 18.7241 43.3503 20.5719C46.0604 24.021 49.181 27.0185 52.7534 29.5643C54.2727 30.6319 55.8741 31.6995 57.7629 32.028C58.0914 32.0691 58.5431 32.028 58.7895 31.8227C58.9537 31.6585 58.9126 31.1247 58.7895 30.8783C58.0093 29.5233 57.2702 28.0861 56.2847 26.8953C55.4224 25.8688 55.135 25.0476 56.0383 23.98C56.3668 23.5693 56.6132 23.0356 56.9006 22.5018C59.2411 25.6224 61.4585 28.7842 62.4439 32.6029C62.5261 32.9725 62.6082 33.3831 62.6493 33.7526C62.8546 35.313 61.9512 36.2163 60.6783 36.8733C58.461 38.023 56.1205 38.2694 53.6978 38.0641C47.9492 37.5303 43.145 35.1077 39.2852 30.8783C36.4109 27.7576 34.6042 24.021 33.8651 19.8328C33.4134 17.2869 33.4134 14.7411 34.3167 12.2774C34.6042 11.4562 35.0969 10.6349 35.6307 9.9369C36.3288 8.95142 37.4374 8.99249 38.505 9.15673C40.8866 9.60841 42.9807 10.676 44.9928 11.9489C46.4299 12.7291 47.7439 13.6735 49.2221 14.7Z"
        fill="#FF9D00" />
    <path
        d="M53.5746 71.6936C52.9587 71.283 52.2607 70.9545 51.7679 70.4618C46.7995 65.5344 41.831 60.5659 36.8626 55.5974C35.4665 54.2014 35.4665 53.0927 36.8626 51.7377C38.2997 50.3005 39.7369 48.8633 41.133 47.4673C40.476 46.8103 39.819 46.1943 39.0799 45.4963C38.5461 46.0712 37.9712 46.7281 37.3142 47.3441C35.6307 48.9865 33.7008 50.0541 31.2371 49.4793C31.0318 49.4382 30.7444 49.6025 30.5801 49.7256C27.5005 52.641 22.8606 51.943 20.8075 48.2474C19.5346 45.948 19.9862 42.9915 21.9161 41.0616C22.0804 40.8974 22.2446 40.61 22.2036 40.4046C21.6287 38.0231 22.5731 36.1753 24.1335 34.5328C24.462 34.1633 24.8726 33.8758 25.2421 33.5474C24.503 32.8493 23.846 32.2334 23.148 31.5353C22.2446 32.4798 21.2181 33.4653 20.2737 34.4918C18.7133 36.2574 17.4404 36.2164 15.7158 34.4918C10.7884 29.4412 5.77892 24.5138 0.810466 19.5454C0.112418 18.8473 -0.216074 18.0261 0.15348 17.0817C0.276665 16.7942 0.440911 16.5068 0.687281 16.2604C4.34176 12.5649 8.03731 8.91039 11.6918 5.21485C12.6362 4.27043 13.9091 4.3115 14.8535 5.25591C20.0684 10.4707 25.3242 15.6856 30.5391 20.9414C31.5656 21.968 31.5245 23.2409 30.498 24.2674C28.9787 25.7867 27.4595 27.306 25.9812 28.7842C26.6382 29.4412 27.2952 30.0571 27.9933 30.7962C29.5947 29.1538 31.2782 27.4292 33.0028 25.6635C35.4254 31.946 39.7369 36.2164 45.9782 38.639C44.5821 39.994 43.186 41.3491 41.79 42.7041C42.5701 43.4432 43.1861 44.0591 43.8841 44.7161C44.9517 43.6485 46.0193 42.5809 47.128 41.4723C48.5241 40.0351 49.6327 40.0351 51.0699 41.4723C56.1205 46.5228 61.2121 51.5734 66.2627 56.6651C67.4535 57.8559 67.4535 59.0466 66.2627 60.2374C62.8135 63.6866 59.4054 67.0947 55.9562 70.5028C55.4635 70.9956 54.7654 71.324 54.1495 71.7347C53.9853 71.6936 53.7799 71.6936 53.5746 71.6936ZM10.2957 13.0166C11.3222 14.0431 12.3488 15.0696 13.2932 16.014C14.2787 15.0286 15.3052 14.002 16.2907 13.0166C15.2642 12.0311 14.2376 11.0045 13.2111 9.978C12.2667 11.0045 11.2401 12.0311 10.2957 13.0166ZM41.3383 53.6265C42.3238 54.653 43.3914 55.6796 44.3358 56.6651C45.3623 55.6796 46.3889 54.653 47.3743 53.7086C46.3478 52.6821 45.3213 51.6145 44.3358 50.629C43.3503 51.6145 42.3238 52.641 41.3383 53.6265ZM8.53005 20.8183C9.55659 19.8328 10.6242 18.8062 11.6097 17.8618C10.5831 16.7942 9.51553 15.7677 8.57111 14.8233C7.54457 15.8498 6.51803 16.8763 5.57361 17.8618C6.55909 18.8062 7.58563 19.8328 8.53005 20.8183ZM46.1014 48.7812C47.169 49.8488 48.1956 50.8754 49.14 51.8198C50.1255 50.8754 51.152 49.8488 52.1375 48.9044C51.1109 47.8779 50.0433 46.8513 49.0168 45.8248C48.0724 46.8103 47.0458 47.8368 46.1014 48.7812ZM53.9031 60.0321C52.8355 61.0997 51.809 62.0852 50.7824 63.1117C51.85 64.1383 52.8766 65.2059 53.8621 66.1503C54.8475 65.1648 55.9151 64.1383 56.9417 63.1117C55.9562 62.0852 54.9297 61.0586 53.9031 60.0321ZM58.6252 55.269C57.5987 56.2955 56.5721 57.3221 55.5456 58.3075C56.5721 59.3341 57.6397 60.3606 58.5842 61.305C59.5696 60.3195 60.6372 59.293 61.6227 58.3075C60.6372 57.3631 59.6107 56.2955 58.6252 55.269ZM22.7374 25.4993C23.7639 24.5138 24.8315 23.4873 25.7759 22.5839C24.7494 21.5163 23.7639 20.4898 22.7374 19.4222C21.7108 20.4487 20.6843 21.4753 19.6577 22.5018C20.7253 23.5283 21.7929 24.5549 22.7374 25.4993ZM14.9767 27.1828C16.0443 28.2504 17.1119 29.318 18.0563 30.2624C19.0829 29.277 20.1094 28.2915 21.0538 27.3881C20.0273 26.3205 18.9597 25.294 17.9332 24.2264C16.9477 25.2119 15.9211 26.2384 14.9767 27.1828ZM21.0538 17.8618C20.0273 16.8353 19.0008 15.7677 18.0563 14.8233C17.0298 15.8498 16.0033 16.8763 14.9767 17.9029C15.9622 18.8884 16.9887 19.9149 18.0153 20.9414C19.0418 19.8738 20.0684 18.8473 21.0538 17.8618ZM16.2907 22.5839C15.3052 21.5574 14.2376 20.4898 13.3343 19.5454C12.3077 20.5719 11.2812 21.5984 10.3368 22.5428C11.2812 23.5283 12.3077 24.5959 13.2521 25.5814C14.2787 24.5549 15.3463 23.5283 16.2907 22.5839ZM53.7389 56.7061C54.7654 55.6385 55.833 54.612 56.8596 53.5444C55.8741 52.5999 54.8475 51.5734 53.8621 50.629C52.8355 51.6555 51.809 52.6821 50.7414 53.7086C51.7679 54.6941 52.7945 55.7206 53.7389 56.7061ZM46.1014 58.3896C47.0869 59.3751 48.1134 60.4017 49.0168 61.3871C50.0844 60.3606 51.1109 59.293 52.0554 58.3486C51.1109 57.3631 50.0844 56.3366 49.14 55.3511C48.1134 56.3776 47.0869 57.4042 46.1014 58.3896Z"
        fill="#FFD694" />
    <path
        d="M61.0068 0.0410641C62.1565 0.287434 63.3062 0.369562 64.4149 0.739117C68.2336 2.01203 70.492 4.72208 71.3543 8.58187C71.806 10.5939 71.7239 12.647 71.2311 14.659C71.0669 15.357 70.7384 15.5624 70.0403 15.3981C69.3834 15.2749 69.3834 14.9054 69.4244 14.3305C70.1225 8.45869 66.8375 3.65448 61.4995 2.4637C60.1445 2.17627 58.7484 2.25839 57.3523 2.29945C56.7774 2.29945 56.3668 2.29945 56.2847 1.64246C56.1615 0.903355 56.3668 0.574865 57.0649 0.45168C57.9272 0.287434 58.7895 0.164246 59.6518 0C60.0624 0.0410616 60.5551 0.0410641 61.0068 0.0410641Z"
        fill="#575757" />
    <path
        d="M54.1906 16.1372C53.6157 14.8232 53.5746 13.5503 54.5601 12.4006C55.6277 11.1277 57.5987 10.8813 58.9127 11.8257C60.3909 12.8523 60.8015 14.7001 59.9392 16.2604C59.118 17.6976 57.3934 18.3135 55.833 17.6154C55.3814 17.4101 55.176 17.4922 54.9707 17.9029C53.8621 19.7917 52.7124 21.6805 51.6037 23.6104C51.0699 24.5548 50.495 24.5959 49.6327 24.1442C48.6473 23.6515 47.9081 22.8713 47.4154 21.8858C47.0048 21.0646 47.128 20.6129 47.9081 20.1202C50.0433 18.8062 52.0964 17.4923 54.1906 16.1372Z"
        fill="#FF9D00" />
    <path
        d="M57.6397 6.98045C57.3523 6.98045 57.0238 7.10363 56.8185 7.02151C56.49 6.85726 56.1615 6.61089 56.0383 6.32346C55.8741 5.91284 56.0383 5.50223 56.5311 5.33798C60.9657 4.10613 65.9753 6.20027 66.5501 11.4562C66.6733 12.5648 66.509 13.7146 66.4269 14.8232C66.3859 15.3981 65.9753 15.7676 65.3593 15.6444C64.7845 15.5213 64.6202 15.1517 64.6613 14.5768C64.9076 11.1687 63.1009 8.29442 60.1445 7.39106C59.3643 7.14469 58.502 7.06258 57.7219 6.89833C57.6808 6.93939 57.6808 6.93938 57.6397 6.98045Z"
        fill="#575757" />
</svg>
