<svg fill="none" height="72" viewBox="0 0 75 72" width="75" xmlns="http://www.w3.org/2000/svg">
    <path
        d="M74.1493 37.0722C73.701 49.7463 68.5254 59.9344 58.1742 67.3922C57.6445 67.7997 57.2369 68.1258 57.1147 68.9001C56.9109 70.3264 55.6476 71.3045 54.2212 71.386C52.8356 71.4675 51.5723 70.6932 51.0425 69.3891C50.5127 68.085 50.8795 66.5364 51.9798 65.6806C53.0394 64.8248 54.6695 64.7025 55.8106 65.5176C56.3404 65.8843 56.6256 65.8028 57.0739 65.4768C65.7135 59.1194 70.6853 50.6836 71.6634 40.0064C73.2935 22.1159 60.7009 5.77408 43.055 2.79913C24.3087 -0.379584 6.49978 11.8055 2.9543 30.4702C0.835156 41.718 3.7286 51.7024 11.2679 60.342C11.8384 60.994 12.2052 61.0755 12.735 60.342C12.9795 60.016 13.2647 59.7307 13.5908 59.4862C14.1205 59.0379 14.7726 58.9564 15.2616 59.4862C15.7914 60.016 15.6691 60.6272 15.1394 61.1163C14.0798 62.1759 13.0202 63.2354 11.9606 64.295C11.4716 64.8248 10.8603 64.9063 10.2898 64.4988C9.71925 64.0912 9.71925 63.4799 10.1268 62.9502C10.4528 62.5426 10.086 62.4204 9.92301 62.2166C5.03269 57.0002 1.93548 50.8466 0.631392 43.8371C-2.9956 24.3166 9.35248 5.48881 28.71 0.965256C48.4751 -3.68055 68.5662 8.91204 73.0897 28.6771C73.7825 31.4075 74.1086 34.1787 74.1493 37.0722Z"
        fill="#575757" />
    <path
        d="M26.4686 16.5736C26.8354 16.5736 27.1207 16.7366 27.406 16.9811C28.6285 18.0407 29.8104 19.141 31.0329 20.2006C31.6035 20.6896 31.8072 21.3009 31.2775 21.9122C30.7477 22.5643 30.1364 22.4012 29.5658 21.9122C28.3025 20.8119 27.0392 19.7116 25.7758 18.6112C25.3683 18.2445 25.2461 17.7962 25.4498 17.2664C25.6128 16.7774 25.9796 16.5736 26.4686 16.5736Z"
        fill="#FF9D00" />
    <path
        d="M49.1679 16.4106C49.2087 16.2883 49.2902 16.0846 49.4124 15.84C50.1867 14.4137 51.0018 13.0281 51.7761 11.6425C52.1429 11.0312 52.5911 10.5829 53.3654 10.9497C54.0582 11.2757 54.1805 11.887 53.7322 12.6613C52.9172 14.0877 52.1429 15.514 51.2871 16.9404C51.0018 17.4294 50.635 17.7962 49.983 17.5924C49.4939 17.4701 49.1679 17.1034 49.1679 16.4106Z"
        fill="#FF9D00" />
    <path
        d="M63.3906 37.8058C63.3906 38.4986 62.7793 39.0283 62.0457 38.8246C60.2526 38.2948 58.5003 37.7243 56.7479 37.113C56.1366 36.9092 55.9328 36.3387 56.1366 35.7274C56.3404 35.1568 56.8294 34.9123 57.3999 35.0753C59.193 35.6051 60.9454 36.1756 62.6978 36.7869C63.1461 36.95 63.3906 37.3167 63.3906 37.8058Z"
        fill="#FF9D00" />
    <path
        d="M57.3184 26.395C56.7479 26.3135 56.3404 26.069 56.2181 25.4984C56.0959 24.9686 56.2996 24.5204 56.7479 24.3573C58.6225 23.7868 60.4971 23.257 62.3718 22.768C62.9423 22.605 63.3906 23.0533 63.5129 23.6238C63.6759 24.3574 63.2683 24.7649 62.6163 24.9279C60.9454 25.4169 59.2746 25.8244 57.6037 26.3135C57.5222 26.3542 57.3999 26.395 57.3184 26.395Z"
        fill="#FF9D00" />
    <path
        d="M36.4938 9.97162C36.5345 9.27882 36.9013 8.91204 37.4718 8.78979C37.9609 8.66753 38.4499 8.87129 38.6129 9.36033C39.1427 11.1942 39.6725 13.0281 40.1615 14.9027C40.3245 15.514 39.8763 15.8808 39.3465 16.0845C38.7759 16.2883 38.2869 16.003 38.1239 15.514C37.5533 13.6801 37.0236 11.8055 36.4938 9.97162Z"
        fill="#FF9D00" />
    <path
        d="M28.3025 63.1947C29.1583 63.2762 29.6881 64.132 29.199 64.7841C28.221 66.0881 27.1614 67.3515 26.0611 68.5741C25.6943 68.9816 25.1238 68.9408 24.7162 68.5741C24.2679 68.1665 24.1457 67.6367 24.5125 67.1477C25.4905 65.8844 26.5093 64.7025 27.5282 63.48C27.7319 63.2762 28.058 63.1947 28.3025 63.1947Z"
        fill="#575757" />
    <path
        d="M26.2649 56.552C26.2649 56.9188 26.1426 57.2041 25.8981 57.4893C25.0423 58.5081 24.1865 59.5677 23.3307 60.5865C22.8416 61.1571 22.2711 61.4423 21.6598 60.9533C21.0485 60.4235 21.1708 59.8122 21.6598 59.2417C22.5564 58.1821 23.4122 57.0818 24.3495 56.0222C24.6755 55.6147 25.1238 55.4109 25.6943 55.6554C26.0611 55.7777 26.2241 56.1445 26.2649 56.552Z"
        fill="#575757" />
    <path
        d="M51.776 39.5581C54.5472 36.4201 55.7698 32.8339 55.1585 28.7179C54.3842 23.42 50.3497 18.2444 43.4625 17.5516C37.8386 16.9811 33.6411 19.5485 30.7884 24.3981C30.5439 24.8463 30.4216 25.0093 29.8511 24.6833C26.6724 22.7679 23.2491 22.5234 19.7852 23.7868C14.1613 25.8244 11.6346 31.652 14.1205 36.5424C14.4058 37.1129 13.9983 37.2352 13.713 37.4389C10.9418 39.5173 9.59698 42.2477 10.2898 45.7117C10.9826 49.3387 14.5688 52.2322 18.1958 52.2322C23.4121 52.2322 28.6692 52.2322 33.8856 52.2729C35.3527 52.2729 36.8198 52.2729 38.4907 52.2729C37.9201 52.925 37.4718 53.414 37.1051 53.9438C36.3715 54.9219 35.7195 55.6554 34.2116 55.4924C32.663 55.3294 31.4404 57.0002 31.5627 58.6711C31.685 60.2197 33.152 61.483 34.7007 61.4015C36.3715 61.2793 37.7571 59.7714 37.4718 58.1821C37.3088 57.367 37.5533 56.8372 38.0831 56.3074C38.9389 55.3701 39.9985 54.4736 40.4875 53.3732C40.9358 52.3544 41.4249 52.3544 42.2807 52.3544C44.5628 52.3544 46.845 52.5989 49.0864 52.1099C53.2024 51.2134 55.6883 47.5864 54.751 43.7556C54.3435 41.9625 53.2839 40.6584 51.776 39.5581ZM49.6569 38.4577C50.3089 36.2163 50.3497 34.0565 49.4939 31.9373C47.823 27.8213 42.9327 25.1724 38.3684 25.8652C36.7383 26.1097 35.1897 26.5987 33.7226 27.4545C33.5188 27.5768 33.2336 28.0658 32.9483 27.6583C32.6223 27.21 31.9702 26.884 32.3777 26.0689C33.9671 23.0125 36.3715 20.9748 39.754 20.119C44.359 18.9372 49.2901 21.1786 51.6538 25.3761C54.0174 29.6959 53.3246 34.953 49.9014 38.254C49.8607 38.2947 49.7384 38.3762 49.6569 38.4577Z"
        fill="#FF9D00" />
</svg>
