<svg fill="none" height="72" viewBox="0 0 71 72" width="71" xmlns="http://www.w3.org/2000/svg">
    <path
        d="M35.0415 47.9351C33.6139 49.2762 31.97 49.6656 30.153 49.6223C26.8219 49.5358 23.4475 49.7521 20.1164 49.3628C14.5357 48.7138 10.8585 44.604 10.4259 39.0234C10.2529 36.9036 10.3827 34.7838 11.2046 32.7937C12.2429 30.2846 14.0599 28.5109 16.6555 27.7322C17.3045 27.5159 17.7371 27.2996 17.6938 26.5209C17.6505 26.045 17.7803 25.5259 17.9101 25.05C18.386 23.4926 18.7753 21.9352 18.9051 20.248C19.0782 18.0417 21.2412 16.3978 23.5341 16.441C24.183 16.441 24.5723 16.268 24.9184 15.7489C26.7786 13.1965 29.4608 11.9419 32.4459 11.8986C34.0898 11.8554 35.777 11.8986 37.4641 11.8986C40.5357 11.9419 43.3044 13.2397 45.1214 15.9219C45.5107 16.441 45.7703 16.7006 46.5057 16.5276C49.707 15.8787 52.6488 18.8204 51.9566 22.0217C51.7403 23.0167 51.9134 23.8387 51.9999 24.7904C52.1297 26.6507 52.8651 27.6024 54.6821 28.3811C58.0132 29.7655 59.3543 32.837 59.6138 36.2979C59.7436 37.8553 59.6138 39.456 59.311 41.0134C58.2295 46.0749 53.6871 49.6223 48.4525 49.6656C45.4675 49.6656 42.4392 49.6656 39.4541 49.7088C37.8535 49.6656 36.3826 49.1465 35.0415 47.9351ZM44.2129 25.223C43.2611 25.9585 42.0498 26.9535 40.7952 27.9052C39.8435 28.5974 39.0648 29.2463 39.6272 30.5874C39.757 30.8903 39.5407 31.2796 39.6705 31.6257C39.757 32.0151 39.93 32.4477 40.2329 32.664C41.0981 33.3129 42.0931 33.7455 42.9583 34.3944C43.6505 34.9135 44.1696 34.9568 44.9916 34.4377C46.9816 33.0966 49.5773 33.6157 51.2212 35.5192C52.519 37.0333 52.4325 39.8886 51.0481 41.4892C49.6638 43.0899 47.544 43.5658 45.5972 42.7438C43.6505 41.9218 42.6555 40.1049 42.8285 37.8986C42.8718 37.5092 42.5689 36.8603 42.2229 36.644C41.1413 35.9086 39.9733 35.3029 38.8485 34.6972C38.1563 34.3079 36.7287 35.0433 36.7287 35.8653C36.7287 38.5907 36.7287 41.3162 36.9017 44.0416C37.0315 45.7721 37.94 46.421 39.7137 46.421C42.3094 46.421 44.9483 46.421 47.544 46.421C52.6055 46.421 55.5905 44.1282 56.499 39.1531C57.1479 35.7355 55.9366 30.9768 50.7886 30.5442C49.707 30.4576 49.1879 29.7655 49.1879 28.6839C49.1879 27.7322 49.1879 26.8237 49.1879 26.1748C47.3709 25.7854 45.9433 25.5259 44.2129 25.223ZM21.1547 25.3528C21.0682 26.5209 21.0249 27.6024 20.9817 28.6407C20.9384 29.8087 20.5058 30.3279 19.381 30.5009C16.1364 30.9768 14.4492 32.3611 13.8868 35.4759C12.9783 40.1914 14.579 45.599 21.1547 46.248C24.4858 46.594 27.8602 46.421 31.1913 46.3777C32.5324 46.3777 33.3543 45.3827 33.4409 43.9119C33.5274 41.3162 33.5274 38.6773 33.5274 36.0816C33.5274 35.4759 32.143 34.4377 31.6239 34.7405C30.4558 35.3894 29.2878 36.0816 28.2928 36.9468C27.99 37.2496 28.2063 38.1581 28.2063 38.8071C28.2063 38.9801 28.163 39.1964 28.1197 39.3694C27.9034 41.2297 26.5191 42.6573 24.5291 43.0899C22.6256 43.5225 20.6356 42.6573 19.554 40.9701C18.559 39.3694 18.559 37.2064 19.6838 35.8653C22.1064 32.9235 24.6588 33.3561 26.8652 34.9135C27.8602 34.2646 28.8984 33.6157 29.8934 32.9235C30.1097 32.7505 30.326 32.4044 30.326 32.1448C30.3693 31.1066 30.326 30.025 30.326 28.7705C29.158 27.862 27.7736 26.7372 26.346 25.6989C26.1297 25.5259 25.7404 25.4394 25.5241 25.5259C24.1397 26.045 22.7121 25.9585 21.1547 25.3528ZM36.7287 21.1998C36.7287 22.7139 36.6854 24.2713 36.772 25.7854C36.772 26.1748 37.0748 26.6507 37.3776 26.8237C37.5939 26.9535 38.1563 26.8237 38.4159 26.6074C39.6705 25.6557 40.8818 24.6174 42.1363 23.7089C42.8285 23.233 43.0448 22.7139 42.7853 21.8919C42.6122 21.3728 42.6122 20.6806 42.8285 20.2048C43.3477 18.9935 42.8718 18.0417 42.0498 17.3495C41.0548 16.5276 39.8868 15.7489 38.7187 15.2297C37.5507 14.7106 36.8152 15.3162 36.772 16.6141C36.6854 18.2147 36.7287 19.6856 36.7287 21.1998ZM27.6871 23.4926C29.0715 24.5741 30.3693 25.6124 31.7104 26.6074C31.97 26.7805 32.4459 26.867 32.6622 26.7372C33.0082 26.5641 33.3976 26.1315 33.3976 25.7854C33.4409 22.7139 33.4409 19.6424 33.4409 16.5708C33.4409 15.4028 32.7919 14.8836 31.6239 15.1865C30.0665 15.6191 28.7254 16.441 27.8169 17.7821C27.6439 17.9984 27.5573 18.4743 27.6871 18.6906C28.4658 20.2913 28.4658 21.8487 27.6871 23.4926ZM23.5773 40.8836C25.0049 40.8836 26.0865 39.7155 26.0432 38.2879C25.9999 36.9468 24.8751 35.822 23.4908 35.8653C21.9767 35.8653 20.8951 37.0766 20.9384 38.6773C20.9817 39.802 22.2795 40.9268 23.5773 40.8836ZM47.3709 40.8836C48.7553 40.8836 49.8801 39.802 49.9234 38.461C49.9666 37.0333 48.9716 35.9085 47.5872 35.8653C46.0731 35.822 44.9051 36.9036 44.9051 38.4177C44.9483 39.802 45.9866 40.8836 47.3709 40.8836ZM49.9234 21.243C49.9234 19.7722 48.8418 18.6906 47.4142 18.6906C46.0298 18.6906 44.9483 19.7721 44.9051 21.1565C44.9051 22.5841 46.0298 23.7522 47.4142 23.7522C48.7986 23.7089 49.9234 22.5841 49.9234 21.243ZM23.4908 18.6474C22.1064 18.6474 21.0249 19.7721 20.9817 21.1132C20.9817 22.4976 22.1497 23.7089 23.5341 23.6657C24.8752 23.6657 25.9999 22.4976 25.9999 21.1565C26.0432 19.7289 24.9617 18.6474 23.4908 18.6474ZM37.4209 30.9335C37.4209 29.5492 36.2961 28.4676 34.9117 28.4244C33.5274 28.4244 32.3593 29.5924 32.4026 31.02C32.4459 32.4044 33.5274 33.4859 34.9117 33.4859C36.3393 33.4859 37.4209 32.3611 37.4209 30.9335Z"
        fill="#FF9D00" />
    <path clip-rule="evenodd"
        d="M46.1164 51.9153H35.2578C31.97 51.9153 28.6389 51.9153 25.3943 51.8721C22.6256 51.8721 22.6256 51.8721 22.7986 54.5543C22.9284 56.5875 23.3178 56.9769 25.3078 56.9769H44.2129C47.4142 56.9769 47.4142 56.9769 47.7603 53.7756C47.9333 52.2614 47.6305 51.9153 46.1164 51.9153ZM29.162 67.4461H24.6588C23.7504 67.4461 23.0582 67.0567 22.8419 66.1915C22.6256 65.3695 22.8851 64.6341 23.6638 64.2447C23.9667 64.0717 24.3993 64.0284 24.7454 64.0284H45.3809C46.5922 64.0284 47.4142 64.7206 47.4142 65.7589C47.4142 66.7539 46.5922 67.4893 45.3809 67.4893C43.9288 67.4707 42.4686 67.4601 41.0039 67.4541C41.0424 67.4935 41.0743 67.5342 41.0981 67.5758C41.2279 67.8787 41.0115 68.5276 40.7087 68.8304C38.0698 71.7289 32.0997 71.7289 29.4608 68.8304C29.2013 68.5276 28.985 67.9219 29.1147 67.5326C29.1244 67.5036 29.1405 67.4747 29.162 67.4461ZM32.5661 62.2168H32.5659C30 62.2249 27.4281 62.2331 24.8319 62.1682C24.2262 62.1682 23.4908 61.9086 23.1014 61.476C22.2795 60.6108 22.7986 59.1399 23.9667 58.8371C24.3993 58.7073 24.8751 58.7073 25.351 58.7073H25.351H44.7753H45.5972C46.6788 58.7938 47.4142 59.486 47.4142 60.4377C47.4142 61.4327 46.6788 62.1682 45.5107 62.1682C42.0939 62.2114 38.5906 62.2114 35.1306 62.2114H35.128C34.2743 62.2114 33.4205 62.2141 32.5661 62.2168Z"
        fill="#FFD694" fill-rule="evenodd" />
    <path clip-rule="evenodd"
        d="M36.6086 4.92683V4.92712C36.6182 5.46065 36.6277 5.98789 36.5989 6.53425C36.5556 7.52925 35.8202 8.26469 34.9117 8.22143C33.9167 8.17817 33.3111 7.57251 33.2678 6.62076C33.2245 4.93358 33.2245 3.2464 33.2678 1.55922C33.3111 0.607471 33.9167 0.00181288 34.9117 0.00181288C35.8202 -0.0414483 36.4691 0.693991 36.5556 1.73226V1.94856C36.5989 2.64056 36.5989 3.37579 36.5989 4.11104V4.11162C36.5989 4.38694 36.6038 4.65741 36.6086 4.92627V4.92655V4.92683ZM4.92502 34.1685H4.9253C5.45883 34.1589 5.98607 34.1494 6.53242 34.1782C7.52743 34.2214 8.26288 34.9568 8.21961 35.8653C8.17635 36.8603 7.57069 37.466 6.61895 37.466C4.93176 37.5093 3.24457 37.5093 1.55739 37.466C0.562384 37.4227 0 36.7738 0 35.7788C0 34.8271 0.648909 34.2214 1.60065 34.1349C2.01163 34.1349 2.43343 34.1457 2.85523 34.1565C3.27703 34.1673 3.69883 34.1782 4.10981 34.1782C4.38513 34.1782 4.6556 34.1733 4.92446 34.1685H4.92474H4.92502ZM65.4173 37.5622H65.4176L65.4179 37.5622C65.6869 37.5574 65.9574 37.5525 66.2328 37.5525H68.5256H68.7419C69.7802 37.4227 70.4291 36.7738 70.3859 35.8221C70.3426 34.8271 69.7369 34.2647 68.7852 34.2214C67.1413 34.1782 65.4973 34.1782 63.8534 34.2214C62.9017 34.2647 62.296 34.8271 62.2095 35.8221C62.123 36.7738 62.7719 37.466 63.8102 37.5525C64.3565 37.5813 64.8838 37.5718 65.4173 37.5622ZM59.0514 10.3845C59.1517 10.4625 59.2664 10.5405 59.3843 10.6208C59.7241 10.852 60.091 11.1016 60.2195 11.4228C60.3925 11.8987 60.4358 12.7639 60.133 13.11C58.9649 14.4511 57.6671 15.7489 56.3693 16.9602C55.6771 17.6091 54.8119 17.4361 54.2062 16.7872C53.5573 16.1815 53.4708 15.3596 54.0764 14.7106C55.2877 13.3695 56.5856 12.115 57.8834 10.8604C57.9911 10.7257 58.2162 10.6581 58.496 10.5741C58.6657 10.5232 58.8555 10.4662 59.0514 10.3845ZM16.5607 16.244C16.6477 16.0999 16.7339 15.9571 16.8286 15.8354C16.7642 15.6582 16.7177 15.4991 16.6759 15.3557C16.6053 15.1138 16.5479 14.9168 16.4392 14.7538C16.2257 14.5332 16.0121 14.3114 15.7982 14.0891C14.712 12.9607 13.6158 11.822 12.4592 10.7738C11.8103 10.2547 10.9883 10.3845 10.3827 11.0334C9.82028 11.639 9.64722 12.461 10.2529 13.1099C11.4642 14.451 12.7188 15.7489 14.1031 16.9169C14.4492 17.263 15.3577 17.2197 15.8768 17.0034C16.1742 16.8845 16.3694 16.5611 16.5607 16.244Z"
        fill="#575757" fill-rule="evenodd" />
</svg>
