<svg fill="none" height="20" viewBox="0 0 20 20" width="20" xmlns="http://www.w3.org/2000/svg">
    <path
        d="M6.86587 7.2574V6.13922C6.87434 4.4752 8.27153 3.116 9.99897 3.116C11.3199 3.116 12.5054 3.93599 12.9373 5.16268C13.0813 5.54369 13.5046 5.74165 13.8857 5.60995C14.072 5.55114 14.2244 5.41862 14.3091 5.24468C14.3938 5.07074 14.4107 4.87195 14.343 4.68973C13.6994 2.88491 11.955 1.6665 9.98203 1.6665C7.45862 1.6665 5.40094 3.68005 5.384 6.15579V7.42554L6.86587 7.2574Z"
        fill="#F6921E" opacity="0.4" />
    <path clip-rule="evenodd"
        d="M6.47399 7.25928H13.526C15.4905 7.25928 17.0833 8.81727 17.0833 10.7389V14.8538C17.0833 16.7754 15.4905 18.3334 13.526 18.3334H6.47399C4.50945 18.3334 2.91666 16.7754 2.91666 14.8538V10.7389C2.91666 8.81727 4.50945 7.25928 6.47399 7.25928ZM9.99576 14.4404C10.4107 14.4404 10.7409 14.1174 10.7409 13.7115V11.8727C10.7409 11.4752 10.4107 11.1521 9.99576 11.1521C9.58931 11.1521 9.25906 11.4752 9.25906 11.8727V13.7115C9.25906 14.1174 9.58931 14.4404 9.99576 14.4404Z"
        fill="#F6921E" fill-rule="evenodd" />
</svg>
