<svg fill="none" height="21" viewBox="0 0 20 21" width="20" xmlns="http://www.w3.org/2000/svg">
    <path
        d="M19.8819 3.57746L19.4651 3.85357C19.4951 3.89891 19.5101 3.97 19.4925 4.04028L17.1488 13.3735C17.1368 13.4212 17.1145 13.4504 17.0975 13.465C17.0813 13.4789 17.0719 13.4789 17.0704 13.4789H17.0703H6.447C6.44108 13.4789 6.43552 13.479 6.43039 13.4791C5.78084 13.488 5.35939 14.0687 5.35939 14.6455C5.35939 15.2266 5.78747 15.8122 6.44532 15.8122H17.0703C17.0715 15.8122 17.0863 15.8116 17.1091 15.8375C17.1328 15.8644 17.1563 15.9129 17.1563 15.9789C17.1563 16.0448 17.1328 16.0933 17.1091 16.1202C17.0863 16.1461 17.0715 16.1455 17.0703 16.1455H6.44532C5.81091 16.1455 5.18751 15.5347 5.18751 14.6455C5.18751 13.9962 5.53277 13.4743 5.96875 13.2586L6.31102 13.0893L6.2378 12.7146L4.12234 1.88308L4.04346 1.47884H3.6316H0.585939C0.585916 1.47884 0.585889 1.47884 0.585857 1.47884C0.584182 1.47886 0.56954 1.47897 0.547165 1.45351C0.523509 1.4266 0.5 1.37813 0.5 1.31218C0.5 1.24622 0.523509 1.19775 0.547165 1.17084C0.56954 1.14538 0.584182 1.14549 0.585857 1.14551C0.585889 1.14551 0.585916 1.14551 0.585939 1.14551H4.10157H4.10161C4.10327 1.14551 4.11368 1.1455 4.13116 1.16146C4.1496 1.17829 4.17272 1.21138 4.18292 1.26353L4.60175 3.40802L4.68068 3.81218H5.09248H19.4141C19.4158 3.81218 19.4205 3.81242 19.4288 3.81711C19.4374 3.822 19.4512 3.83269 19.4653 3.85383L19.8819 3.57746ZM19.8819 3.57746C19.7712 3.41044 19.598 3.31218 19.4141 3.31218H5.09248M19.8819 3.57746C19.9926 3.74447 20.028 3.96079 19.9775 4.162L5.09248 3.31218M5.09248 3.31218L4.67362 1.16756C4.61396 0.862522 4.37623 0.645508 4.10157 0.645508H0.585939C0.262299 0.645508 0 0.943946 0 1.31218C0 1.6804 0.262299 1.97884 0.585939 1.97884H3.6316L5.09248 3.31218ZM19.1222 4.76729L19.2784 4.14551H18.6373H5.35279H4.74569L4.86206 4.74136L6.42457 12.7414L6.5035 13.1455H6.9153H16.6283H17.0183L17.1132 12.7673L19.1222 4.76729Z"
        fill="#333333" stroke="#9A9A9A" />
    <path
        d="M7.61719 20.1455C6.98278 20.1455 6.35938 19.5347 6.35938 18.6455C6.35938 17.7563 6.98278 17.1455 7.61719 17.1455C8.2516 17.1455 8.875 17.7563 8.875 18.6455C8.875 19.5347 8.2516 20.1455 7.61719 20.1455ZM8.70312 18.6455C8.70312 18.0644 8.27504 17.4788 7.61719 17.4788C6.95933 17.4788 6.53125 18.0644 6.53125 18.6455C6.53125 19.2266 6.95933 19.8122 7.61719 19.8122C8.27504 19.8122 8.70312 19.2266 8.70312 18.6455Z"
        fill="#333333" stroke="#9A9A9A" />
    <path
        d="M15.8984 20.1455C15.264 20.1455 14.6406 19.5347 14.6406 18.6455C14.6406 17.7563 15.264 17.1455 15.8984 17.1455C16.5328 17.1455 17.1562 17.7563 17.1562 18.6455C17.1562 19.5347 16.5328 20.1455 15.8984 20.1455ZM16.9844 18.6455C16.9844 18.0644 16.5563 17.4788 15.8984 17.4788C15.2406 17.4788 14.8125 18.0644 14.8125 18.6455C14.8125 19.2266 15.2406 19.8122 15.8984 19.8122C16.5563 19.8122 16.9844 19.2266 16.9844 18.6455Z"
        fill="#333333" stroke="#9A9A9A" />
</svg>
