<svg fill="none" height="21" viewBox="0 0 22 21" width="22" xmlns="http://www.w3.org/2000/svg">
    <path
        d="M19.4582 3.23715C18.9697 2.73256 18.3896 2.33227 17.7511 2.05917C17.1127 1.78607 16.4284 1.64551 15.7373 1.64551C15.0462 1.64551 14.3619 1.78607 13.7234 2.05917C13.0849 2.33227 12.5049 2.73256 12.0163 3.23715L11.0026 4.28361L9.98322 3.23715C9.49457 2.7327 8.91446 2.33254 8.27602 2.05953C7.63757 1.78652 6.95329 1.64601 6.26225 1.64601C5.5712 1.64601 4.88692 1.78652 4.24847 2.05953C3.61003 2.33254 3.02992 2.7327 2.54128 3.23715C2.05263 3.74161 1.66502 4.34049 1.40056 4.99959C1.13611 5.65869 1 6.36511 1 7.07852C1 7.79193 1.13611 8.49835 1.40056 9.15746C1.66502 9.81656 2.05263 10.4154 2.54128 10.9199L3.55493 11.9663L11.0026 19.6455L18.4446 11.9628L19.4582 10.9163C19.947 10.4119 20.3348 9.81309 20.5993 9.15398C20.8638 8.49486 21 7.7884 21 7.07495C21 6.3615 20.8638 5.65503 20.5993 4.99592C20.3348 4.3368 19.947 3.73795 19.4582 3.23358V3.23715Z"
        stroke="#9A9A9A" stroke-linecap="round" stroke-linejoin="round" stroke-width="1.3" />
</svg>
