<svg fill="none" height="21" viewBox="0 0 20 21" width="20" xmlns="http://www.w3.org/2000/svg">
    <path
        d="M17.8599 20.6455H12.1448C11.9553 20.6455 11.7736 20.5703 11.6396 20.4363C11.5056 20.3024 11.4304 20.1207 11.4304 19.9312V14.9292H8.57279V19.9291C8.57279 20.1186 8.49752 20.3002 8.36355 20.4342C8.22957 20.5682 8.04786 20.6434 7.85839 20.6434H2.14428C1.95481 20.6434 1.77311 20.5682 1.63913 20.4342C1.50516 20.3002 1.42989 20.1186 1.42989 19.9291V12.0721H0.715494C0.576445 12.0724 0.440355 12.032 0.323915 11.956C0.207474 11.88 0.115745 11.7717 0.0599762 11.6443C0.00420736 11.517 -0.0131769 11.3761 0.00995553 11.239C0.033088 11.102 0.0957315 10.9746 0.190204 10.8726L9.47839 0.871725C9.54521 0.800328 9.62599 0.74341 9.71572 0.704498C9.80544 0.665586 9.9022 0.645508 10 0.645508C10.0978 0.645508 10.1946 0.665586 10.2843 0.704498C10.374 0.74341 10.4548 0.800328 10.5216 0.871725L19.8098 10.8726C19.9043 10.9746 19.9669 11.102 19.99 11.239C20.0132 11.3761 19.9958 11.517 19.94 11.6443C19.8843 11.7717 19.7925 11.88 19.6761 11.956C19.5596 12.032 19.4236 12.0724 19.2845 12.0721H18.5701V19.9291C18.5707 20.1182 18.4962 20.2998 18.3631 20.4341C18.23 20.5684 18.049 20.6444 17.8599 20.6455ZM12.8592 19.217H17.1455V11.3579C17.1398 11.1971 17.1886 11.039 17.2839 10.9094C17.3793 10.7797 17.5156 10.6861 17.6708 10.6436L10.0016 2.40741L2.33234 10.6436C2.48757 10.6861 2.6239 10.7797 2.71924 10.9094C2.81458 11.039 2.86334 11.1971 2.85763 11.3579V19.2149H7.144V14.215C7.144 14.0255 7.21926 13.8438 7.35324 13.7099C7.48721 13.5759 7.66892 13.5007 7.85839 13.5007H12.1448C12.3342 13.5007 12.5159 13.5759 12.6499 13.7099C12.7839 13.8438 12.8592 14.0255 12.8592 14.215V19.217Z"
        fill="#FF6D16" />
</svg>
