<svg fill="none" height="16" viewBox="0 0 16 16" width="16" xmlns="http://www.w3.org/2000/svg">
    <path
        d="M7.99967 14.6668C11.6816 14.6668 14.6663 11.6821 14.6663 8.00016C14.6663 4.31826 11.6816 1.3335 7.99967 1.3335C4.31778 1.3335 1.33301 4.31826 1.33301 8.00016C1.33301 11.6821 4.31778 14.6668 7.99967 14.6668Z"
        fill="white" opacity="0.4" />
    <path
        d="M10.6663 7.50016H8.49967V5.3335C8.49967 5.06016 8.27301 4.8335 7.99967 4.8335C7.72634 4.8335 7.49967 5.06016 7.49967 5.3335V7.50016H5.33301C5.05967 7.50016 4.83301 7.72683 4.83301 8.00016C4.83301 8.2735 5.05967 8.50016 5.33301 8.50016H7.49967V10.6668C7.49967 10.9402 7.72634 11.1668 7.99967 11.1668C8.27301 11.1668 8.49967 10.9402 8.49967 10.6668V8.50016H10.6663C10.9397 8.50016 11.1663 8.2735 11.1663 8.00016C11.1663 7.72683 10.9397 7.50016 10.6663 7.50016Z"
        fill="white" />
</svg>
