<?xml version="1.0" encoding="iso-8859-1"?><!-- Generator: Adobe Illustrator 19.0.0, SVG Export Plug-In . SVG Version: 6.00 Build 0)  -->
<svg style="enable-background:new 0 0 479.994 479.994;" id="Capa_1" version="1.1"
    viewBox="0 0 479.994 479.994" x="0px" xmlns="http://www.w3.org/2000/svg" y="0px"
    xml:space="preserve">
<g>
	<g>
		<path d="M199.997,143.994c-13.255,0-24,10.745-24,24v8h16v-8c0-4.418,3.582-8,8-8s8,3.582,8,8v8h16v-8
			C223.997,154.739,213.252,143.994,199.997,143.994z" />
	</g>
</g>
    <g>
	<g>
		<path d="M279.997,143.994c-13.255,0-24,10.745-24,24v8h16v-8c0-4.418,3.582-8,8-8s8,3.582,8,8v8h16v-8
			C303.997,154.739,293.252,143.994,279.997,143.994z" />
	</g>
</g>
    <g>
	<g>
		<path d="M207.997,191.994v16c0,17.673,14.327,32,32,32c17.673,0,32-14.327,32-32v-16H207.997z M239.997,223.994
			c-8.837,0-16-7.163-16-16h32C255.997,216.831,248.834,223.994,239.997,223.994z" />
	</g>
</g>
    <g>
	<g>
		<path d="M335.997,256.466v-0.472h-43.2c22.155-14.67,37.286-37.82,41.832-64h9.368c13.255,0,24-10.745,24-24s-10.745-24-24-24h-8
			v-16h24c13.255,0,24-10.745,24-24s-10.745-24-24-24h-24V41.93C335.99,18.765,317.204-0.008,294.039,0
			c-11.114,0.004-21.772,4.418-29.634,12.274l-4.128,4.128c-4.855,4.879-11.461,7.613-18.344,7.592h-3.872
			c-6.883,0.021-13.489-2.713-18.344-7.592l-4.128-4.128C199.203-4.1,172.646-4.09,156.271,12.296
			c-7.856,7.862-12.271,18.52-12.274,29.634v38.064h-24c-13.255,0-24,10.745-24,24s10.745,24,24,24h24v16h-8
			c-13.255,0-24,10.745-24,24s10.745,24,24,24h9.368c4.546,26.18,19.677,49.33,41.832,64h-43.2v0.472
			c-36.414,4.108-63.95,34.883-64,71.528v40h16v112h288v-112h16v-40C399.948,291.349,372.411,260.574,335.997,256.466z
			 M143.997,175.994h-8c-4.418,0-8-3.582-8-8s3.582-8,8-8h8V175.994z M143.997,463.994h-32v-96h32V463.994z M143.997,351.994h-48
			v-24c0.035-27.826,20.465-51.419,48-55.432V351.994z M343.997,159.994c4.418,0,8,3.582,8,8s-3.582,8-8,8h-8v-16H343.997z
			 M159.997,41.93c0.006-14.328,11.626-25.939,25.954-25.934c6.873,0.003,13.464,2.732,18.326,7.59l4.128,4.128
			c7.849,7.89,18.527,12.312,29.656,12.28h3.872c11.129,0.032,21.807-4.39,29.656-12.28l4.128-4.128
			c10.137-10.127,26.564-10.118,36.69,0.018c4.857,4.862,7.587,11.453,7.59,18.326v38.064h-160V41.93z M119.997,111.994
			c-4.418,0-8-3.582-8-8s3.582-8,8-8h240c4.418,0,8,3.582,8,8s-3.582,8-8,8H119.997z M159.997,175.994v-48h160v48
			c-0.116,35.725-23.83,67.073-58.176,76.904l-5.824,1.648v17.448c0,8.837-7.163,16-16,16s-16-7.163-16-16v-17.448l-5.824-1.648
			C183.827,243.067,160.113,211.719,159.997,175.994z M287.997,271.994v48h-96v-48h16c0,17.673,14.327,32,32,32
			c17.673,0,32-14.327,32-32H287.997z M319.997,463.994h-160v-192h16v64h128v-64h16V463.994z M367.997,463.994h-32v-96h32V463.994z
			 M383.997,351.994h-48v-79.432c27.535,4.013,47.965,27.606,48,55.432V351.994z" />
	</g>
</g>
    <g>
</g>
    <g>
</g>
    <g>
</g>
    <g>
</g>
    <g>
</g>
    <g>
</g>
    <g>
</g>
    <g>
</g>
    <g>
</g>
    <g>
</g>
    <g>
</g>
    <g>
</g>
    <g>
</g>
    <g>
</g>
    <g>
</g>
</svg>
