<?xml version="1.0"?>
<svg height="512" id="outline" viewBox="0 0 512 512" width="512" xmlns="http://www.w3.org/2000/svg">
    <circle cx="184" cy="128" r="8" />
    <circle cx="232" cy="128" r="8" />
    <path d="M192,176h8a24.0275,24.0275,0,0,0,24-24v-8H208v8a8.00917,8.00917,0,0,1-8,8h-8Z" />
    <path
        d="M104.78906,242.66113a40.15457,40.15457,0,0,0-20.4248,24.28321L64.3374,333.70117a8.00023,8.00023,0,0,0,4.85352,9.78955L72,344.54419V392a7.99877,7.99877,0,0,0,2.34326,5.65674l24,24a7.99836,7.99836,0,0,0,2.58008,1.728L112,428v60a7.99977,7.99977,0,0,0,8,8H296a7.99977,7.99977,0,0,0,8-8V458.8064l16.57031-20.71289L337.6001,460.7998A7.99927,7.99927,0,0,0,344,464h64a7.99583,7.99583,0,0,0,3.57764-.84473l32-16A7.99924,7.99924,0,0,0,448,440V408a7.99877,7.99877,0,0,0-2.34326-5.65674l-15.9292-15.9292,18.18408-121.22754A8.00031,8.00031,0,0,0,440,256h-8v-8a32.04885,32.04885,0,0,0-24.82178-31.17822,31.987,31.987,0,0,0-58.5979-9.3,31.90294,31.90294,0,0,0-36.57007-3.22266,31.97707,31.97707,0,0,0-45.04467,14.2699l-21.14136-8.80872-2.28308-4.56616A63.9858,63.9858,0,0,0,272,152V102.95569a65.4679,65.4679,0,0,0,47.15527-35.378A7.99974,7.99974,0,0,0,312,56H268.5293L246.85986,19.88428A8.0001,8.0001,0,0,0,240,16H176a8.0001,8.0001,0,0,0-6.85986,3.88428L147.4707,56H104a7.99974,7.99974,0,0,0-7.15527,11.57764A65.4679,65.4679,0,0,0,144,102.95569V152a63.98554,63.98554,0,0,0,28.45874,53.19409l-2.42163,4.843ZM423.5105,320H392v16h29.11035l-2.3999,16H408v16h8.3103l-7.2,48H335.99243a7.97753,7.97753,0,0,0-2.33569-5.65674l-8-8a8,8,0,0,0-9.23438-1.49853L286.11133,416h-2.79785l2.34326-2.34326A7.99877,7.99877,0,0,0,288,408v-8h16V384H274.08984l-2.40014-16H296V352H269.28979l-2.40014-16H280V320H264.48962l-2.4-16H272V288H259.68958l-2.4-16h173.4209ZM174.938,272H160V232.94409l9.46448-4.73218Zm-18.65674,16H243.5105l14.40014,96H256a7.99583,7.99583,0,0,0-3.57764.84473L224.16113,398.9751,144,355.25122V306.42236ZM241.084,271.824l.02637.176H241.062ZM360,256H328a16,16,0,0,1,32,0Zm-56,0H272a16,16,0,0,1,32,0Zm-48,0h-8a7.98934,7.98934,0,0,0-5.17749,1.91626l3.81067-30.48547L256,231.33374Zm-31.062,16H191.062l-3.72-29.76013A40.231,40.231,0,0,0,228.658,242.24Zm-125.24854-.458a24.09319,24.09319,0,0,1,12.25489-14.56982L144,240.94421v36.63391L129.34375,299.5625A7.996,7.996,0,0,0,128,304v44.45605l-46.18848-17.3208ZM88,388.68652V350.54419l44.6665,16.74988L220.16943,415.023a7.99751,7.99751,0,0,0,7.40821.13232L257.88867,400H272v4.68652l-13.65674,13.65674A7.99981,7.99981,0,0,0,264,432h24a7.99583,7.99583,0,0,0,3.57764-.84473l23.42187-11.71093L292.15479,448H201.6001l-93.0625-38.77588ZM128,480V434.66675l68.92334,28.718A7.99716,7.99716,0,0,0,200,464h88v16Zm304-68.68652v23.74218L406.11133,448H348l-12.00012-16H416a8,8,0,0,0,7.91162-6.81348l2.8645-19.09692ZM416,248v8H384v-8a16,16,0,0,1,32,0Zm-40-40a16.01088,16.01088,0,0,1,14.568,9.42017,32.14667,32.14667,0,0,0-20.69055,19.78735A32.23648,32.23648,0,0,0,360,228.30493V224A16.01833,16.01833,0,0,1,376,208Zm-34.11768,16.07788A32.03558,32.03558,0,0,0,316,240.52979a32.13612,32.13612,0,0,0-4-5.66211V232a15.98814,15.98814,0,0,1,29.88232-7.92212ZM296,216a16.01663,16.01663,0,0,1,4.00574.51978,31.76943,31.76943,0,0,0-3.276,8.70043,31.85508,31.85508,0,0,0-14.90357-.61669A16.007,16.007,0,0,1,296,216ZM180.5293,32h54.9414l14.4,24H166.12927ZM119.126,72H296.874a49.59453,49.59453,0,0,1-36.65088,16H155.77686A49.59453,49.59453,0,0,1,119.126,72ZM160,152V104h96v48a48,48,0,0,1-96,0Zm48,64a63.691,63.691,0,0,0,21.2373-3.63721l2.5243,5.04859-.38172,3.05383-8.97949,6.735a24.1247,24.1247,0,0,1-28.80029,0l-8.98-6.73511-.38172-3.05371,2.5243-5.04859A63.691,63.691,0,0,0,208,216Z" />
    <rect height="16" width="32" x="288" y="288" />
    <rect height="16" width="32" x="336" y="288" />
    <rect height="16" width="32" x="384" y="288" />
    <rect height="16" width="32" x="312" y="352" />
    <rect height="16" width="32" x="360" y="352" />
    <rect height="16" width="32" x="320" y="384" />
    <rect height="16" width="32" x="368" y="384" />
    <rect height="16" width="32" x="296" y="320" />
    <rect height="16" width="32" x="344" y="320" />
</svg>
