<svg enable-background="new 0 0 512 512" height="512" id="Capa_1" viewBox="0 0 512 512" width="512"
    xmlns="http://www.w3.org/2000/svg">
    <g>
        <path d="m467 166h15v15h-15z" />
        <path d="m437 166h15v15h-15z" />
        <path d="m467 420.668h15v15h-15z" />
        <path d="m437 420.668h15v15h-15z" />
        <path d="m248.5 473.168h15v15h-15z" />
        <path
            d="m489.5 390.668h-105.999v-15.532c25.411-3.648 45.004-25.563 45.004-51.967v-22.5h-7.5c-15.511 0-29.473 6.761-39.093 17.489-5.743-22.763-26.393-39.658-50.915-39.658h-7.5v22.5c0 26.404 19.593 48.318 45.004 51.967v37.701h-105.001v-15.532c25.411-3.648 45.004-25.563 45.004-51.967v-22.5h-7.5c-15.511 0-29.473 6.76-39.093 17.488-5.743-22.762-26.393-39.657-50.915-39.657h-7.5v22.5c0 26.404 19.593 48.318 45.004 51.967v37.701h-105v-15.532c25.411-3.648 45.004-25.563 45.004-51.967v-22.5h-7.5c-15.511 0-29.473 6.761-39.092 17.489-5.744-22.763-26.393-39.658-50.916-39.658h-7.5v22.5c0 26.404 19.593 48.318 45.004 51.967v37.701h-106c-12.407 0-22.5 10.094-22.5 22.5v52.501c0 12.406 10.093 22.499 22.5 22.499h211v-15h-211c-4.135 0-7.5-3.364-7.5-7.499v-52.501c0-4.136 3.365-7.5 7.5-7.5h75.999v30.621l.102.612c2.12 12.721 11.121 21.268 22.398 21.268h30.001c12.407 0 22.5-10.094 22.5-22.5v-30.001h45v30.621l.102.612c2.119 12.721 11.12 21.268 22.398 21.268h30.001c12.406 0 22.5-10.094 22.5-22.5v-30.001h44.999v30.621l.102.612c2.119 12.721 11.12 21.268 22.398 21.268h30.001c12.407 0 22.501-10.094 22.501-22.5v-30.001h75.998c4.136 0 7.5 3.364 7.5 7.5v52.501c0 4.135-3.364 7.499-7.5 7.499h-211v15h211c12.406 0 22.5-10.093 22.5-22.499v-52.501c0-12.406-10.094-22.5-22.5-22.5zm-105.999-37.5c0-18.11 12.905-33.263 30.004-36.746v6.747c0 18.111-12.905 33.266-30.004 36.747zm-45.004-52.168v-6.747c17.099 3.483 30.004 18.636 30.004 36.746v6.748c-17.099-3.481-30.004-18.636-30.004-36.747zm-74.997 52.168c0-18.11 12.905-33.263 30.004-36.746v6.747c0 18.111-12.905 33.266-30.004 36.747zm-45.004-52.168v-6.747c17.099 3.483 30.004 18.636 30.004 36.746v6.748c-17.099-3.481-30.004-18.636-30.004-36.747zm-74.996 52.168c0-18.11 12.905-33.263 30.004-36.746v6.747c0 18.111-12.905 33.266-30.004 36.747zm-45.005-52.168v-6.747c17.099 3.483 30.004 18.636 30.004 36.746v6.748c-17.099-3.481-30.004-18.636-30.004-36.747zm60.005 134.669c0 4.065-3.435 7.5-7.5 7.5h-30.001c-4.331 0-6.709-4.287-7.5-8.181v-29.32h15.001v15h15v-15h15zm120.001 0c0 4.065-3.435 7.5-7.5 7.5h-30.001c-4.332 0-6.709-4.287-7.5-8.181v-29.32h15v15h15v-15h15.001zm120.001 0c0 4.065-3.435 7.5-7.501 7.5h-30.001c-4.332 0-6.709-4.287-7.5-8.181v-29.32h15.001v15h15v-15h15.001z" />
        <path
            d="m489.5 136h-105.999v-15.532c25.411-3.648 45.004-25.563 45.004-51.967v-22.5h-7.5c-15.511 0-29.473 6.761-39.093 17.489-5.743-22.763-26.393-39.658-50.915-39.658h-7.5v22.5c0 26.404 19.593 48.318 45.004 51.967v37.701h-105.001v-15.532c25.411-3.648 45.004-25.563 45.004-51.967v-22.5h-7.5c-15.511 0-29.473 6.76-39.093 17.488-5.743-22.762-26.393-39.657-50.915-39.657h-7.5v22.5c0 26.404 19.593 48.318 45.004 51.967v37.701h-105v-15.532c25.411-3.648 45.004-25.563 45.004-51.967v-22.5h-7.5c-15.511 0-29.473 6.761-39.092 17.489-5.744-22.763-26.393-39.658-50.916-39.658h-7.5v22.5c0 26.404 19.593 48.318 45.004 51.967v37.701h-68.5v15h38.499v30.621l.102.612c2.12 12.721 11.121 21.268 22.398 21.268h30.001c12.407 0 22.5-10.094 22.5-22.5v-30.001h45v30.621l.102.612c2.119 12.721 11.12 21.268 22.398 21.268h30.001c12.406 0 22.5-10.094 22.5-22.5v-30.001h44.999v30.621l.102.612c2.119 12.721 11.12 21.268 22.398 21.268h30.001c12.407 0 22.501-10.094 22.501-22.5v-30.001h75.998c4.136 0 7.5 3.364 7.5 7.5v52.501c0 4.135-3.364 7.499-7.5 7.499h-467c-4.135 0-7.5-3.364-7.5-7.499v-52.501c0-4.136 3.365-7.5 7.5-7.5h22.5v-15h-22.5c-12.407 0-22.5 10.094-22.5 22.5v52.501c0 12.406 10.093 22.499 22.5 22.499h467c12.406 0 22.5-10.093 22.5-22.499v-52.501c0-12.406-10.094-22.5-22.5-22.5zm-105.999-37.5c0-18.11 12.905-33.263 30.004-36.746v6.747c0 18.111-12.905 33.266-30.004 36.747zm-45.004-52.168v-6.747c17.099 3.483 30.004 18.636 30.004 36.746v6.748c-17.099-3.481-30.004-18.636-30.004-36.747zm-74.997 52.168c0-18.11 12.905-33.263 30.004-36.746v6.747c0 18.111-12.905 33.266-30.004 36.747zm-45.004-52.168v-6.747c17.099 3.483 30.004 18.636 30.004 36.746v6.748c-17.099-3.481-30.004-18.636-30.004-36.747zm-74.996 52.168c0-18.11 12.905-33.263 30.004-36.746v6.747c0 18.111-12.905 33.266-30.004 36.747zm-45.005-52.168v-6.747c17.099 3.483 30.004 18.636 30.004 36.746v6.748c-17.099-3.481-30.004-18.636-30.004-36.747zm60.005 134.669c0 4.065-3.435 7.5-7.5 7.5h-30.001c-4.331 0-6.709-4.287-7.5-8.181v-29.32h15.001v15h15v-15h15zm120.001 0c0 4.065-3.435 7.5-7.5 7.5h-30.001c-4.332 0-6.709-4.287-7.5-8.181v-29.32h15v15h15v-15h15.001zm120.001 0c0 4.065-3.435 7.5-7.501 7.5h-30.001c-4.332 0-6.709-4.287-7.5-8.181v-29.32h15.001v15h15v-15h15.001z" />
    </g>
</svg>