<svg fill="none" height="56" viewBox="0 0 56 56" width="56" xmlns="http://www.w3.org/2000/svg">
    <rect fill="#005BD4" height="56" rx="16" width="56" />
    <path
        d="M39.334 25.588H35.4806C32.3207 25.588 29.7473 23.0146 29.7473 19.8546V16.0013C29.7473 15.268 29.1473 14.668 28.414 14.668H22.7607C18.654 14.668 15.334 17.3346 15.334 22.0946V33.908C15.334 38.668 18.654 41.3346 22.7607 41.3346H33.2407C37.3473 41.3346 40.6673 38.668 40.6673 33.908V26.9213C40.6673 26.188 40.0673 25.588 39.334 25.588Z"
        fill="white" opacity="0.4" />
    <path
        d="M33.0656 14.9473C32.5189 14.4006 31.5723 14.774 31.5723 15.534V20.1873C31.5723 22.134 33.2256 23.7473 35.2389 23.7473C36.5056 23.7606 38.2656 23.7606 39.7723 23.7606C40.5323 23.7606 40.9323 22.8673 40.3989 22.334C38.4789 20.4006 35.0389 16.9206 33.0656 14.9473Z"
        fill="white" />
    <path
        d="M30 30.332H22C21.4533 30.332 21 29.8787 21 29.332C21 28.7854 21.4533 28.332 22 28.332H30C30.5467 28.332 31 28.7854 31 29.332C31 29.8787 30.5467 30.332 30 30.332Z"
        fill="white" />
    <path
        d="M27.3333 35.668H22C21.4533 35.668 21 35.2146 21 34.668C21 34.1213 21.4533 33.668 22 33.668H27.3333C27.88 33.668 28.3333 34.1213 28.3333 34.668C28.3333 35.2146 27.88 35.668 27.3333 35.668Z"
        fill="white" />
</svg>
