<svg xmlns:xlink="http://www.w3.org/1999/xlink" height="29" viewBox="0 0 90.519 29" width="90.519"
    xmlns="http://www.w3.org/2000/svg">
    <linearGradient gradientUnits="objectBoundingBox" id="a" x1="3.791" x2="3.71" y1=".163"
        y2="1.77">
        <stop offset="0" stop-color="#faaf40" />
        <stop offset="1" stop-color="#f05a28" />
    </linearGradient>
    <linearGradient id="b" x1="66.82" x2="67.82" y1=".5" y2=".5" xlink:href="#a" />
    <g fill="#171717">
        <path
            d="m233.49 81.612-5.719-.013-.891 2.315h-2.316l4.867-12.324a1.643 1.643 0 0 0 .326.263 8.675 8.675 0 0 0 2.216 0l4.716 12.081h-2.317zm-5.118-1.876 4.524.01-2.249-6.1z"
            transform="translate(-195.305 -61.591)" />
        <path
            d="m242.41 72.495a1.186 1.186 0 0 1 1.18-1.174 1.176 1.176 0 0 1 0 2.353 1.187 1.187 0 0 1 -1.18-1.179zm.23 2.625h1.9l-.019 8.742h-1.9z"
            transform="translate(-200.424 -61.515)" />
        <path
            d="m248.206 76.583h1.9v1.285a3.736 3.736 0 0 1 2.845-1.478v1.883a2.784 2.784 0 0 0 -.6-.056 3.019 3.019 0 0 0 -2.246 1.153l-.013 5.954h-1.9z"
            transform="translate(-202.081 -62.97)" />
        <path
            d="m256.528 80.68a5.208 5.208 0 0 0 3.816 1.673c1.737 0 2.427-.846 2.428-1.642 0-1.085-1.282-1.414-2.746-1.8-1.972-.493-4.287-1.077-4.282-3.629 0-1.991 1.763-3.525 4.405-3.52a6.282 6.282 0 0 1 4.521 1.693l-1.216 1.572a4.91 4.91 0 0 0 -3.49-1.384c-1.249 0-2.046.593-2.048 1.5 0 .941 1.229 1.252 2.657 1.616 1.99.511 4.36 1.132 4.353 3.756 0 2.008-1.419 3.724-4.676 3.718a6.46 6.46 0 0 1 -4.9-1.929z"
            transform="translate(-204.135 -61.642)" />
        <path
            d="m281.523 79.687c0-.941-.413-1.575-1.426-1.578a2.652 2.652 0 0 0 -2.03 1.155l-.013 6.117h-1.9l.013-5.7c0-.941-.414-1.575-1.445-1.578a2.645 2.645 0 0 0 -2.011 1.172l-.013 6.1h-1.9l.019-8.742h1.9v1.195a3.777 3.777 0 0 1 2.845-1.4 2.276 2.276 0 0 1 2.385 1.615 3.708 3.708 0 0 1 2.972-1.6c1.611 0 2.514.874 2.51 2.647l-.014 6.317h-1.9z"
            transform="translate(-208.566 -62.977)" />
        <path
            d="m296.433 84.478a3.691 3.691 0 0 1 -2.826 1.152 2.9 2.9 0 0 1 -3.034-2.9 2.815 2.815 0 0 1 3.047-2.835 3.613 3.613 0 0 1 2.821 1.128v-1.3c0-1.013-.829-1.63-2.042-1.633a3.58 3.58 0 0 0 -2.59 1.1l-.775-1.323a5.2 5.2 0 0 1 3.677-1.4c1.936 0 3.636.822 3.631 3.175l-.013 5.791h-1.9zm.005-2.371a2.562 2.562 0 0 0 -2.079-.909 1.59 1.59 0 1 0 -.007 3.132 2.561 2.561 0 0 0 2.083-.9z"
            transform="translate(-214.238 -62.988)" />
        <path
            d="m304.228 82.533.011-5.049h-1.448v-1.665h1.448l.005-2.389h1.9l-.005 2.389h1.774v1.665h-1.774l-.009 4.579c0 .6.287 1.032.83 1.033a1.224 1.224 0 0 0 .851-.306l.45 1.431a2.513 2.513 0 0 1 -1.793.558 2.017 2.017 0 0 1 -2.24-2.246z"
            transform="translate(-217.742 -62.12)" />
    </g>
    <path
        d="m203.139 61.814a13.293 13.293 0 0 0 -14.931 1.771c-1.187 1-1.2 1.006-.334 2.314q2.552 3.877 5.111 7.749c-.82 1.244-1.662 2.525-2.7 4.1-.265.4-.491.829-.862 1.461a21.945 21.945 0 0 0 2.645-.03 1.832 1.832 0 0 0 1.179-.657c.532-.794 1.017-1.521 1.477-2.212.384.591.775 1.177 1.157 1.769a1.989 1.989 0 0 0 2.1 1.09 18.885 18.885 0 0 1 1.975-.012c-.305-.548-.484-.921-.708-1.263q-1.383-2.113-2.77-4.223l.939-1.421c1.942 2.958 3.9 5.942 5.861 8.854.525.778.392 1.165-.347 1.642a10.641 10.641 0 0 1 -12.278-.351 10.314 10.314 0 0 1 -3.864-11.443c.6-1.841-.426-2.719-1.268-4.049a10.358 10.358 0 0 0 -1.844 4.906 13.032 13.032 0 0 0 5.123 12.691c4.148 3.189 8.752 3.626 13.584 1.707a13.119 13.119 0 0 0 4.575-3.249.945.945 0 0 0 .095-1.384c-2.925-4.406-5.816-8.835-8.759-13.229a1.881 1.881 0 0 0 -1.168-.715c-.8-.1-.24.028-.558.61-.2.31-.358.553-.5.768-.481.717-.922 1.379-1.339 2q-1.632-2.486-3.263-4.974c-.63-.961-.624-1.069.464-1.613a10.319 10.319 0 0 1 11.254.707 9.939 9.939 0 0 1 4.3 10.48c-.35 1.866.524 2.893 1.514 4.3a10.887 10.887 0 0 0 1.482-5.166c.213-5.799-2.217-10.201-7.342-12.928z"
        fill="url(#a)" transform="translate(-183.539 -58.35)" />
    <path
        d="m220.974 57.572a2.8 2.8 0 1 0 2.8 2.8 2.8 2.8 0 0 0 -2.8-2.8zm0 4a1.209 1.209 0 1 1 1.209-1.209 1.209 1.209 0 0 1 -1.209 1.214z"
        fill="url(#b)" transform="translate(-193.474 -57.572)" />
</svg>