<svg fill="none" height="32" viewBox="0 0 32 32" width="32" xmlns="http://www.w3.org/2000/svg">
    <path
        d="M16.0003 29.3332C23.3641 29.3332 29.3337 23.3636 29.3337 15.9998C29.3337 8.63604 23.3641 2.6665 16.0003 2.6665C8.63653 2.6665 2.66699 8.63604 2.66699 15.9998C2.66699 23.3636 8.63653 29.3332 16.0003 29.3332Z"
        fill="#D9DBE9" />
    <path
        d="M16.0003 17.3332C15.2537 17.3332 14.667 16.7332 14.667 15.9998C14.667 15.2665 15.267 14.6665 16.0003 14.6665C16.7337 14.6665 17.3337 15.2665 17.3337 15.9998C17.3337 16.7332 16.747 17.3332 16.0003 17.3332Z"
        fill="#14142B" />
    <path
        d="M21.3333 17.3332C20.5867 17.3332 20 16.7332 20 15.9998C20 15.2665 20.6 14.6665 21.3333 14.6665C22.0667 14.6665 22.6667 15.2665 22.6667 15.9998C22.6667 16.7332 22.08 17.3332 21.3333 17.3332Z"
        fill="#14142B" />
    <path
        d="M10.6663 17.3332C9.91967 17.3332 9.33301 16.7332 9.33301 15.9998C9.33301 15.2665 9.93301 14.6665 10.6663 14.6665C11.3997 14.6665 11.9997 15.2665 11.9997 15.9998C11.9997 16.7332 11.413 17.3332 10.6663 17.3332Z"
        fill="#14142B" />
</svg>
