<svg enable-background="new 0 0 511.982 511.982" height="512" id="Capa_1"
    viewBox="0 0 511.982 511.982" width="512" xmlns="http://www.w3.org/2000/svg">
    <g>
        <circle cx="120.718" cy="405.016" r="7.5" />
        <circle cx="284.335" cy="361.377" r="7.5" />
        <circle cx="373.475" cy="405.016" r="7.5" />
        <circle cx="221.984" cy="397.516" r="7.5" />
        <path
            d="m510.945 424.336c-7.849-21.484-28.49-35.918-51.366-35.918-7.7 0-15.247 1.613-22.203 4.709-12.344-21.866-35.511-35.604-61.064-35.604-7.882 0-15.534 1.278-22.849 3.808-12.872-35.72-44.754-61.27-82.148-66.348.04-4.012 1.15-54.668 29.838-108.029 7.648-14.226 16.78-25.656 26.119-34.794 6.551 10.293 15.821 17.446 27.66 21.281 6.974 2.259 14.503 3.226 22.288 3.225 34.619-.001 74.245-19.119 91.96-28.725 8.063-4.372 11.103-14.516 6.774-22.613-19.266-36.045-63.939-61.515-106.301-60.527-29.213.672-47.902 17.029-51.538 44.951-22.186 9.097-43.83 26.406-60.766 55.163-7.287 12.375-13.451 26.755-18.4 42.865-12.714-17.744-27.775-29.988-43.463-37.859-.002-.105.004-.209-.003-.316-.684-11.708-4.094-21.653-10.133-29.558-8.282-10.842-21.013-17.187-37.838-18.858-21.172-2.103-43.25 2.078-63.864 12.087-3.727 1.809-5.28 6.297-3.472 10.023 1.81 3.725 6.297 5.281 10.022 3.471 17.862-8.673 37.693-12.457 55.831-10.654 19.075 1.895 30.343 11.083 33.594 27.34-16.592-5.299-33.235-6.268-47.976-4.19-3.45.487-6.104 3.288-6.415 6.758-.312 3.47 1.816 6.701 5.124 7.795.321.106 20.78 7.101 42.138 26.788-5.41 8.127-12.693 13.207-22.202 15.477-3.923.937-8.068 1.359-12.363 1.359-33.036-.002-74.665-25.018-87.839-33.515-.812-.524-1.036-1.58-.512-2.404 4.016-6.309 9.154-12.3 15.273-17.809 3.078-2.771 3.327-7.514.556-10.592-2.773-3.079-7.515-3.327-10.593-.556-7.126 6.416-13.146 13.448-17.891 20.902-4.931 7.747-2.671 18.094 5.036 23.064 18.011 11.618 59.973 35.884 96.126 35.883 5.391 0 10.655-.54 15.689-1.742 12.171-2.906 22.015-9.348 29.363-19.159 8.619 9.821 16.855 21.911 23.401 36.676 7.256 16.367 12.785 33.84 16.495 51.962-29.312 10.661-52.851 34.464-62.531 64.882-9.744-4.938-20.494-7.512-31.589-7.512-24.382 0-47.158 12.947-59.808 33.497-5.372-1.729-10.968-2.602-16.708-2.602-22.876 0-43.518 14.435-51.366 35.918-1.912 5.235-1.151 11.081 2.035 15.637 3.168 4.531 8.361 7.235 13.893 7.235h205.02c4.143 0 7.5-3.358 7.5-7.5s-3.357-7.5-7.5-7.5h-205.014c-.842 0-1.335-.452-1.601-.831-.227-.326-.563-1.006-.237-1.894 5.695-15.59 20.675-26.065 37.276-26.065 5.904 0 11.592 1.27 16.904 3.776 3.72 1.754 8.158.186 9.95-3.516 9.159-18.926 28.652-31.155 49.661-31.155 11.52 0 22.565 3.531 31.941 10.211 2.063 1.47 4.73 1.799 7.088.875 2.359-.924 4.092-2.977 4.606-5.457 8.319-40.046 44.091-69.111 85.059-69.111 39.246 0 73.752 26.442 83.91 64.302.581 2.166 2.102 3.958 4.143 4.885 2.042.927 4.391.892 6.404-.095 7.588-3.722 15.744-5.609 24.241-5.609 22.264 0 42.224 13.265 50.852 33.794.858 2.043 2.577 3.602 4.694 4.258 2.115.656 4.415.343 6.279-.857 6.401-4.121 13.816-6.299 21.441-6.299 16.602 0 31.581 10.475 37.276 26.065.324.888-.01 1.568-.238 1.895-.266.379-.758.831-1.601.831h-243.028c-4.143 0-7.5 3.358-7.5 7.5s3.357 7.5 7.5 7.5h243.031c5.531 0 10.725-2.705 13.893-7.234 3.186-4.56 3.948-10.406 2.036-15.641zm-140.945-344.538c18.225-.428 37.733 4.865 54.893 14.881 16.563 9.668 30 23.064 37.834 37.721.46.86.154 1.895-.696 2.356-15.602 8.461-69.106 35.225-102.475 24.416-9.247-2.995-16.084-8.603-20.84-17.08 22.788-18.006 43.714-23.426 44.033-23.505 3.392-.826 5.765-3.882 5.725-7.372-.039-3.49-2.481-6.492-5.891-7.24-14.543-3.192-31.215-3.489-48.165.537 4.45-15.964 16.379-24.272 35.582-24.714zm-120.16 144.717c5.08-20.096 11.956-37.587 20.437-51.988 15.473-26.275 42.96-51.514 78.649-55.587-19.109 10.928-43.396 30.199-60.983 62.91-14.438 26.855-22.285 52.836-26.552 73.34-2.75-8.449-5.915-16.35-9.497-23.65-.734-1.496-1.486-2.956-2.247-4.397.071-.205.139-.413.193-.628zm-29.583 17.596c-15.053-33.952-37.806-55.011-56.03-67.358 35.273 6.774 60.769 34.026 74.201 61.397 7.925 16.149 13.696 35.62 17.178 57.931-6.157.122-12.21.788-18.098 1.983-3.924-18.792-9.703-36.929-17.251-53.953z" />
    </g>
</svg>