<svg enable-background="new 0 0 512 512" height="512" id="Capa_1" viewBox="0 0 512 512" width="512"
    xmlns="http://www.w3.org/2000/svg">
    <g>
        <path
            d="m424.222 2.929c-3.904-3.905-10.234-3.904-14.141-.002l-21.223 21.212c-24.887 24.888-27.066 64.012-6.558 91.414l-118.12 118.055-56.589-56.589c-3.905-3.903-10.237-3.904-14.143 0l-44.909 44.91c-70.048 70.048-20.622 157.444-20.605 157.549.612 1.225 1.486 2.28 2.521 3.153-14.742 10.866-25.612 26.224-30.893 43.939-4.146-.387-8.336-.57-11.562-.57-41.301 0-79.956 35.379-87.8 74.01-.598 2.941.158 5.995 2.057 8.318 1.899 2.324 4.742 3.672 7.743 3.672h201c5.522 0 10-4.478 10-10s-4.478-10-10-10h-187.437c10.897-25.589 38.349-46 64.437-46 4.989 0 12.718.566 17.015 1.515 5.547 1.224 11.004-2.417 12-8.011 5.593-31.381 32.902-53.504 63.985-53.504 30.218 0 55.322 20.534 62.748 47.954 1.986 7.339 11.143 9.864 16.609 4.569 14.997-14.524 34.757-22.523 55.643-22.523 25.552 0 49.773 12.363 64.795 33.072 2.826 3.897 8.031 5.226 12.38 3.164 7.863-3.73 20.251-6.236 30.825-6.236 26.088 0 53.54 20.411 64.438 46h-187.438c-5.522 0-10 4.478-10 10s4.478 10 10 10h201c3.001 0 5.844-1.348 7.743-3.672 1.898-2.323 2.654-5.377 2.057-8.318-7.863-38.727-46.59-74.01-87.8-74.01-10.7 0-22.265 1.914-31.876 5.157-18.903-22.144-46.813-35.157-76.124-35.157-21.103 0-41.287 6.533-58.15 18.626-3.703-7.815-8.588-15.017-14.466-21.364 17.424-6.473 33.287-16.621 46.577-29.912l44.91-44.91c3.903-3.904 3.904-10.238 0-14.143l-56.549-56.549 118.12-118.054c27.564 20.632 66.655 18.211 91.42-6.557l21.21-21.22c3.904-3.905 3.903-10.236-.001-14.141zm-110.565 308.441-37.839 37.838c-14.145 14.145-31.728 24.091-51.058 28.921-13.19-7.94-28.222-12.129-43.76-12.129-10.101 0-19.934 1.747-29.29 5.19-2.533-1.178-3.718-1.817-7.375-3.633-.016-.1-41.311-71.83 18.346-131.487l37.838-37.839 49.514 49.514-56.582 56.551c-3.907 3.904-3.909 10.236-.005 14.142 3.902 3.904 10.234 3.91 14.142.004l56.587-56.555zm160.062-202.371c-19.49 19.49-51.212 19.492-70.714.004-.001-.001-.001-.001-.002-.002-.002-.002-.005-.004-.007-.006-19.487-19.502-19.485-51.222.003-70.712l14.149-14.143 70.711 70.711z" />
        <circle cx="256" cy="502" r="10" />
    </g>
</svg>