<?xml version="1.0" encoding="utf-8"?><!-- Generator: Adobe Illustrator 19.2.0, SVG Export Plug-In . SVG Version: 6.00 Build 0)  -->
<svg enable-background="new 0 0 220 195.3116" height="512" id="suncloud" version="1.1"
    viewBox="0 0 220 195.3116" width="512" x="0px" xmlns="http://www.w3.org/2000/svg" y="0px"
    xml:space="preserve">
<g>
	<path
        d="M163.8555,111.3527c16.5713,0.7241,30.665,11.105,36.8218,25.6338   C208.0037,128.0704,212,116.9913,212,105.3116c0-27.5703-22.4297-50-50-50c-10.8816,0-21.3594,3.5195-29.9778,9.9854   C149.811,73.9611,162.3909,91.1915,163.8555,111.3527z"
        fill="#5CB0FF" />
    <path
        d="M162,119.3116c-0.6055,0-1.2031,0.0156-1.8008,0.0449c-1.0781,0.0859-2.1602-0.3398-2.957-1.0957   c-0.793-0.7559-1.2422-1.8027-1.2422-2.8984c0-26.5176-22.4297-48.0508-50-48.0508c-21.8984,0-41.0586,13.4531-47.6719,33.4746   c-0.5859,1.7812-2.3438,2.9277-4.1875,2.7266c-1.3633-0.1328-2.7461-0.2012-4.1406-0.2012c-23.1602,0-42,18.8418-42,42   s18.8398,42,42,42c0.6172,0,1.2266-0.0117,1.8359-0.0391c0.2578-0.0098,0.5156,0,0.7617,0.0391h110.7617   c0.1406-0.0234,0.2812-0.0391,0.4219-0.0449C181.8477,186.3331,196,171.4191,196,153.3116   C196,134.5636,180.7461,119.3116,162,119.3116z M50,179.3116c-18.7461,0-34-15.252-34-34c0-2.209,1.7891-4,4-4s4,1.791,4,4   c0,14.3359,11.6641,26,26,26c2.2109,0,4,1.791,4,4S52.2109,179.3116,50,179.3116z"
        fill="#D0E8FF" />
    <path
        d="M220,105.3116c0-31.9805-26.0195-58-58-58c-14.2378,0-27.8694,5.2129-38.489,14.6484   c-5.5322-1.6973-11.4045-2.6484-17.511-2.6484c-24.2773,0-45.6719,14.3555-54.207,36.0312   c-0.5938-0.0215-1.1914-0.0312-1.793-0.0312c-27.5703,0-50,22.4297-50,50s22.4297,50,50,50c0.5234,0,1.0469-0.0078,1.5664-0.0234   c0.1445,0.0156,0.2891,0.0234,0.4336,0.0234h112c0.2891,0,0.5742-0.0332,0.8477-0.0957   C186.8555,193.7413,204,175.4601,204,153.3116c0-2.4985-0.2532-4.9355-0.6736-7.3154C214.0762,135.0782,220,120.6383,220,105.3116z    M162,55.3116c27.5703,0,50,22.4297,50,50c0,11.6797-3.9963,22.7588-11.3228,31.6748   c-6.1567-14.5288-20.2505-24.9097-36.8218-25.6338c-1.4646-20.1611-14.0444-37.3916-31.8333-46.0557   C140.6406,58.8312,151.1184,55.3116,162,55.3116z M163.7812,187.2667c-0.1406,0.0059-0.2812,0.0215-0.4219,0.0449H52.5977   c-0.2461-0.0391-0.5039-0.0488-0.7617-0.0391c-0.6094,0.0273-1.2188,0.0391-1.8359,0.0391c-23.1602,0-42-18.8418-42-42   s18.8398-42,42-42c1.3945,0,2.7773,0.0684,4.1406,0.2012c1.8438,0.2012,3.6016-0.9453,4.1875-2.7266   C64.9414,80.7648,84.1016,67.3116,106,67.3116c27.5703,0,50,21.5332,50,48.0508c0,1.0957,0.4492,2.1426,1.2422,2.8984   c0.7969,0.7559,1.8789,1.1816,2.957,1.0957c0.5977-0.0293,1.1953-0.0449,1.8008-0.0449c18.7461,0,34,15.252,34,34   C196,171.4191,181.8477,186.3331,163.7812,187.2667z"
        fill="#1C71DA" />
    <path
        d="M50,171.3116c-14.3359,0-26-11.6641-26-26c0-2.209-1.7891-4-4-4s-4,1.791-4,4c0,18.748,15.2539,34,34,34   c2.2109,0,4-1.791,4-4S52.2109,171.3116,50,171.3116z"
        fill="#1C71DA" />
</g>
    <path
        d="M108.3854,22.1438c-1.0234,0-2.0469-0.3906-2.8281-1.1714c-1.5625-1.5625-1.5625-4.0952,0-5.6572  l14.1426-14.1421c1.5605-1.5615,4.0938-1.5615,5.6562,0c1.5625,1.5625,1.5625,4.0952,0,5.6572l-14.1426,14.1421  C110.4333,21.7532,109.4088,22.1438,108.3854,22.1438z"
        fill="#FF5D5D" />
    <path
        d="M122.528,22.1418c-1.0234,0-2.0469-0.3906-2.8281-1.1714L105.5573,6.8284  c-1.5625-1.562-1.5625-4.0947,0-5.6572c1.5605-1.5615,4.0938-1.5615,5.6562,0l14.1426,14.1421c1.5625,1.562,1.5625,4.0947,0,5.6572  C124.5758,21.7512,123.5514,22.1418,122.528,22.1418z"
        fill="#FF5D5D" />
    <path
        d="M202.3854,34.1438c-7.7197,0-14-6.2803-14-14s6.2803-14,14-14s14,6.2803,14,14  S210.1051,34.1438,202.3854,34.1438z M202.3854,14.1438c-3.3086,0-6,2.6914-6,6s2.6914,6,6,6s6-2.6914,6-6  S205.694,14.1438,202.3854,14.1438z"
        fill="#00D40B" />
    <path
        d="M43.6989,56.7693c-1.0234,0-2.0479-0.3906-2.8281-1.1714L29.5573,44.2844  c-1.5625-1.5625-1.5625-4.0947,0-5.6567l11.3135-11.314c0.75-0.7505,1.7676-1.1719,2.8281-1.1719s2.0781,0.4214,2.8281,1.1719  l11.3135,11.314c1.5625,1.562,1.5625,4.0942,0,5.6567L46.527,55.5979C45.7467,56.3787,44.7223,56.7693,43.6989,56.7693z   M38.0426,41.4558l5.6562,5.6567l5.6562-5.6567l-5.6562-5.6572L38.0426,41.4558z"
        fill="#FFC504" />
</svg>
