<svg height="512" viewBox="0 0 54 60" width="512" xmlns="http://www.w3.org/2000/svg">
    <g fill="none" fill-rule="evenodd" id="Page-1">
        <g fill="rgb(0,0,0)" fill-rule="nonzero" id="022---Tape-Measure"
            transform="translate(0 -1)">
            <path
                d="m35.264 1.609c-3.7378983-.44229717-7.5002037-.64571016-11.264-.609-13.458 0-24 5.271-24 12v16c0 5.383 6.783 9.917 16.775 11.445-2.7926667 2.016-5.7446667 4.0936667-8.856 6.233-.52171701.3581018-.84249019.9425814-.86438596 1.5749943s.25768537 1.2376783.75338596 1.6310057l13.344 10.677c.7075125.5643386 1.7047481.5868449 2.437.055 2.234-1.627 4.415-3.327 6.539-5.072 2.0666667-1.7006667 4.0666667-3.4456667 6-5.235.01-.011.024-.014.033-.025l.007-.012c1.8933333-1.75 3.708-3.5286667 5.444-5.336.021-.02.049-.028.068-.051s.016-.033.027-.048c1.274-1.329 2.516-2.666 3.689-4.011 3.332-3.822 7.478-8.577 8.268-14.434.806-5.974-.307-14.827-6.094-20.117-3.615-3.316-8.248-4.147-12.306-4.666zm-11.264 1.391c11.925 0 22 4.58 22 10 0 6.481-12.9 10-22 10-11.925 0-22-4.58-22-10s10.075-10 22-10zm-22 26v-11.126c3.67 4.233 12.033 7.126 22 7.126 5.2574546.0850922 10.482356-.8399846 15.391-2.725-6.137036 5.6608759-12.6126553 10.9432928-19.391 15.818v-5.093c0-.5522847-.4477153-1-1-1s-1 .4477153-1 1v5.6c-1.6868152-.2203923-3.35715-.5524548-5-.994v-5.606c0-.5522847-.4477153-1-1-1s-1 .4477153-1 1v5c-1.38319746-.4632171-2.72192488-1.0499144-4-1.753v-6.247c0-.5522847-.44771525-1-1-1s-1 .4477153-1 1v4.931c-1.9-1.482-3-3.176-3-4.931zm20.4 30-13.349-10.673c1.525-1.048 3.157-2.182 4.851-3.375.8795125.5637678 1.9341854.788068 2.967.631.6467275-.1382595 1.3217636.0033584 1.858396.3898785s.8848318.9819079.958604 1.6391215c.402216 2.320963 2.5831155 3.8968216 4.913 3.55.6475955-.1324477 1.3210571.0126426 1.8566662.3999993.535609.3873568.8843101.9815027.9613338 1.6380007.1115411.5302585.3016372 1.040889.564 1.515-1.819 1.467-3.681 2.902-5.581 4.285zm29.291-32.88c-.2314302 1.5810662-.7085194 3.1162541-1.414 4.55l-1.422-2c-.3203252-.4501121-.9448879-.5553252-1.395-.235s-.5553252.9448879-.235 1.395l1.991 2.8c-.9637169 1.5504227-2.0385323 3.0289622-3.216 4.424l-2.783-3.182c-.2344926-.2711789-.5962086-.3960829-.9480668-.3273765-.3518582.0687063-.6400157.3205093-.7552681.6599819-.1152523.3394726-.0399631.7146672.1973349.9833946l2.977 3.412c-.267.309-.532.614-.791.91-.974 1.118-2 2.23-3.046 3.337l-4.2-3.6c-.2690133-.2485449-.6523779-.3301409-.9992902-.2126907-.3469124.1174502-.6018621.415153-.66456.7760016-.0626979.3608485.0768884.7271025.3638502.9546891l4.117 3.533c-1.315 1.345-2.685 2.675-4.093 3.99l-4.725-4.048c-.2715218-.2322227-.6463077-.3019501-.9831793-.1829166-.3368717.1190335-.5846503.4087439-.6500001.7600001-.0653497.3512561.0616575.7106939.3331794.9429165l4.55 3.894c-1.4 1.273-2.857 2.52-4.334 3.75-.0840051-.2267706-.1538069-.4585525-.209-.694-.4011847-2.3176237-2.5798838-3.8905859-4.906-3.542-.6498109.1317688-1.3251096-.0145721-1.8620778-.4035225-.5369682-.3889505-.8865429-.9849718-.9639222-1.6434775-.3956791-2.3200929-2.5801354-3.8932042-4.906-3.533-.2990527.032209-.6006079.0338843-.9.005 11.38-8.1 24.973-18.56 30.1-25.628 1.2497329-1.3192534 1.9876535-3.0411864 2.081-4.856.052-3.144-2.156-5.638-4.789-7.387 1.0986623.52852923 2.1165304 1.21069956 3.023 2.026 4.878 4.462 6.256 12.442 5.457 18.372z"
                id="Shape" />
            <path
                d="m23.969 19c4.091 0 10.919-1.174 12.678-4.88 1.194-2.516-.879-5.1-3.215-6.678-2.2044717-1.3965907-4.6319185-2.40518012-7.177-2.982-.778402-.19740877-1.6042675-.03956041-2.255.431-.3982804.28692111-.7127686.67493952-.911 1.124-6.945.227-12.089 2.953-12.089 6.485 0 4.715 7.876 6.5 12.969 6.5zm7.343-3.2.358-7.106c.2226667.13333333.4376667.26966667.645.409 3.756 2.532 3.677 4.942-1.003 6.697zm-6.456-8.717v-.019c.017091-.22037403.1305214-.42198743.31-.551.1701891-.12668716.3886521-.16934997.594-.116 1.3508165.33520878 2.6737454.77417913 3.957 1.313l-.438 8.706c-1.6840136.3905512-3.4072936.5865005-5.136.5840236zm-2.072.946-.639 8.9c-5.511-.398-9.145-2.538-9.145-4.429 0-1.977 3.965-4.19 9.784-4.471z"
                id="Shape" />
            <path
                d="m27 11c-.5522847 0-1 .4477153-1 1v1c0 .5522847.4477153 1 1 1s1-.4477153 1-1v-1c0-.5522847-.4477153-1-1-1z"
                id="Shape" />
            <path
                d="m16.625 49.219c-.4313344-.3451779-1.060822-.2753344-1.406.156-.3451779.4313344-.2753344 1.060822.156 1.406l5 4c.4313344.3451779 1.060822.2753344 1.406-.156.3451779-.4313344.2753344-1.060822-.156-1.406z"
                id="Shape" />
        </g>
    </g>
</svg>