<?xml version="1.0" encoding="iso-8859-1"?><!-- Generator: Adobe Illustrator 19.0.0, SVG Export Plug-In . SVG Version: 6.00 Build 0)  -->
<svg style="enable-background:new 0 0 480 480;" id="Capa_1" version="1.1" viewBox="0 0 480 480"
    x="0px" xmlns="http://www.w3.org/2000/svg" y="0px" xml:space="preserve">
<g>
	<g>
		<path d="M400,304c-17.673,0-32,14.327-32,32c0,17.673,14.327,32,32,32c17.673,0,32-14.327,32-32C432,318.327,417.673,304,400,304z
			 M400,352c-8.837,0-16-7.163-16-16s7.163-16,16-16s16,7.163,16,16S408.837,352,400,352z" />
	</g>
</g>
    <g>
	<g>
		<path d="M480,344v-16h-16.552c-1.426-11.377-5.901-22.158-12.952-31.2l11.2-11.2l-11.312-11.312l-11.2,11.2
			c-9.04-7.042-19.814-11.512-31.184-12.936V256h-16v16.552c-11.377,1.426-22.157,5.901-31.2,12.952l-11.2-11.2l-11.312,11.312
			l11.2,11.2c-7.042,9.04-11.512,19.814-12.936,31.184H320v16h16.552c1.426,11.377,5.901,22.157,12.952,31.2l-11.2,11.2
			l11.312,11.312l11.2-11.2c9.04,7.042,19.814,11.512,31.184,12.936V416H80v-16.8c5.008-1.032,9.77-3.02,14.024-5.856l12.32,12.32
			l11.312-11.312l-12.32-12.32c2.84-4.256,4.831-9.021,5.864-14.032H128v-16h-16.8c-1.032-5.008-3.02-9.77-5.856-14.024l12.32-12.32
			l-11.312-11.312l-12.32,12.32c-4.256-2.84-9.021-4.831-14.032-5.864V304H64v16.8c-5.008,1.032-9.77,3.02-14.024,5.856
			l-12.32-12.32l-11.312,11.32l12.32,12.32c-2.839,4.254-4.83,9.016-5.864,14.024H16v16h16.8c1.032,5.008,3.02,9.77,5.856,14.024
			l-12.32,12.32l11.312,11.312l12.32-12.32c4.256,2.84,9.021,4.831,14.032,5.864V416H0v16h480v-16h-72v-16.552
			c11.377-1.426,22.158-5.901,31.2-12.952l11.2,11.2l11.312-11.312l-11.2-11.2c7.042-9.04,11.512-19.814,12.936-31.184H480z M48,360
			c0-13.255,10.745-24,24-24s24,10.745,24,24s-10.745,24-24,24S48,373.255,48,360z M400,384c-26.51,0-48-21.49-48-48
			c0-26.51,21.49-48,48-48c26.51,0,48,21.49,48,48C447.969,362.497,426.497,383.969,400,384z" />
	</g>
</g>
    <g>
	<g>
		<path d="M408,224V94.528c12.473-4.393,19.023-18.066,14.629-30.539C419.249,54.393,410.174,47.981,400,48H152
			c-13.255,0-24,10.745-24,24s10.745,24,24,24h8v96h-48v-48H96v-35.312L69.656,82.344L58.344,93.656L80,115.312V144H64v48H40
			c-22.08,0.026-39.974,17.92-40,40v56h72c39.746,0.044,71.956,32.254,72,72v8h160v-32c0.062-52.994,43.006-95.938,96-96h24v-16H408
			z M80,160h16v32H80V160z M392,224.28c-0.608,0.04-1.192,0.16-1.792,0.216c-1.696,0.144-3.368,0.376-5.04,0.6
			c-1.968,0.264-3.936,0.536-5.872,0.896c-1.672,0.312-3.312,0.696-4.952,1.08c-1.888,0.44-3.76,0.904-5.6,1.44
			c-1.6,0.472-3.2,1-4.8,1.544c-1.8,0.616-3.576,1.256-5.328,1.952c-1.6,0.624-3.104,1.296-4.64,1.992
			c-1.704,0.8-3.384,1.6-5.048,2.4c-1.493,0.768-2.965,1.568-4.416,2.4c-1.6,0.92-3.2,1.888-4.744,2.888
			c-1.408,0.904-2.8,1.832-4.168,2.792c-1.504,1.064-2.976,2.176-4.424,3.312c-1.32,1.032-2.624,2.072-3.888,3.16
			c-1.4,1.2-2.752,2.448-4.088,3.72c-1.208,1.144-2.4,2.288-3.576,3.488c-1.288,1.328-2.512,2.712-3.736,4.112
			c-1.096,1.248-2.184,2.48-3.2,3.776c-1.168,1.456-2.264,2.976-3.36,4.496c-0.96,1.328-1.936,2.648-2.84,4
			c-1.048,1.6-2,3.2-2.968,4.88c-0.8,1.4-1.672,2.776-2.4,4.216c-0.912,1.72-1.72,3.504-2.544,5.272
			c-0.672,1.448-1.384,2.864-1.992,4.344c-0.8,1.864-1.416,3.792-2.096,5.704c-0.512,1.464-1.08,2.896-1.536,4.384
			c-0.624,2.048-1.104,4.144-1.6,6.24c-0.344,1.424-0.8,2.824-1.056,4.272c-0.472,2.36-0.8,4.8-1.096,7.2
			c-0.168,1.24-0.416,2.448-0.544,3.696c-0.368,3.68-0.568,7.416-0.568,11.2v16H159.64c-4.214-45.268-42.176-79.9-87.64-79.952H16
			v-40c0-13.255,10.745-24,24-24h120v104h114.24l1.48-6.12c11.138-46.621,47.539-83.022,94.16-94.16l6.12-1.48V112H176V96h216
			V224.28z M280.336,256c-8.202,12.301-14.46,25.793-18.552,40H176V128h104v128H280.336z M296,236.496V128h64v69.792
			C335.615,204.798,313.529,218.154,296,236.496z M400,80H152c-4.418,0-8-3.582-8-8s3.582-8,8-8h248c4.418,0,8,3.582,8,8
			S404.418,80,400,80z" />
	</g>
</g>
    <g>
</g>
    <g>
</g>
    <g>
</g>
    <g>
</g>
    <g>
</g>
    <g>
</g>
    <g>
</g>
    <g>
</g>
    <g>
</g>
    <g>
</g>
    <g>
</g>
    <g>
</g>
    <g>
</g>
    <g>
</g>
    <g>
</g>
</svg>
