<svg fill="none" height="60" viewBox="0 0 60 60" width="60" xmlns="http://www.w3.org/2000/svg">
    <circle cx="30" cy="30" fill="#F6921E" r="30" />
    <path
        d="M26.2025 31.1903L22.5033 31.5175C21.6731 31.5175 21 30.8378 21 29.9996C21 29.1613 21.6731 28.4817 22.5033 28.4817L26.2025 28.8088C26.8537 28.8088 27.3817 29.3419 27.3817 29.9996C27.3817 30.6583 26.8537 31.1903 26.2025 31.1903Z"
        fill="white" opacity="0.4" />
    <path
        d="M38.6247 31.1302C38.5669 31.1885 38.3509 31.4353 38.148 31.6402C36.9644 32.9234 33.8739 35.0218 32.2572 35.664C32.0117 35.7665 31.391 35.9846 31.0583 36C30.7408 36 30.4376 35.9262 30.1485 35.7808C29.7874 35.577 29.4994 35.2554 29.3401 34.8764C29.2387 34.6143 29.0794 33.8267 29.0794 33.8124C28.9212 32.9521 28.835 31.5531 28.835 30.0066C28.835 28.535 28.9212 27.1933 29.051 26.3187C29.0652 26.3033 29.2245 25.3262 29.3979 24.9914C29.7154 24.3789 30.3361 24 31.0005 24H31.0583C31.4914 24.0143 32.4012 24.3943 32.4012 24.4076C33.9317 25.0498 36.9491 27.0468 38.1622 28.3742C38.1622 28.3742 38.5047 28.7156 38.6531 28.9282C38.8844 29.2344 39 29.6134 39 29.9923C39 30.4153 38.8702 30.8085 38.6247 31.1302Z"
        fill="white" />
</svg>
