<svg fill="none" height="59" viewBox="0 0 184 59" width="184" xmlns="http://www.w3.org/2000/svg">
    <path
        d="M77.6165 40.7235L65.9907 40.706L64.1698 45.4197L59.4599 45.4022L69.3699 20.3267C69.3699 20.3267 69.8251 20.7998 70.0352 20.8699C71.1033 21.2379 74.535 20.8875 74.535 20.8875L84.1298 45.4722L79.42 45.4547L77.6165 40.7235ZM67.2163 36.921L76.4084 36.9385L71.8386 24.5147L67.2163 36.921Z"
        fill="white" />
    <path
        d="M85.3554 22.3419C85.3554 21.0101 86.4585 19.9587 87.7541 19.9587C89.0848 19.9587 90.1353 21.0276 90.1353 22.3594C90.1353 23.6911 89.0673 24.7425 87.7366 24.7425C86.441 24.725 85.3379 23.6561 85.3554 22.3419ZM85.8107 27.6689H89.6801L89.6451 45.4723H85.7756L85.8107 27.6689Z"
        fill="white" />
    <path
        d="M93.7596 27.6864H97.6291V30.2973C98.9597 28.5976 101.096 27.2833 103.407 27.2833V31.1209C103.074 31.0508 102.672 31.0157 102.199 31.0157C100.588 31.0157 98.3995 32.1197 97.6291 33.3638L97.6116 45.4722H93.7421L93.7596 27.6864Z"
        fill="white" />
    <path
        d="M106.506 38.7259C108.187 40.5307 110.848 42.1253 114.262 42.1253C117.799 42.1253 119.2 40.4081 119.2 38.7784C119.2 36.5705 116.591 35.9047 113.615 35.1161C109.605 34.1173 104.895 32.9257 104.913 27.7389C104.913 23.6911 108.502 20.572 113.86 20.572C117.677 20.572 120.776 21.7986 123.052 24.0241L120.583 27.2132C118.675 25.3032 116.066 24.4096 113.492 24.392C110.953 24.392 109.325 25.6011 109.325 27.441C109.325 29.3511 111.829 29.9819 114.718 30.7354C118.762 31.7692 123.577 33.0309 123.56 38.3754C123.56 42.4583 120.671 45.9454 114.052 45.9454C109.535 45.9278 106.261 44.3508 104.09 42.0202L106.506 38.7259Z"
        fill="white" />
    <path
        d="M148.3 33.9947C148.3 32.0847 147.459 30.788 145.393 30.788C143.66 30.788 142.049 31.9971 141.261 33.136L141.226 45.5774H137.357L137.374 33.9772C137.374 32.0671 136.534 30.7704 134.433 30.7704C132.734 30.7704 131.158 31.9795 130.336 33.1536L130.318 45.5599H126.449L126.484 27.774H130.353V30.2097C131.088 29.1058 133.452 27.3535 136.131 27.3535C138.775 27.3535 140.403 28.6852 140.981 30.6478C142.014 29.0357 144.378 27.371 147.021 27.3885C150.296 27.3885 152.134 29.1583 152.116 32.7681L152.081 45.6124H148.212L148.3 33.9947Z"
        fill="white" />
    <path
        d="M167.086 43.72C165.756 45.227 163.69 46.0681 161.344 46.0681C158.437 46.0681 155.163 44.1055 155.181 40.1628C155.198 36.08 158.472 34.3802 161.379 34.3978C163.777 34.3978 165.826 35.1863 167.122 36.6933V34.0473C167.122 31.9796 165.441 30.7354 162.972 30.7179C160.993 30.7179 159.26 31.4539 157.702 32.9609L156.126 30.2623C158.192 28.3173 160.766 27.4061 163.602 27.4061C167.542 27.4061 170.991 29.0708 170.991 33.8721L170.973 45.6475H167.104L167.086 43.72ZM167.086 38.9012C166.211 37.6921 164.548 37.0612 162.867 37.0437C160.696 37.0437 159.067 38.2879 159.067 40.2329C159.067 42.1429 160.678 43.4046 162.849 43.4046C164.548 43.4046 166.194 42.7913 167.086 41.5647V38.9012Z"
        fill="white" />
    <path
        d="M175.806 41.5296L175.823 31.2611H172.882V27.8791H175.823L175.841 23.0253H179.71L179.693 27.8791H183.3V31.2611H179.693L179.675 40.5833C179.675 41.7924 180.253 42.6861 181.356 42.6861C182.092 42.6861 182.792 42.3882 183.09 42.0728L184 44.9816C183.3 45.6475 182.162 46.1206 180.358 46.1206C177.382 46.1031 175.806 44.4734 175.806 41.5296Z"
        fill="white" />
    <path
        d="M39.8325 7.04428C29.9226 1.76985 18.1391 3.34692 9.48979 10.654C7.07358 12.6867 7.05607 12.7042 8.80695 15.3677C12.2737 20.6246 15.7404 25.8815 19.1897 31.1384C17.5263 33.6617 15.8105 36.2727 13.7094 39.4794C13.1666 40.303 12.7114 41.1616 11.9585 42.4583C14.0421 42.4583 15.7054 42.616 17.3337 42.4057C18.1917 42.3006 19.2597 41.7574 19.7324 41.074C20.818 39.4619 21.7985 37.9724 22.7264 36.5706C23.5143 37.7797 24.3022 38.9712 25.0726 40.1628C26.1582 41.845 27.3663 42.616 29.3273 42.3882C30.5004 42.248 31.7085 42.3707 33.3368 42.3707C32.724 41.2492 32.3563 40.4957 31.9011 39.7948C30.0276 36.921 28.1542 34.0648 26.2632 31.2085C26.8935 30.2448 27.5239 29.2985 28.1717 28.3172C32.1112 34.3276 36.0857 40.4081 40.0777 46.3309C41.1457 47.908 40.8831 48.6965 39.3773 49.6778C31.5509 54.7244 22.0261 54.4966 14.4098 48.9593C7.19614 43.72 3.7469 34.3276 6.54831 25.6712C7.77393 21.9213 5.69038 20.134 3.97452 17.4354C1.69837 20.6421 0.647845 23.954 0.227633 27.4235C-1.033 37.8848 2.27616 46.6989 10.6979 53.1999C19.1371 59.6834 28.4868 60.5771 38.3093 56.6695C41.9336 55.2326 44.9276 52.8494 47.6064 50.0633C48.5344 49.0995 48.5169 48.3285 47.799 47.2421C41.8461 38.2703 35.9806 29.2635 29.9926 20.3267C29.5374 19.6433 28.4693 18.9775 27.6114 18.8723C25.9831 18.662 27.1212 18.9249 26.4733 20.1165C26.0706 20.7473 25.738 21.2379 25.4578 21.676C24.4773 23.1304 23.5844 24.4797 22.744 25.7589C20.5378 22.3944 18.3142 19.0125 16.1081 15.6306C14.83 13.668 14.8475 13.4577 17.0536 12.3538C24.9501 8.41108 32.724 8.67392 39.9376 13.7906C47.2213 18.9775 50.3203 26.3722 48.6745 35.1162C47.9566 38.9186 49.7425 41.0039 51.756 43.8601C53.7696 40.3731 54.645 36.921 54.7675 33.3463C55.2053 21.5533 50.2678 12.5991 39.8325 7.04428Z"
        fill="white" />
    <path
        d="M55.9056 0C52.7715 0 50.2153 2.54084 50.2153 5.69498C50.2153 8.84912 52.754 11.39 55.9056 11.39C59.0397 11.39 61.596 8.84912 61.596 5.69498C61.596 2.54084 59.0397 0 55.9056 0ZM55.9056 8.1482C54.5574 8.1482 53.4544 7.04425 53.4544 5.69498C53.4544 4.34571 54.5574 3.24176 55.9056 3.24176C57.2538 3.24176 58.3568 4.34571 58.3568 5.69498C58.3568 7.04425 57.2538 8.1482 55.9056 8.1482Z"
        fill="white" />
</svg>
