<svg fill="none" height="18" viewBox="0 0 18 18" width="18" xmlns="http://www.w3.org/2000/svg">
    <path
        d="M12.3963 0.666748H15.2179C16.3865 0.666748 17.3333 1.62162 17.3333 2.80005V5.64552C17.3333 6.82395 16.3865 7.77882 15.2179 7.77882H12.3963C11.2277 7.77882 10.2808 6.82395 10.2808 5.64552V2.80005C10.2808 1.62162 11.2277 0.666748 12.3963 0.666748Z"
        fill="#929AAB" opacity="0.4" />
    <path clip-rule="evenodd"
        d="M2.7821 0.666748H5.60374C6.7723 0.666748 7.71918 1.62162 7.71918 2.80005V5.64552C7.71918 6.82395 6.7723 7.77882 5.60374 7.77882H2.7821C1.61354 7.77882 0.666664 6.82395 0.666664 5.64552V2.80005C0.666664 1.62162 1.61354 0.666748 2.7821 0.666748ZM2.7821 10.2214H5.60374C6.7723 10.2214 7.71918 11.1762 7.71918 12.3547V15.2001C7.71918 16.3777 6.7723 17.3334 5.60374 17.3334H2.7821C1.61354 17.3334 0.666664 16.3777 0.666664 15.2001V12.3547C0.666664 11.1762 1.61354 10.2214 2.7821 10.2214ZM15.2179 10.2214H12.3963C11.2277 10.2214 10.2808 11.1762 10.2808 12.3547V15.2001C10.2808 16.3777 11.2277 17.3334 12.3963 17.3334H15.2179C16.3865 17.3334 17.3333 16.3777 17.3333 15.2001V12.3547C17.3333 11.1762 16.3865 10.2214 15.2179 10.2214Z"
        fill="#929AAB" fill-rule="evenodd" />
</svg>
