<svg fill="none" height="20" viewBox="0 0 20 20" width="20" xmlns="http://www.w3.org/2000/svg">
    <path
        d="M7.61978 17.3185V14.7628C7.61976 14.1152 8.14639 13.589 8.79869 13.5849H11.1938C11.8491 13.5849 12.3802 14.1123 12.3802 14.7628V17.3111C12.3802 17.8728 12.8367 18.3293 13.4024 18.3334H15.0365C15.7997 18.3354 16.5323 18.0357 17.0726 17.5007C17.613 16.9656 17.9167 16.239 17.9167 15.4814V8.22162C17.9166 7.60957 17.6434 7.02901 17.1705 6.63633L11.6191 2.22864C10.6488 1.45768 9.26281 1.48259 8.32116 2.2879L2.88918 6.63633C2.39395 7.01743 2.09796 7.59972 2.08333 8.22162V15.4739C2.08333 17.0532 3.37282 18.3334 4.96348 18.3334H6.56024C6.83264 18.3354 7.09457 18.2293 7.28789 18.0388C7.48121 17.8482 7.58994 17.589 7.58993 17.3185H7.61978Z"
        fill="#F6921E" />
</svg>
