<svg fill="none" height="50" viewBox="0 0 50 50" width="50" xmlns="http://www.w3.org/2000/svg">
    <path
        d="M34.6243 38.4557C31.4523 38.4557 28.3256 38.4557 25.1536 38.4557C25.1536 36.6885 25.1536 34.9212 25.1536 33.154C21.8909 33.154 18.6585 33.154 15.3958 33.154C15.3958 34.9212 15.3958 36.6734 15.3958 38.4557C12.2238 38.4557 9.09712 38.4557 5.95532 38.4557C5.94021 38.3802 5.91 38.2896 5.91 38.2141C5.97042 34.1962 6.60483 30.2991 8.37209 26.6438C9.79194 23.6983 11.7858 21.2513 14.7161 19.6653C16.5589 18.6684 18.5376 18.2153 20.6372 18.2908C24.7457 18.4418 27.8724 20.4055 30.3194 23.5926C32.3132 26.2208 33.431 29.2267 34.0654 32.444C34.4128 34.2717 34.6092 36.0994 34.6394 37.9573C34.6243 38.1234 34.6243 38.2896 34.6243 38.4557ZM23.4618 23.7739C21.2867 23.7739 19.1569 23.7739 17.0121 23.7739C17.0121 24.9973 17.0121 26.1755 17.0121 27.3537C19.172 27.3537 21.3018 27.3537 23.4618 27.3537C23.4618 26.1604 23.4618 24.9822 23.4618 23.7739Z"
        fill="#0EA900" />
    <path
        d="M43.5512 38.4859C42.8715 38.4859 42.222 38.4859 41.5272 38.4859C41.5272 37.2473 41.5272 36.039 41.5272 34.8155C40.349 34.8155 39.201 34.8155 38.0229 34.8155C38.0229 36.039 38.0229 37.2473 38.0229 38.4859C37.3129 38.4859 36.6634 38.4859 35.9837 38.4859C35.9837 32.006 35.9837 25.5411 35.9837 19.046C38.5062 19.046 41.0136 19.046 43.5512 19.046C43.5512 25.5109 43.5512 31.9758 43.5512 38.4859ZM38.5666 26.1302C39.4276 26.1302 40.2282 26.1302 41.0287 26.1302C41.0287 25.2843 41.0287 24.4687 41.0287 23.6681C40.1828 23.6681 39.3823 23.6681 38.5666 23.6681C38.5666 24.4838 38.5666 25.2843 38.5666 26.1302Z"
        fill="#0EA900" />
    <path
        d="M24.7155 42.5341C17.9787 42.5341 11.2571 42.5341 4.52035 42.5341C4.41461 42.5341 4.29377 42.5492 4.18804 42.5341C4.03699 42.5039 3.90105 42.4284 3.75 42.3831C3.81042 42.232 3.84063 42.0508 3.93126 41.9299C4.47503 41.3106 5.04902 40.7064 5.59279 40.072C5.78915 39.8455 5.98551 39.785 6.27251 39.785C10.804 39.785 15.3354 39.785 19.8669 39.785C27.6307 39.785 35.3946 39.785 43.1585 39.785C43.4606 39.785 43.6721 39.8606 43.8684 40.1022C44.3971 40.7215 44.9711 41.3106 45.4997 41.9299C45.6055 42.0508 45.6508 42.232 45.7112 42.3831C45.5602 42.4435 45.4091 42.5341 45.243 42.5341C44.8049 42.5492 44.3669 42.5492 43.9288 42.5492C37.5244 42.5341 31.12 42.5341 24.7155 42.5341Z"
        fill="#0EA900" />
    <path
        d="M11.1816 9.18257C12.4504 7.24915 14.5953 7.11321 16.0151 8.11013C17.4199 9.09194 17.8126 11.1311 16.8761 12.5812C15.9396 14.0312 13.84 14.7109 11.9821 13.3817C11.3779 13.8802 10.6831 14.1672 9.88256 14.0765C9.32369 14.0161 8.84033 13.7895 8.44761 13.3968C7.58663 12.5358 7.40537 11.3123 7.97936 10.3154C8.64397 9.18257 9.79194 8.77474 11.1816 9.18257Z"
        fill="#0EA900" opacity="0.2" />
    <path
        d="M32.4492 11.8411C31.7544 12.2942 31.0142 12.4 30.259 12.0374C29.4735 11.6749 29.0657 10.8895 29.1261 9.99829C29.1865 9.25815 29.8209 8.50291 30.5762 8.27634C31.3767 8.03466 32.2679 8.30655 32.7966 9.00137C32.9174 9.16752 33.0081 9.22794 33.2195 9.16752C33.9446 8.98626 34.579 9.28836 34.9415 9.92276C35.2889 10.527 35.1983 11.2218 34.6998 11.7656C34.2618 12.2338 33.4763 12.3697 32.857 12.0676C32.7362 12.0223 32.6153 11.9317 32.4492 11.8411Z"
        fill="#0EA900" opacity="0.5" />
    <path
        d="M43.4908 17.7318C40.9985 17.7318 38.5364 17.7318 36.0743 17.7318C36.1046 16.4781 37.4036 14.5598 39.7448 14.4994C41.6027 14.4541 43.4304 16.0099 43.4908 17.7318Z"
        fill="#0EA900" />
</svg>
