<svg fill="none" height="50" viewBox="0 0 50 50" width="50" xmlns="http://www.w3.org/2000/svg">
    <path
        d="M22.4027 11.508C23.1403 15.1513 23.8555 18.7945 24.5931 22.4825C28.594 22.4825 32.5949 22.4825 36.6852 22.4825C36.6852 20.672 36.6852 18.8616 36.6852 17.0064C37.6463 17.0064 38.518 17.0064 39.4567 17.0064C39.4567 18.8392 39.4567 20.6273 39.4567 22.5048C40.3284 22.5048 41.1331 22.5048 41.9377 22.5048C43.8599 22.5048 44.9775 23.6448 44.9775 25.567C44.9775 27.9586 44.9775 30.3725 44.9775 32.8535C44.821 32.7641 44.7316 32.7194 44.6199 32.6523C40.1496 29.2102 34.0701 30.7748 31.7902 35.938C31.7232 36.0944 31.4997 36.3179 31.3656 36.3179C29.4881 36.3403 27.6105 36.3403 25.6883 36.3403C25.3978 31.5795 23.252 28.0033 18.8041 26.1705C14.4009 24.3153 10.3777 25.3658 6.8462 28.4056C6.22037 27.7797 5.59453 27.1539 4.87929 26.4387C5.50512 25.9469 6.19801 25.3658 6.91326 24.8741C7.47204 24.4941 8.12022 24.2035 8.70136 23.8459C8.85782 23.7565 9.03663 23.5777 9.03663 23.4212C9.05898 20.3815 9.05898 17.364 9.05898 14.2796C8.5002 14.2349 7.96377 14.2349 7.44969 14.1678C6.8909 14.1008 6.53328 13.7431 6.37682 13.2291C6.22037 12.7373 6.30977 12.2232 6.71209 11.888C7.00266 11.6645 7.40498 11.4633 7.7626 11.4633C12.6128 11.441 17.4407 11.4633 22.2909 11.4633C22.2909 11.4633 22.3133 11.4857 22.4027 11.508ZM21.7545 22.4825C21.7322 22.3707 21.7322 22.2813 21.7098 22.1919C21.2181 19.7109 20.704 17.2299 20.2346 14.7489C20.1452 14.3243 20.0111 14.2125 19.5864 14.2125C17.1948 14.2349 14.7809 14.2125 12.3893 14.2125C12.2105 14.2125 12.0317 14.2349 11.8752 14.2349C11.8752 17.0064 11.8752 19.7333 11.8752 22.4601C15.1832 22.4825 18.4689 22.4825 21.7545 22.4825Z"
        fill="#F6921E" />
    <path
        d="M14.6021 44.6104C10.0201 44.6104 6.30977 40.8778 6.33212 36.2734C6.35447 31.7137 10.0648 28.0034 14.6244 28.0034C19.2065 28.0034 22.9168 31.7361 22.9168 36.3404C22.8721 40.9001 19.1394 44.6328 14.6021 44.6104ZM14.6244 32.7866C12.6575 32.7866 11.0482 34.3288 11.0482 36.251C11.0259 38.2627 12.5905 39.872 14.5797 39.872C16.5467 39.872 18.1559 38.3074 18.1783 36.3628C18.1783 34.3959 16.5914 32.7866 14.6244 32.7866Z"
        fill="#F6921E" />
    <path
        d="M33.936 39.0895C33.936 36.005 36.3946 33.5687 39.4791 33.5687C42.5412 33.5687 45.0222 36.0721 44.9999 39.1118C44.9775 42.1293 42.5189 44.5879 39.4791 44.6103C36.4393 44.6326 33.936 42.1516 33.936 39.0895ZM42.2283 39.0895C42.2283 37.5473 40.999 36.3179 39.4567 36.3179C37.9369 36.3179 36.7075 37.5249 36.7075 39.0224C36.6852 40.5423 37.9145 41.8164 39.4344 41.8164C40.9543 41.8611 42.2283 40.6094 42.2283 39.0895Z"
        fill="#F6921E" />
    <path
        d="M36.7745 14.1902C36.7075 13.8996 36.6628 13.609 36.5734 13.3632C36.1711 12.1786 35.1652 11.4857 33.8912 11.4633C32.1031 11.441 30.315 11.4633 28.5269 11.4633C26.7835 11.441 25.5989 10.1893 25.6659 8.51295C25.7106 7.26128 26.7612 6.09901 28.0128 6.00961C28.9963 5.94255 29.9797 5.94255 30.9632 5.96491C32.7066 5.98726 33.7124 6.90366 33.9806 8.71411C35.8358 8.62471 37.6239 8.82587 38.7862 10.5916C39.5237 11.7092 39.5014 12.9385 39.4343 14.2349C38.5403 14.1902 37.6686 14.1902 36.7745 14.1902Z"
        fill="#F6921E" opacity="0.5" />
</svg>
