<svg fill="none" height="50" viewBox="0 0 50 50" width="50" xmlns="http://www.w3.org/2000/svg">
    <path
        d="M5.58096 23.0719C5.07728 23.0719 4.62082 23.0719 4.16437 23.0719C3.75513 23.0566 3.64495 22.8874 3.84957 22.5336C4.99858 20.4725 6.08464 18.3499 7.35957 16.3657C9.31133 13.3356 12.1917 11.6898 15.8591 11.5976C19.621 11.5053 23.3828 11.4899 27.1447 11.5976C30.8751 11.7052 33.7082 13.4894 35.6128 16.5964C36.7775 18.5037 37.8479 20.4879 38.9496 22.4259C39.233 22.9181 39.1385 23.0566 38.5561 23.0566C38.1469 23.0566 37.7219 23.0566 37.2655 23.0566C37.2655 23.5488 37.2497 23.9948 37.2655 24.4255C37.2655 24.6562 37.2183 24.7639 36.9507 24.81C36.5729 24.8869 36.1952 25.01 35.7859 25.1176C35.7859 24.4101 35.7859 23.7487 35.7859 23.0412C35.6285 23.0412 35.5026 23.0412 35.3767 23.0412C32.937 23.0412 30.4973 23.0412 28.0576 23.0412C27.79 23.0412 27.6326 23.0719 27.6326 23.4103C27.6484 26.6404 27.6326 29.8704 27.6484 33.1005C27.6484 33.1928 27.6641 33.2697 27.6798 33.4235C28.3881 33.4235 29.0964 33.4235 29.8047 33.4235C30.6704 33.4235 30.6704 33.4235 30.8751 34.2541C30.9223 34.4387 30.9695 34.6232 31.0325 34.8693C30.8593 34.8693 30.7177 34.8693 30.576 34.8693C22.5958 34.8693 14.6314 34.8693 6.65128 34.8693C5.81706 34.8693 5.5967 34.654 5.5967 33.8234C5.5967 30.4088 5.5967 27.0095 5.5967 23.5949C5.58096 23.4411 5.58096 23.2873 5.58096 23.0719ZM26.1846 33.4081C26.1846 29.9781 26.1846 26.5942 26.1846 23.2104C26.1846 23.1027 26.0901 22.995 26.0272 22.9027C25.8225 22.672 25.555 22.4875 25.4133 22.226C24.5791 20.8109 23.8078 19.3497 22.9579 17.9346C21.4626 15.4736 19.2118 14.1355 16.2526 14.1355C13.2778 14.1355 10.964 15.4429 9.42151 17.95C8.65025 19.2266 7.94195 20.534 7.21792 21.8414C7.10774 22.0414 7.04478 22.2875 7.04478 22.5028C7.02904 25.9944 7.04478 29.5013 7.04478 32.9928C7.04478 33.1312 7.06052 33.2697 7.06052 33.4081C8.52433 33.4081 9.97241 33.4081 11.452 33.4081C11.452 33.2389 11.452 33.0851 11.452 32.9313C11.452 30.8394 11.452 28.7476 11.452 26.6711C11.452 26.0097 11.7038 25.7483 12.3649 25.7483C14.9147 25.7483 17.4804 25.7483 20.0302 25.7483C20.6756 25.7483 20.9274 26.0097 20.9274 26.6404C20.9274 28.7476 20.9274 30.8702 20.9274 32.9774C20.9274 33.1159 20.9274 33.2543 20.9274 33.4081C22.706 33.4081 24.4217 33.4081 26.1846 33.4081ZM12.9315 28.1477C12.9315 29.8704 12.9315 31.6393 12.9315 33.4081C14.7573 33.4081 16.5517 33.4081 18.3618 33.4081C16.5202 31.6393 14.7101 29.8858 12.9315 28.1477ZM14.2537 27.2095C16.0008 28.9014 17.7479 30.578 19.4636 32.2391C19.4636 30.6087 19.4636 28.9168 19.4636 27.2095C17.7007 27.2095 15.9851 27.2095 14.2537 27.2095Z"
        fill="#85643F" />
    <path
        d="M42.8365 38.2685C42.9939 38.2685 43.1199 38.2839 43.2458 38.2839C44.3633 38.2839 45.4809 38.2839 46.5827 38.2839C46.9289 38.2839 47.2437 38.3454 47.4169 38.6838C47.6215 39.053 47.4326 39.5298 47.0234 39.6528C46.8502 39.699 46.6614 39.7144 46.4882 39.7144C40.0034 39.7144 33.5342 39.7144 27.0494 39.7144C26.9392 39.7144 26.8448 39.7144 26.7346 39.699C26.2781 39.6375 26.0106 39.3606 26.0263 38.9761C26.0263 38.6069 26.2939 38.3454 26.7346 38.2839C26.8605 38.2685 27.0022 38.2685 27.1281 38.2685C29.5206 38.2685 31.8973 38.2685 34.2898 38.2685C34.4314 38.2685 34.5731 38.2685 34.8407 38.2685C32.8889 36.8535 31.7871 35.0692 31.6927 32.7774C31.5982 30.4856 32.4954 28.5938 34.3055 27.1479C37.2174 24.8561 41.5144 25.2099 44.0328 27.8247C46.5512 30.4241 46.8817 35.4384 42.8365 38.2685ZM33.7231 32.516C33.7231 35.2384 35.9739 37.4226 38.7914 37.438C41.5931 37.438 43.8911 35.2384 43.8911 32.5313C43.8911 29.8396 41.6088 27.6247 38.8071 27.6094C36.0212 27.594 33.7231 29.7935 33.7231 32.516Z"
        fill="#85643F" opacity="0.5" />
    <path
        d="M22.957 39.7296C22.6265 39.7142 22.3274 39.7296 22.0283 39.6835C21.6506 39.6219 21.3987 39.3451 21.3987 39.0067C21.3987 38.6683 21.6348 38.3453 22.0126 38.3299C22.6265 38.2838 23.2403 38.2991 23.8542 38.3299C24.2319 38.3453 24.4208 38.6375 24.4366 38.9913C24.468 39.3143 24.2005 39.6219 23.8384 39.6835C23.5394 39.7296 23.2246 39.7142 22.957 39.7296Z"
        fill="#85643F" />
    <path
        d="M14.4574 19.9802C14.4574 19.5342 14.4574 19.0881 14.4574 18.642C14.4574 18.2268 14.6463 17.996 15.0556 17.996C15.874 17.9807 16.7082 17.9807 17.5267 17.996C17.9202 18.0114 18.1248 18.2268 18.1406 18.6113C18.1563 19.5495 18.1563 20.4724 18.1406 21.4107C18.1406 21.7644 17.936 21.9951 17.5582 21.9951C16.724 22.0105 15.8898 22.0105 15.0398 21.9951C14.6463 21.9798 14.4732 21.7798 14.4574 21.3645C14.4417 20.9031 14.4574 20.4416 14.4574 19.9802Z"
        fill="#85643F" />
    <path
        d="M38.8229 34.0543C37.9414 34.0543 37.2331 33.3929 37.2174 32.5469C37.2016 31.7163 37.9099 31.0088 38.7914 30.9934C39.6571 30.978 40.3811 31.6702 40.3811 32.5008C40.3811 33.3621 39.6886 34.0389 38.8229 34.0543Z"
        fill="#85643F" />
</svg>
