<svg fill="none" height="20" viewBox="0 0 20 20" width="20" xmlns="http://www.w3.org/2000/svg">
    <path clip-rule="evenodd"
        d="M7.65724 3.12268C7.65724 2.77865 7.37307 2.5 7.02307 2.5H7.02224L5.66474 2.50082C3.83891 2.50245 2.35307 3.96109 2.35307 5.75232V7.30167C2.35307 7.64488 2.63724 7.92435 2.98724 7.92435C3.33724 7.92435 3.62224 7.64488 3.62224 7.30167V5.75232C3.62224 4.6467 4.53891 3.747 5.66557 3.74536L7.02307 3.74455C7.37391 3.74455 7.65724 3.46589 7.65724 3.12268ZM14.328 2.50029H13.0005C12.6505 2.50029 12.3663 2.77895 12.3663 3.12298C12.3663 3.46619 12.6505 3.74402 13.0005 3.74402H14.328C15.4588 3.74402 16.3788 4.64618 16.3788 5.75507V7.30197C16.3788 7.64518 16.663 7.92465 17.013 7.92465C17.3638 7.92465 17.6472 7.64518 17.6472 7.30197V5.75507C17.6472 3.95975 16.1588 2.50029 14.328 2.50029ZM7.69874 5.61888H12.3021C12.8062 5.61888 13.2904 5.81745 13.6429 6.17129C13.9979 6.52839 14.1946 7.00807 14.1937 7.50735V8.54516C14.1896 8.66691 14.0904 8.76579 13.9662 8.76906H6.0329C5.90957 8.76497 5.8104 8.6661 5.8079 8.54516V7.50735C5.79874 6.47364 6.6454 5.6295 7.69874 5.61888Z"
        fill="#929AAB" fill-rule="evenodd" opacity="0.4" />
    <path
        d="M18.5325 10.0344H1.46833C1.11833 10.0344 0.833328 10.3131 0.833328 10.6571C0.833328 11.0003 1.11833 11.2782 1.46833 11.2782H2.35249V14.2477C2.35249 16.039 3.83916 17.4976 5.66499 17.4992L7.02249 17.5001C7.37333 17.5001 7.65666 17.2214 7.65749 16.8774C7.65749 16.5342 7.37333 16.2555 7.02333 16.2555L5.66666 16.2547C4.53916 16.2531 3.62166 15.3534 3.62166 14.2477V11.2782H5.80749V12.1043C5.79916 13.138 6.64499 13.983 7.69833 13.9928H12.3017C13.3558 13.983 14.2017 13.138 14.1933 12.1043V11.2782H16.3792V14.2445C16.3792 15.3542 15.4592 16.2555 14.3283 16.2555H13.0008C12.65 16.2555 12.3658 16.5342 12.3658 16.8774C12.3658 17.2214 12.65 17.5001 13.0008 17.5001H14.3283C16.1583 17.5001 17.6475 16.0406 17.6475 14.2445V11.2782H18.5325C18.8825 11.2782 19.1667 11.0003 19.1667 10.6571C19.1667 10.3131 18.8825 10.0344 18.5325 10.0344Z"
        fill="#929AAB" />
</svg>
