<svg fill="none" height="150" viewBox="0 0 361 150" width="361" xmlns="http://www.w3.org/2000/svg">
    <mask height="150" id="mask0" mask-type="alpha" maskUnits="userSpaceOnUse" width="361" x="0"
        y="0">
        <rect fill="#F6921E" height="150" rx="10" width="361" />
    </mask>
    <g mask="url(#mask0)">
        <g style="mix-blend-mode:multiply">
            <path
                d="M295 113.855C343 100.569 368.667 119.391 375.5 130.462V172.784H-7.5V130.462C25.5 95.6409 75.5 113.855 93.5 130.462C111.5 147.069 124 140.641 135.5 140.105C147 139.569 159 124.034 188 130.462C217 136.891 235 130.462 295 113.855Z"
                fill="#F6E6D4" />
        </g>
        <g style="mix-blend-mode:multiply">
            <path
                d="M73.5 96.5538C25.5 77.4989 -0.166656 104.493 -7 120.372V181.071H376V120.372C343 70.4302 293 96.5538 275 120.372C257 144.191 244.5 134.971 233 134.203C221.5 133.434 209.5 111.152 180.5 120.372C151.5 129.593 133.5 120.372 73.5 96.5538Z"
                fill="#F6E6D4" />
        </g>
    </g>
</svg>
